<svg xmlns="http://www.w3.org/2000/svg" viewBox="0 0 138 58">
	<title>JNE</title>
	<path fill="#25387c" d="M101.5,53.6c-0.1,-0.3 -0.2,-0.5 -0.3,-0.7c0.6,-0.2 1,-0.6 1.3,-1.1c0.4,-0.6 0.5,-1.4 0.5,-2.3c0,-0.7 -0.1,-1.2 -0.3,-1.7c-0.2,-0.5 -0.5,-0.9 -0.8,-1c-0.3,-0.2 -0.8,-0.3 -1.3,-0.3l-3.2,0l-1.4,10.9l2,0l0.6,-4.3l0.3,0c0.3,0 0.4,0.1 0.5,0.1c0.1,0.1 0.3,0.5 0.5,1.2c0.3,1.2 0.6,2.1 0.7,2.7l0.1,0.2l2.1,0l-0.1,-0.4c-0.5,-1.3 -0.9,-2.5 -1.2,-3.3Zm-2.4,-4.8l1.2,-0c0.5,-0 0.6,0.1 0.6,0.1c0.1,0.1 0.2,0.3 0.2,0.6c0,0.3 -0.1,0.5 -0.2,0.8c-0.1,0.2 -0.3,0.4 -0.5,0.5c-0.1,0.1 -0.4,0.2 -1.3,0.2l-0.4,-0l0.4,-2.2Zm-20.5,6.3l0.3,-2.2l3.5,-0l0.3,-2.3l-3.5,-0l0.3,-1.7l3.5,-0l0.3,-2.3l-5.5,-0l-1.5,10.9l5.8,-0l0.3,-2.3l-3.8,-0l0,-0.1Zm12.2,-8.6l-2.4,-0l-1.1,2c-0.2,0.3 -0.4,0.7 -0.6,1.1l-1,-3l-2.1,-0l1.7,5.4l-3.1,5.6l2.5,-0l1,-1.8c0.2,-0.4 0.4,-0.7 0.6,-1c0.1,0.3 0.2,0.6 0.3,1l0.6,1.8l2.2,-0l-1.7,-5.2l3.1,-5.9Zm5.5,2.9c0,-0.6 -0.1,-1.1 -0.3,-1.6c-0.2,-0.5 -0.5,-0.8 -0.8,-1c-0.3,-0.2 -0.8,-0.3 -1.3,-0.3l-3,-0l-1.5,10.9l2,-0l0.5,-3.9l0.6,-0c0.6,-0 1,-0 1.3,-0.1c0.4,-0.1 0.7,-0.2 1,-0.4c0.3,-0.2 0.5,-0.4 0.7,-0.8c0.2,-0.3 0.4,-0.7 0.5,-1.3c0.2,-0.4 0.3,-1 0.3,-1.5Zm-3.7,-0.6l0.7,-0c0.6,-0 0.7,0.1 0.7,0.1c0.1,-0 0.1,0.1 0.2,0.2c0.1,0.1 0.1,0.3 0.1,0.5c0,0.3 -0.1,0.6 -0.2,0.9c-0.1,0.3 -0.3,0.4 -0.5,0.5c-0.1,0.1 -0.4,0.2 -1.3,0.2l-0.1,-0l0.4,-2.4Zm16.4,4.1l0.3,-2.3l-3.4,-0l0.2,-1.7l3.6,-0l0.3,-2.3l-5.6,-0l-1.4,10.8l5.8,-0l0.3,-2.3l-3.9,-0l0.3,-2.2l3.5,-0Zm4.2,-4.3c0.3,-0 0.5,0.1 0.6,0.3c0.2,0.2 0.3,0.5 0.3,1l0,0.3l1.9,-0.2l0,-0.3c-0.1,-1 -0.3,-1.8 -0.8,-2.4c-0.5,-0.7 -1.2,-1 -2,-1c-0.9,-0 -1.5,0.3 -2,1c-0.5,0.6 -0.7,1.4 -0.7,2.3c0,0.5 0.1,1 0.2,1.4c0.1,0.4 0.4,0.8 0.6,1c0.3,0.3 0.6,0.5 1.2,0.9c0.6,0.4 0.8,0.6 0.9,0.7c0.1,0.2 0.2,0.3 0.2,0.6c0,0.3 -0.1,0.5 -0.2,0.7c-0.1,0.2 -0.4,0.3 -0.7,0.3c-0.6,-0 -0.8,-0.2 -0.9,-0.4c-0.1,-0.1 -0.1,-0.4 -0.2,-1.2l0,-0.3l-1.9,0.1l0,0.3c0,0.7 0.1,1.4 0.3,1.9c0.2,0.6 0.5,1 1,1.4c0.5,0.3 1,0.5 1.7,0.5c0.9,-0 1.7,-0.4 2.2,-1.1c0.5,-0.7 0.8,-1.5 0.8,-2.5c0,-0.8 -0.2,-1.4 -0.5,-2c-0.2,-0.4 -0.7,-0.8 -1.6,-1.3c-0.6,-0.4 -0.8,-0.6 -0.9,-0.7c-0.1,-0.1 -0.2,-0.3 -0.2,-0.5c0,-0.3 0.1,-0.5 0.2,-0.6c0,-0.1 0.2,-0.2 0.5,-0.2Zm6.7,2.1c-0.6,-0.4 -0.8,-0.6 -0.9,-0.7c-0.1,-0.1 -0.2,-0.3 -0.2,-0.5c0,-0.3 0.1,-0.5 0.2,-0.6c0.1,-0.1 0.3,-0.2 0.6,-0.2c0.3,-0 0.5,0.1 0.6,0.3c0.2,0.2 0.3,0.5 0.3,1l0,0.3l1.9,-0.1l0,-0.3c-0.1,-1 -0.3,-1.8 -0.8,-2.4c-0.5,-0.7 -1.2,-1 -2,-1c-0.9,-0 -1.5,0.3 -2,1c-0.5,0.6 -0.7,1.4 -0.7,2.3c0,0.5 0.1,1 0.2,1.4c0.1,0.4 0.4,0.8 0.6,1c0.3,0.3 0.6,0.5 1.2,0.9c0.6,0.4 0.8,0.6 0.9,0.7c0.1,0.2 0.2,0.3 0.2,0.6c0,0.3 -0.1,0.5 -0.2,0.7c-0.1,0.2 -0.4,0.3 -0.7,0.3c-0.6,-0 -0.8,-0.2 -0.9,-0.4c-0.1,-0.1 -0.1,-0.4 -0.2,-1.2l0,-0.3l-1.9,0.1l0,0.3c0,0.7 0.1,1.4 0.3,1.9c0.2,0.6 0.5,1 1,1.4c0.5,0.3 1,0.5 1.7,0.5c0.9,-0 1.7,-0.4 2.2,-1.1c0.5,-0.7 0.8,-1.5 0.8,-2.5c0,-0.8 -0.2,-1.4 -0.5,-2c-0.4,-0.4 -0.9,-0.8 -1.7,-1.4Z"/>
	<path fill="#25387b" d="M90.8,41.4l8.7,-41.4l32.4,0l-2.2,10.3l-16.2,0l-1.1,5.2l13.8,0l-2.2,10.4l-13.8,0l-1,5.1l16.2,0l-2.2,10.4l-32.4,0Z"/>
	<path fill="#df2128" d="M0,41.4c28.8,-13.8 67.8,-22.6 103.4,-25.8c9.6,-0.9 19.1,-1.4 32.4,-1.4c0.5,0 1.4,-0.2 2.1,-0.3l-2.7,12.8c-0.1,0.7 -1.3,1 -2.2,1c-81.3,0 -130,13.8 -130,13.8l-3,-0.1Z"/>
	<path fill="#25387b" d="M43.6,41.4l8.7,-41.4l15.5,0l9.3,18.8l3.9,-18.8l15.5,0l-8.7,41.4l-15.5,0l-9.1,-19.5l-4,19.5l-15.6,0Z"/>
	<path fill="#25387b" d="M28.8,24.1l5,-24.1l15.5,0l-6.1,29c-1.9,9 -8.8,12.4 -18.1,12.4l-11.3,0l2.6,-12.4l5.2,0c3.7,0 6.5,-1.4 7.2,-4.9Z"/>
</svg>