<svg xmlns="http://www.w3.org/2000/svg" viewBox="0 0 230 47">
	<title>TiKi</title>
	<path fill="#0632ad" d="M191.401,42.628l4.719,-28.727l5.343,0c-3.239,-0.925 -5.436,-2.752 -5.436,-4.88c-0,-3.03 4.51,-5.505 10.108,-5.505c5.574,-0 10.084,2.475 10.084,5.505c0,2.128 -2.197,3.955 -5.435,4.88l4.233,0l-4.742,28.727l-18.874,0Zm-57.454,0l6.823,-39.112l18.897,-0l-6.847,39.112l-18.873,0Zm-24.264,0l4.719,-28.727l5.366,0c-3.238,-0.925 -5.482,-2.752 -5.482,-4.88c-0,-3.03 4.533,-5.505 10.108,-5.505c5.574,-0 10.107,2.475 10.107,5.505c0,2.128 -2.243,3.955 -5.481,4.88l4.233,0l-4.742,28.727l-18.851,0l0.023,0Zm-35.574,0l5.066,-28.38l-12.12,-0l1.919,-11.056l42.259,-0l-2.036,11.056l-11.148,-0l-5.089,28.38l-18.851,0Z"/>
	<path fill="#f00" d="M8.975,31.734c1.18,2.915 2.961,5.551 5.205,7.633l-0.024,0c3.678,3.516 8.628,5.644 14.041,5.644c5.412,-0 10.361,-2.128 14.062,-5.644l0.023,0c2.198,-2.105 4.002,-4.718 5.159,-7.633l2.104,0c-1.04,2.845 -2.59,5.436 -4.533,7.633l-0.023,0c-4.164,4.719 -10.154,7.633 -16.792,7.633c-6.639,-0 -12.63,-2.914 -16.793,-7.633l0.023,0c-1.966,-2.197 -3.516,-4.788 -4.533,-7.633l2.081,0Zm2.635,0.096c0.921,1.997 2.178,3.791 3.703,5.317c0.833,-0.926 1.758,-1.781 2.729,-2.521c-0.485,-0.903 -0.902,-1.851 -1.272,-2.892l1.11,0c0.301,0.787 0.648,1.573 1.041,2.267c0.37,-0.208 0.717,-0.44 1.11,-0.648l-1.433,-1.619l2.405,0l0.555,0.856c0.278,-0.092 0.555,-0.208 0.856,-0.347c-0.07,-0.162 -0.092,-0.347 -0.139,-0.509l0.902,0c0.023,0.07 0.023,0.162 0.07,0.232c0.277,-0.07 0.578,-0.162 0.856,-0.232l8.326,0c0.104,0.026 0.212,0.056 0.32,0.086l0.216,0.06c0.109,0.03 0.216,0.06 0.32,0.086c0.023,-0.07 0.023,-0.162 0.069,-0.232l0.902,0c-0.023,0.162 -0.069,0.347 -0.138,0.509c1.249,0.486 2.382,1.064 3.469,1.758c0.37,-0.694 0.717,-1.48 1.041,-2.267l1.11,0c-0.37,1.041 -0.786,1.989 -1.272,2.892c0.972,0.716 1.897,1.572 2.729,2.521c1.55,-1.55 2.822,-3.377 3.747,-5.413l1.203,0c-1.041,2.336 -2.475,4.464 -4.233,6.268c-0.231,0.232 -0.508,0.486 -0.786,0.718c-0.231,0.208 -0.486,0.439 -0.763,0.647l-0.093,0c-0.994,0.787 -2.058,1.504 -3.192,2.105c-0.37,0.208 -0.763,0.416 -1.133,0.578c-2.382,1.041 -4.996,1.619 -7.748,1.619c-2.753,0 -5.367,-0.578 -7.749,-1.619c-0.37,-0.162 -0.763,-0.37 -1.134,-0.578c-1.133,-0.578 -2.197,-1.318 -3.191,-2.105l0.046,0c-0.278,-0.208 -0.509,-0.439 -0.763,-0.647c-0.278,-0.232 -0.556,-0.486 -0.787,-0.718c-1.758,-1.781 -3.192,-3.932 -4.233,-6.268l1.18,0l0.044,0.096Zm159.969,-27.759l21.881,-0l-18.62,18.943l12.12,19.614l-22.737,0l-11.541,-18.897l18.897,-19.66Zm-139.266,35.296c-0.346,-0.139 -0.693,-0.277 -1.04,-0.416c-0.301,-0.069 -0.579,-0.162 -0.902,-0.231c-0.648,-0.139 -1.388,-0.209 -2.105,-0.209c-0.717,0 -1.434,0.07 -2.105,0.209c-0.301,0.069 -0.578,0.162 -0.902,0.231c-0.347,0.139 -0.694,0.277 -1.041,0.416l-0.046,0c-0.093,0.046 -0.208,0.093 -0.278,0.139c-0.37,0.162 -0.717,0.37 -1.064,0.578c-0.508,0.301 -0.994,0.694 -1.48,1.11c2.105,0.902 4.441,1.388 6.847,1.388c2.405,0 4.741,-0.486 6.846,-1.388c-0.486,-0.416 -0.971,-0.786 -1.48,-1.11c-0.347,-0.208 -0.694,-0.416 -1.064,-0.578c-0.07,-0.023 -0.162,-0.093 -0.278,-0.139l0.092,0Zm-10.408,0c-1.249,-0.994 -2.336,-2.266 -3.261,-3.747c-0.902,0.648 -1.758,1.411 -2.521,2.267c0.578,0.509 1.249,1.041 1.896,1.48l-0.046,0c0.694,0.486 1.434,0.925 2.197,1.318c0.509,-0.485 1.111,-0.925 1.689,-1.318l0.046,0Zm16.607,0c0.648,-0.439 1.319,-0.971 1.897,-1.48c-0.763,-0.856 -1.619,-1.619 -2.521,-2.267c-0.925,1.481 -2.035,2.753 -3.262,3.747l-0.092,0c0.578,0.37 1.18,0.833 1.689,1.318c0.763,-0.416 1.503,-0.832 2.197,-1.318l0.092,0Zm-4.926,-0.532c1.272,-0.971 2.405,-2.244 3.377,-3.793c-0.995,-0.648 -2.059,-1.18 -3.169,-1.573c-0.509,1.827 -1.18,3.4 -1.92,4.603c0.578,0.208 1.18,0.439 1.712,0.763Zm-14.099,-3.777c0.969,1.542 2.099,2.809 3.366,3.777c0.556,-0.301 1.134,-0.555 1.712,-0.763c-0.763,-1.203 -1.411,-2.776 -1.92,-4.603c-0.162,0.069 -0.347,0.092 -0.509,0.208l0.232,0.347l-1.064,0c-0.621,0.299 -1.242,0.644 -1.817,1.034Zm3.991,-1.867c0.509,1.897 1.179,3.47 1.92,4.65c0.902,-0.232 1.85,-0.37 2.821,-0.37c0.972,-0 1.92,0.138 2.822,0.37c0.764,-1.18 1.411,-2.753 1.92,-4.65c-1.503,-0.485 -3.099,-0.717 -4.742,-0.717c-1.642,0 -3.238,0.232 -4.741,0.717Zm-3.991,1.867l-0.011,-0.016l0,0.023l0.011,-0.007Zm4.523,-3.347c1.341,-0.347 2.729,-0.509 4.163,-0.509c1.434,0 2.822,0.162 4.164,0.509l-8.327,0Zm14.526,0c0.763,-2.035 1.249,-4.325 1.387,-6.777l1.064,0c-0.139,2.406 -0.624,4.719 -1.341,6.777l-1.11,0Zm6.291,0c0.971,-2.058 1.573,-4.371 1.758,-6.777l1.11,0c-0.162,2.406 -0.763,4.672 -1.642,6.777l-1.226,0Zm2.59,0c0.856,-2.105 1.388,-4.395 1.55,-6.777l1.92,0c-0.139,2.382 -0.625,4.649 -1.365,6.777l-2.105,0Zm-37.1,0c-0.625,-1.434 -1.11,-2.984 -1.388,-4.603l1.111,0c0.3,1.619 0.832,3.169 1.48,4.603l-1.203,0Zm-3.469,0c-0.509,-1.48 -0.926,-2.984 -1.18,-4.603l1.966,0c0.277,1.619 0.717,3.169 1.318,4.603l-2.104,0Zm26.414,0c0.416,-2.035 0.694,-4.325 0.763,-6.777l0.925,0c-0.069,2.452 -0.347,4.719 -0.786,6.777l-0.902,0Zm-3.354,-11.542l1.966,0l-0.023,0.093l-0.023,-0l-1.92,2.914l1.781,2.915l-1.711,-0l-1.897,-1.712l-5.783,0.231c0.07,2.591 0.347,4.996 0.787,7.078l-0.902,0c-0.44,-2.128 -0.717,-4.51 -0.787,-7.055l-4.672,0.208l4.187,6.847l-2.406,0l-0.763,-0.833l-0.208,0c0.092,0.278 0.161,0.555 0.277,0.833l-1.11,0c-0.093,-0.278 -0.162,-0.555 -0.278,-0.833l-0.277,0l-0.972,-1.272l0.856,-0.069c-0.023,-0.231 -0.092,-0.44 -0.139,-0.694l-0.347,-0.347l-1.503,-0l-1.11,-1.411l1.272,-0.092l-1.828,-1.99c-0.925,0 -1.781,0.023 -2.613,0.023l-1.11,0.07l-1.272,0.046l-1.967,0.139c-1.41,0.069 -2.683,0.139 -3.932,0.162c-0.578,-0 -1.989,0.092 -1.434,-1.064c0.44,-0.925 1.504,-2.197 2.521,-2.683c1.111,-0.509 1.851,-0.856 2.961,-0.902c2.406,-0.07 7.402,0.508 7.402,0.508l0.971,-1.063l0.087,-0l0.653,-0.74l-1.318,-0.093l1.11,-1.411l1.55,-0c0.069,-0.347 0.162,-0.694 0.231,-1.041l-0.624,-0.023l0.971,-1.272l0.069,-0c0.37,-1.18 0.856,-2.244 1.365,-3.192c-0.971,-0.763 -1.897,-1.573 -2.729,-2.521c-2.452,2.451 -4.233,5.597 -5.019,9.159l-1.134,0c1.966,-9.021 9.738,-15.728 19.059,-15.728c9.684,-0 17.774,7.32 19.31,16.908l0.004,-0c0.069,0.578 0.138,1.203 0.208,1.827l-1.11,0c-0.069,-0.616 -0.137,-1.232 -0.228,-1.804l-0.004,-0c-0.647,-4.025 -2.544,-7.633 -5.273,-10.362c-0.833,0.925 -1.758,1.758 -2.73,2.521c1.2,2.238 2.055,4.912 2.449,7.818l0.003,-0c0.07,0.578 0.139,1.203 0.162,1.827l-1.064,0c-0.046,-0.616 -0.091,-1.232 -0.159,-1.804l-0.003,-0c-0.347,-2.729 -1.133,-5.158 -2.243,-7.263c-1.111,0.717 -2.244,1.319 -3.47,1.758c0.415,1.682 0.692,3.501 0.831,5.482l0.002,-0c0.069,0.578 0.092,1.203 0.092,1.827l-0.925,0c0,-0.616 -0.022,-1.232 -0.068,-1.804l-0.001,-0c-0.139,-1.897 -0.416,-3.655 -0.764,-5.227c-1.572,0.508 -3.261,0.786 -5.019,0.786c-1.757,0 -3.446,-0.278 -5.019,-0.786c-0.346,1.566 -0.622,3.316 -0.761,5.204l0.021,-0c-0.023,0.439 -0.023,0.902 -0.07,1.365l5.875,0.277l1.62,-1.642l0.069,-0.093Zm4.95,2.799l23.084,-0l-0,1.064l-23.084,0l-0,-1.064Zm13.892,-2.766c-1.529,-10.288 -10.166,-18.167 -20.577,-18.167c-10.015,0 -18.365,7.286 -20.377,17.024l-1.966,0c1.989,-10.871 11.241,-19.059 22.32,-19.059c11.496,0 20.979,8.813 22.529,20.262l0.046,-0c0.069,0.578 0.139,1.203 0.162,1.827l-1.92,0c-0.046,-0.624 -0.092,-1.249 -0.208,-1.827l-0.009,-0.06Zm-30.852,0.055l0.006,0.005l-0.717,1.133l4.232,0.208c0.023,-0.431 0.068,-0.885 0.092,-1.318l-0.022,-0c0.139,-1.989 0.416,-3.817 0.833,-5.505c-0.278,-0.092 -0.556,-0.208 -0.787,-0.301l-3.637,5.778Zm0.949,-7.247l0.005,-0.011l-0.023,-0l0.018,0.011c-0.415,0.829 -0.783,1.681 -1.128,2.603l0.439,-0l1.781,-1.966c-0.364,-0.205 -0.706,-0.41 -1.092,-0.637Zm6.504,-3.781c-0.763,1.133 -1.41,2.729 -1.919,4.649c1.503,0.486 3.099,0.717 4.741,0.717c1.643,0 3.238,-0.231 4.742,-0.717c-0.509,-1.92 -1.18,-3.516 -1.92,-4.649c-0.902,0.231 -1.85,0.347 -2.822,0.347c-0.971,-0 -1.919,-0.093 -2.822,-0.347Zm-2.544,-1.018c-1.272,0.972 -2.405,2.244 -3.377,3.793c0.44,0.278 0.856,0.509 1.342,0.764l0.208,-0.232l1.758,0l-0.555,0.903l0.416,0.162c0.509,-1.851 1.203,-3.401 1.966,-4.603c-0.624,-0.209 -1.203,-0.44 -1.758,-0.764l0,-0.023Zm14.109,3.793c-0.971,-1.549 -2.104,-2.821 -3.376,-3.793c-0.556,0.301 -1.134,0.555 -1.759,0.763c0.764,1.203 1.435,2.753 1.967,4.603c1.11,-0.416 2.174,-0.971 3.168,-1.573Zm187.006,-8.789c0.694,0 1.388,0.139 1.989,0.37c0.625,0.278 1.18,0.648 1.642,1.18c0.486,0.439 0.856,0.994 1.11,1.619c0.232,0.624 0.371,1.272 0.371,1.966c-0,0.694 -0.139,1.341 -0.417,1.966c-0.231,0.624 -0.624,1.18 -1.11,1.642c-0.486,0.486 -1.064,0.833 -1.689,1.111c-0.624,0.231 -1.272,0.37 -1.919,0.37c-0.694,-0 -1.342,-0.139 -1.966,-0.417c-0.625,-0.231 -1.18,-0.624 -1.689,-1.133c-0.439,-0.486 -0.833,-1.041 -1.064,-1.619c-0.231,-0.625 -0.37,-1.272 -0.37,-1.92c0,-0.486 0.07,-0.925 0.162,-1.388c0.139,-0.439 0.301,-0.856 0.578,-1.272c0.44,-0.786 1.064,-1.411 1.828,-1.827c0.763,-0.44 1.572,-0.648 2.521,-0.648l0.023,0Zm-0,0.856c-0.578,-0 -1.11,0.092 -1.619,0.301c-0.486,0.208 -0.925,0.485 -1.342,0.902c-0.416,0.416 -0.717,0.902 -0.971,1.411c-0.209,0.509 -0.347,1.063 -0.347,1.619c-0,0.578 0.138,1.11 0.347,1.619c0.208,0.508 0.509,0.971 0.902,1.365c0.416,0.416 0.856,0.716 1.411,0.924c0.509,0.232 1.064,0.348 1.619,0.348c0.555,-0 1.064,-0.093 1.573,-0.301c0.555,-0.231 0.994,-0.509 1.434,-0.925c0.37,-0.37 0.694,-0.833 0.902,-1.342c0.231,-0.509 0.347,-1.041 0.347,-1.573c-0,-0.624 -0.093,-1.179 -0.301,-1.688c-0.208,-0.509 -0.509,-0.972 -0.902,-1.365c-0.417,-0.416 -0.902,-0.763 -1.411,-0.971c-0.509,-0.209 -1.064,-0.301 -1.642,-0.301l-0,-0.023Zm-189.396,3.62c1.243,0.97 2.325,2.238 3.246,3.712c0.902,-0.648 1.758,-1.411 2.521,-2.244c-1.249,-1.11 -2.613,-2.058 -4.094,-2.775c-0.504,0.481 -1.099,0.894 -1.673,1.307Zm-15.952,3.689c0.926,-1.481 2.036,-2.753 3.262,-3.724c-0.579,-0.416 -1.18,-0.833 -1.689,-1.319c-1.48,0.718 -2.845,1.689 -4.094,2.776c0.764,0.833 1.619,1.573 2.521,2.244l0,0.023Zm203.243,-5.991l2.197,0c0.787,0 1.411,0.139 1.828,0.417c0.416,0.277 0.578,0.693 0.578,1.249c-0,0.37 -0.093,0.693 -0.301,0.971c-0.231,0.231 -0.509,0.44 -0.925,0.509l1.272,2.544l-1.503,0l-1.11,-2.313l-0.648,0l-0,2.313l-1.365,0l-0,-5.666l-0.023,-0.024Zm-199.01,1.55c0.347,0.208 0.694,0.416 1.064,0.578c0.416,0.209 0.856,0.37 1.342,0.509c0.277,0.092 0.555,0.162 0.855,0.231c0.694,0.139 1.388,0.232 2.105,0.232c0.717,-0 1.411,-0.093 2.105,-0.232c0.301,-0.069 0.578,-0.139 0.856,-0.231c0.486,-0.139 0.925,-0.3 1.341,-0.509c0.37,-0.162 0.717,-0.37 1.065,-0.578c0.508,-0.347 0.994,-0.717 1.48,-1.133c-2.105,-0.856 -4.441,-1.342 -6.847,-1.342c-2.405,0 -4.741,0.486 -6.846,1.342c0.486,0.416 0.971,0.786 1.48,1.133Zm200.375,-0.648l-0,1.619l0.647,0c0.417,0 0.717,-0.023 0.902,-0.162c0.162,-0.138 0.278,-0.346 0.278,-0.624c0,-0.278 -0.093,-0.486 -0.301,-0.625c-0.162,-0.138 -0.485,-0.208 -0.925,-0.208l-0.601,0Zm-188.656,1.4l-0.015,-0.012l-0,0.023l0.015,-0.011Z"/>
</svg>