<svg xmlns="http://www.w3.org/2000/svg" viewBox="0 0 229 62">
	<title>SiCepat</title>
	<g>
		<path fill="#CAC9C9" d="M20.6,58.1c11.4,0,20.6,0.9,20.6,2s-9.2,2-20.6,2S0,61.1,0,60S9.2,58.1,20.6,58.1z"/>
		<path fill="#921D26" d="M19.6,0.2l39.1,16.6c1.1,0.5,1.6,1.8,1.2,2.9L43.3,58.7c-0.5,1.1-1.8,1.6-2.9,1.2L1.4,43.3c-1.1-0.5-1.6-1.8-1.2-2.9L16.7,1.4C17.2,0.2,18.5-0.3,19.6,0.2z"/>
		<path fill="#70161E" d="M57.7,18.8c0.1,0.2,0.1,0.4,0,0.7l-16,37.8c-0.2,0.4-0.7,0.6-1.1,0.5l-37.8-16c-0.2-0.1-0.4-0.3-0.5-0.5L57.7,18.8L57.7,18.8z"/>
		<path fill="#D5232B" d="M19.7,3.6l36.5,15.5c0.2,0.1,0.3,0.4,0.2,0.6L40.9,56.2c-0.1,0.2-0.4,0.3-0.6,0.2L3.8,40.9c-0.2-0.1-0.3-0.4-0.2-0.6L19.1,3.8C19.2,3.6,19.5,3.5,19.7,3.6z"/>
		<path fill="#A11F24" d="M56.4,19.3c0,0.1,0,0.2,0,0.3L40.9,56.2c-0.1,0.2-0.4,0.3-0.6,0.2L3.8,40.9c-0.1-0.1-0.2-0.1-0.2-0.2L56.4,19.3z"/>
	</g>
	<g>
		<polygon fill="#FFF" points="49.7,20.4 27,31.8 24.8,21.7"/>
		<polygon fill="#E6E6E6" points="10.9,40 33.5,28.6 35.8,38.7"/>
		<polygon fill="#B3B3B3" points="27,31.8 33.5,28.6 34,30.7"/>
	</g>
	<path fill="#D5232B" d="M173.3,26.5c0-5.8-4.8-10.6-10.6-10.6h-2.5h-7.6h-0.3v27.4h8.4v-6.3h2.5C169,37.1,173.3,32.3,173.3,26.5z M161.2,29.8h-0.5v-6.6h0.5c1.8,0,3.3,1.5,3.3,3.3C164.5,28.3,163,29.8,161.2,29.8z M88.5,27.4c-1.7-1.3-2.9-1.7-2.9-2.9c0-1.2,2.7-0.8,2.7-0.8h1.6v-6.9h0c0,0-1.8-0.8-5.1-0.9c-8.3,0-8.8,6.3-8.8,8.2c0,4.7,7.7,9.3,7.7,10s-0.4,1.5-2.7,1.5s-4.7-0.8-4.7-0.8v7.8c0,0-0.6,0.8,6.7,0.8s9.6-4.5,9.6-8.1C92.7,31.8,90.1,28.7,88.5,27.4z M95.4,43.3h8.4V15.9h-8.4V43.3z M132.8,15.9v27.5h7.9h7.9v-7h-7.9v-3.3h6.9v-7h-6.9v-3.2h7.9v-7h-7.9H132.8z M121.4,23.6c1.8,0,3.5,0.8,4.6,2.1l4.8-6.1c-2.5-2.3-5.8-3.7-9.4-3.7c-7.6,0-13.7,6.2-13.7,13.7c0,7.6,6.2,13.7,13.7,13.7c3.6,0,7-1.4,9.4-3.7l-4.8-6.1c-1.1,1.3-2.7,2.1-4.6,2.1c-3.3,0-6-2.7-6-6S118.1,23.6,121.4,23.6z M170.2,43.3H199l-14.4-27.5L170.2,43.3z M210.4,15.9H202h-5v7.2h5v20.2h8.4V23.1h5v-7.2H210.4z"/>
	<g>
		<polygon fill="#E6E6E6" points="181.2,43.3 175.6,43.3 184.8,29.3 191.6,36.6"/>
		<polygon fill="#B3B3B3" points="181,35.1 184.8,29.3 186.3,30.8"/>
		<polygon fill="#FFF" points="186.6,19.8 188.6,23.5 181,35.1 176.9,30.6 180.5,23.8"/>
	</g>
	<path fill="#999" d="M152.8,49.6l0.2-1.3h-7.7l-0.2,1.3h1.6h2.8H152.8z M144.6,53l-0.9,6.2h7.9l0.2-1.3h-6.4l0.5-3.5h5.5l0.2-1.3h-2h-3.5L144.6,53L144.6,53z M161.7,53.4l5.6-5.1h-2l-6.7,6l0.9-6h-1.6l-1.6,10.9h1.6l0.4-2.8l2.3-2l3.6,4.9h1.7L161.7,53.4L161.7,53.4L161.7,53.4z M172.8,59.3c2.7,0,4.5-1.3,4.5-3.4c-0.2-3.3-5.7-2.2-5.8-4.5c-0.1-1.2,1-1.9,2.8-1.9c1.1,0,2.2,0.3,3,0.9l0.5-1.3c-0.9-0.6-2.2-0.9-3.5-0.9c-2.7,0-4.5,1.3-4.4,3.4c0.2,3.5,5.7,2.3,5.8,4.6c0.1,1.2-1.1,1.9-2.9,1.9c-1.3,0-2.7-0.5-3.6-1.3l-0.6,1.3C169.5,58.8,171.1,59.3,172.8,59.3L172.8,59.3z M186.9,48.3h-4.1l-1.6,10.9h1.6l0.5-3.3h2.9c3.1,0,5-1.6,4.9-4.4C191,49.5,189.5,48.3,186.9,48.3L186.9,48.3z M186.2,54.5h-2.7l0.7-4.9h2.6c1.6,0,2.6,0.7,2.7,2C189.7,53.6,188.4,54.5,186.2,54.5z M204.4,51.5c-0.1-2-1.6-3.2-4.2-3.2h-4.1l-1.6,10.9h1.6l0.5-3.3h2.9h0.3l2.1,3.3h1.6l-2.2-3.5C203.4,55.1,204.5,53.7,204.4,51.5L204.4,51.5z M199.5,54.5h-2.7l0.7-4.9h2.6c1.7,0,2.6,0.7,2.7,2C202.9,53.6,201.7,54.5,199.5,54.5L199.5,54.5z M217.1,49.7l0.2-1.3h-7.7l-0.2,1.3h1.6H217.1L217.1,49.7z M208.9,53l-0.9,6.2h7.9l0.2-1.3h-6.4l0.5-3.5h5.5L216,53h-5.5L208.9,53L208.9,53z M224,59.3c2.7,0,4.5-1.3,4.5-3.4c-0.2-3.3-5.7-2.2-5.8-4.5c-0.1-1.2,1-1.9,2.8-1.9c1.1,0,2.2,0.3,3,0.9l0.5-1.3c-0.9-0.6-2.2-0.9-3.5-0.9c-2.7,0-4.5,1.3-4.4,3.4c0.2,3.5,5.7,2.3,5.8,4.6c0.1,1.2-1.1,1.9-2.9,1.9c-1.3,0-2.7-0.5-3.6-1.3l-0.6,1.3C220.7,58.8,222.3,59.4,224,59.3L224,59.3z"/>
</svg>