<svg xmlns="http://www.w3.org/2000/svg" viewBox="0 0 202 60">
	<title>Wahana</title>
	<path fill="#0061ae" d="M200.4,16.5h-11.9c-2.2,0-3.4,0.8-4.6,2.6l-13.7,21.4h10.3l2.9-4.4h7.7l0.3,4.4h10.1L200.4,16.5z M186.7,30.9l3.5-5.9h0.5l0.2,5.9H186.7z M40.9,13.4H29.5c-1.8,0-3,1-3.9,2.5c-2.6,4.1-5.3,8.3-7.9,12.4c1.2,2.6,2.4,5.3,3.6,7.9c-2.5-3.7-4.9-7.5-7.4-11.3H0.1c3.2,5.2,6.5,10.4,9.7,15.5c4.7,0,9.3,0,14-0.1c0,0,0,0,0,0C29.5,31.4,35.2,22.4,40.9,13.4z M103.8,16.5l-2.3,8.1h-5.3l2.3-8.1H87.9l-6.8,23.9h10.6l2.3-8.2h5.3L97,40.5h10.6l6.8-23.9H103.8z M66.1,16.5c-2.2,0-3.4,0.8-4.6,2.6L47.8,40.5h10.3l2.9-4.4h7.7l0.3,4.4h10.1l-1.1-24H66.1z M64.2,30.9l3.5-5.9h0.5l0.2,5.9H64.2z M51.5,10c-1.8,0-3,1-3.9,2.5c-2.7,4.1-7.5,11.7-10.1,15.9c1.2,2.6,2.4,5.3,3.6,7.9l-6.3-10.3l-7.9,10.2c0.9,1.4,1.8,2.9,2.7,4.4c4.7,0,9.3,0,14-0.1c0,0,0,0,0,0c5.7-9,13.6-21.5,19.3-30.4H51.5z M127.3,16.5c-2.2,0-3.4,0.8-4.6,2.6L109,40.5h10.3l2.9-4.4h7.7l0.3,4.4h10.1l-1.1-24H127.3z M125.4,30.9l3.5-5.9h0.5l0.2,5.9H125.4z M30.3,7.5c8.2-2.9,19.3-3.4,31,0.3C48.1-0.4,32.2-2.7,17.7,3.6C8,7.9,2.8,14.9,0,23h13.7C17.5,15.1,23,10.1,30.3,7.5z M165.3,16.6l-3.1,11.2l-2.4-11.2l-0.1,0.5l0.1-0.5h-10.5l-6.7,23.9h10.5l3.2-11.3l2.4,11.2l0,0.1h0l0,0.1l0-0.1h10.4l6.7-23.9H165.3z"/>
	<path fill="#e62129" d="M131.5,56.4h10l0.6-2.9h-5.7l0.4-1.7h5.4l0.6-2.9h-5.4l0.4-1.7h5.6l0.6-2.9h-9.9L131.5,56.4L131.5,56.4L131.5,56.4z M144,47.3l1.7,4.2l-3.8,4.8h4.2l2-2.9l0.7,2.9h4.4l-1.8-4.9l3.2-4.1h-4l-1.7,2.7l-0.6-2.7H144z M153.1,60h4.1l1-4.8h0c0.2,0.5,0.5,0.8,0.9,1.1c0.4,0.2,0.9,0.3,1.4,0.3c0.6,0,1.2-0.1,1.7-0.4c0.5-0.2,1-0.6,1.4-1c0.4-0.4,0.7-0.9,0.9-1.4c0.3-0.6,0.4-1.2,0.6-1.7c0.1-0.7,0.2-1.3,0.2-1.9c0-0.6-0.1-1.1-0.3-1.6c-0.2-0.4-0.5-0.8-0.9-1.1c-0.4-0.3-1-0.4-1.7-0.4s-1.3,0.1-1.8,0.4c-0.5,0.3-1,0.8-1.4,1.4h0l0.4-1.7h-3.8L153.1,60z M158.8,51.9c0.1-0.2,0.1-0.4,0.2-0.7c0.1-0.2,0.1-0.4,0.3-0.6c0.1-0.2,0.2-0.3,0.4-0.4c0.1-0.1,0.4-0.2,0.6-0.2c0.2,0,0.4,0.1,0.5,0.2c0.1,0.1,0.2,0.3,0.2,0.4c0,0.2,0,0.4,0,0.6c0,0.2-0.1,0.5-0.1,0.7c-0.1,0.2-0.1,0.5-0.2,0.7s-0.1,0.4-0.3,0.6c-0.1,0.2-0.2,0.3-0.4,0.4c-0.1,0.1-0.3,0.1-0.6,0.1c-0.2,0-0.4-0.1-0.5-0.1c-0.1-0.1-0.2-0.2-0.2-0.4c0-0.2,0-0.4,0-0.6C158.7,52.4,158.7,52.1,158.8,51.9C158.8,51.8,158.8,51.9,158.8,51.9z M167.3,47.3l-1.9,9h4.1l0.7-3.3c0.1-0.3,0.2-0.6,0.4-0.9c0.2-0.3,0.4-0.5,0.6-0.8c0.2-0.2,0.5-0.4,0.8-0.5c0.3-0.1,0.6-0.2,0.9-0.2c0.2,0,0.4,0,0.5,0s0.3,0.1,0.4,0.1l0.8-3.6c-0.2-0.1-0.4-0.1-0.6-0.1c-0.3,0-0.6,0.1-0.9,0.2c-0.3,0.1-0.6,0.3-0.8,0.5c-0.3,0.2-0.5,0.4-0.7,0.7c-0.2,0.3-0.4,0.6-0.6,0.9h0l0.4-2H167.3z M178,51c0-0.2,0.1-0.4,0.1-0.6c0.1-0.2,0.2-0.4,0.3-0.6s0.3-0.3,0.4-0.4c0.2-0.1,0.4-0.2,0.6-0.2s0.4,0.1,0.5,0.2c0.1,0.1,0.2,0.3,0.2,0.4c0,0.2,0,0.4,0,0.6c0,0.2-0.1,0.4-0.1,0.6H178L178,51z M183.3,52.9l0.1-0.5c0.2-0.8,0.2-1.5,0.2-2.1c0-0.6-0.1-1.2-0.4-1.7c-0.3-0.5-0.6-0.8-1.2-1.1c-0.5-0.3-1.2-0.4-2-0.4c-1.7,0-3.1,0.4-4.2,1.1c-1.1,0.8-1.7,1.9-2.1,3.4c-0.3,1.6-0.1,2.8,0.6,3.6c0.7,0.9,1.9,1.3,3.7,1.3c0.7,0,1.4,0,2.1-0.1c0.6-0.1,1.3-0.2,1.9-0.4l0.5-2.3c-0.4,0.2-0.8,0.3-1.3,0.4c-0.5,0.1-1,0.1-1.6,0.1c-0.3,0-0.6,0-0.9-0.1c-0.3,0-0.5-0.1-0.7-0.2c-0.2-0.1-0.3-0.2-0.4-0.4c-0.1-0.2-0.1-0.4-0.1-0.7L183.3,52.9L183.3,52.9z M183.4,56.1c0.6,0.1,1.1,0.3,1.7,0.4c0.6,0.1,1.2,0.1,1.8,0.1c0.5,0,1-0.1,1.6-0.1c0.6-0.1,1.1-0.3,1.7-0.5c0.5-0.2,1-0.6,1.4-1c0.4-0.4,0.7-0.9,0.8-1.6c0.1-0.6,0.1-1-0.1-1.4c-0.2-0.3-0.4-0.6-0.7-0.8c-0.3-0.2-0.7-0.3-1.1-0.4c-0.4-0.1-0.8-0.1-1.1-0.2c-0.4-0.1-0.6-0.1-0.9-0.2c-0.2-0.1-0.3-0.2-0.3-0.3c0-0.1,0.1-0.2,0.2-0.3c0.1-0.1,0.2-0.1,0.4-0.2c0.1-0.1,0.3-0.1,0.5-0.1c0.2,0,0.4,0,0.5,0c0.5,0,0.9,0.1,1.3,0.1c0.4,0.1,0.8,0.2,1.2,0.4l0.5-2.4c-0.5-0.1-1-0.2-1.5-0.3c-0.5-0.1-1-0.1-1.5-0.1c-0.5,0-1.1,0-1.7,0.1c-0.6,0.1-1.1,0.2-1.7,0.4c-0.5,0.2-1,0.5-1.4,0.9c-0.4,0.4-0.6,0.9-0.8,1.6c-0.1,0.6-0.1,1,0.1,1.4c0.1,0.4,0.4,0.6,0.7,0.8s0.7,0.4,1.1,0.4c0.4,0.1,0.8,0.2,1.1,0.2c0.4,0.1,0.6,0.1,0.8,0.2c0.2,0.1,0.3,0.2,0.3,0.4c0,0.1-0.1,0.2-0.2,0.3c-0.1,0.1-0.2,0.1-0.4,0.2c-0.1,0.1-0.3,0.1-0.5,0.1c-0.2,0-0.4,0-0.5,0c-0.5,0-1.1-0.1-1.6-0.2c-0.5-0.1-0.9-0.4-1.3-0.6L183.4,56.1L183.4,56.1L183.4,56.1z M192.5,56.1c0.6,0.1,1.1,0.3,1.7,0.4c0.6,0.1,1.2,0.1,1.8,0.1c0.5,0,1-0.1,1.6-0.1s1.1-0.3,1.7-0.5c0.5-0.2,1-0.6,1.4-1c0.4-0.4,0.7-0.9,0.8-1.6c0.1-0.6,0.1-1-0.1-1.4c-0.2-0.3-0.4-0.6-0.7-0.8c-0.3-0.2-0.7-0.3-1.1-0.4c-0.4-0.1-0.8-0.1-1.1-0.2c-0.4-0.1-0.6-0.1-0.9-0.2c-0.2-0.1-0.3-0.2-0.3-0.3c0-0.1,0.1-0.2,0.2-0.3c0.1-0.1,0.2-0.1,0.4-0.2c0.1-0.1,0.3-0.1,0.5-0.1c0.2,0,0.4,0,0.5,0c0.5,0,0.9,0.1,1.3,0.1c0.4,0.1,0.8,0.2,1.2,0.4l0.5-2.4c-0.5-0.1-1-0.2-1.5-0.3c-0.5-0.1-1-0.1-1.5-0.1c-0.5,0-1.1,0-1.7,0.1c-0.6,0.1-1.1,0.2-1.7,0.4c-0.5,0.2-1,0.5-1.4,0.9c-0.4,0.4-0.6,0.9-0.8,1.6c-0.1,0.6-0.1,1,0.1,1.4c0.1,0.4,0.4,0.6,0.7,0.8s0.7,0.4,1.1,0.4c0.4,0.1,0.8,0.2,1.1,0.2c0.4,0.1,0.6,0.1,0.8,0.2c0.2,0.1,0.3,0.2,0.3,0.4c0,0.1-0.1,0.2-0.2,0.3c-0.1,0.1-0.2,0.1-0.4,0.2c-0.1,0.1-0.3,0.1-0.5,0.1c-0.2,0-0.4,0-0.5,0c-0.5,0-1.1-0.1-1.6-0.2c-0.5-0.1-0.9-0.4-1.3-0.6L192.5,56.1L192.5,56.1L192.5,56.1z"/>
</svg>