<svg xmlns="http://www.w3.org/2000/svg" viewBox="0 0 404 84">
	<title>Pos Indonesia</title>
	<path fill="#b6b6b7" d="M-0,32.308l9.967,0c2.169,0 3.796,0.511 4.879,1.547c1.077,1.035 1.62,2.502 1.62,4.409c0,1.962 -0.591,3.493 -1.77,4.602c-1.182,1.099 -2.984,1.649 -5.4,1.649l-3.285,0l0,7.177l-6.011,-0l-0,-19.384Zm6.011,8.283l1.476,0c1.164,0 1.978,-0.205 2.448,-0.604c0.47,-0.399 0.709,-0.917 0.709,-1.54c0,-0.614 -0.207,-1.125 -0.613,-1.554c-0.406,-0.424 -1.18,-0.631 -2.304,-0.631l-1.716,-0l0,4.329Zm12.814,1.422c-0,-3.167 0.878,-5.631 2.639,-7.385c1.771,-1.77 4.218,-2.646 7.376,-2.646c3.221,-0 5.71,0.869 7.455,2.591c1.747,1.736 2.616,4.161 2.616,7.28c0,2.272 -0.376,4.122 -1.14,5.573c-0.758,1.442 -1.866,2.575 -3.31,3.381c-1.442,0.812 -3.237,1.211 -5.391,1.211c-2.183,0 -3.994,-0.351 -5.429,-1.045c-1.426,-0.7 -2.592,-1.802 -3.484,-3.308c-0.885,-1.498 -1.332,-3.389 -1.332,-5.652Zm5.981,0.016c0,1.952 0.365,3.355 1.091,4.215c0.734,0.847 1.722,1.278 2.984,1.278c1.282,-0 2.288,-0.415 2.988,-1.253c0.71,-0.837 1.061,-2.336 1.061,-4.512c-0,-1.818 -0.374,-3.15 -1.109,-3.988c-0.741,-0.844 -1.738,-1.268 -2.997,-1.268c-1.212,0 -2.186,0.431 -2.918,1.284c-0.735,0.854 -1.1,2.273 -1.1,4.244Zm16.298,3.253l5.684,-0.361c0.128,0.926 0.375,1.627 0.758,2.106c0.614,0.782 1.499,1.172 2.646,1.172c0.853,0 1.508,-0.2 1.971,-0.597c0.461,-0.409 0.694,-0.87 0.694,-1.397c-0,-0.501 -0.217,-0.949 -0.655,-1.348c-0.438,-0.397 -1.46,-0.773 -3.062,-1.124c-2.623,-0.589 -4.489,-1.371 -5.614,-2.352c-1.124,-0.972 -1.69,-2.215 -1.69,-3.739c-0,-0.988 0.287,-1.93 0.869,-2.815c0.575,-0.886 1.444,-1.586 2.601,-2.088c1.163,-0.504 2.749,-0.757 4.768,-0.757c2.479,-0 4.361,0.461 5.659,1.387c1.301,0.917 2.074,2.384 2.32,4.4l-5.628,0.327c-0.152,-0.876 -0.469,-1.515 -0.942,-1.912c-0.486,-0.399 -1.147,-0.6 -1.991,-0.6c-0.694,-0 -1.221,0.144 -1.579,0.44c-0.351,0.295 -0.527,0.653 -0.527,1.075c0,0.312 0.144,0.584 0.431,0.837c0.27,0.255 0.94,0.488 2.001,0.712c2.614,0.565 4.49,1.138 5.614,1.713c1.132,0.575 1.96,1.291 2.471,2.144c0.518,0.853 0.773,1.812 0.773,2.872c0,1.244 -0.342,2.391 -1.029,3.443c-0.684,1.045 -1.642,1.843 -2.886,2.384c-1.227,0.543 -2.783,0.814 -4.656,0.814c-3.294,0 -5.582,-0.639 -6.85,-1.905c-1.266,-1.268 -1.985,-2.879 -2.151,-4.831Zm29.859,-12.974l6.013,0l0,19.384l-6.013,-0l-0,-19.384Zm10.341,0l5.598,0l7.264,10.699l-0,-10.699l5.662,0l-0,19.384l-5.662,-0l-7.223,-10.644l0,10.644l-5.639,-0l-0,-19.384Zm22.582,0l8.906,0c1.754,0 3.173,0.24 4.25,0.71c1.077,0.479 1.978,1.163 2.678,2.048c0.71,0.894 1.221,1.93 1.531,3.109c0.319,1.182 0.479,2.432 0.479,3.758c-0,2.071 -0.23,3.675 -0.71,4.815c-0.463,1.148 -1.115,2.104 -1.961,2.87c-0.838,0.774 -1.739,1.291 -2.695,1.547c-1.316,0.351 -2.504,0.527 -3.572,0.527l-8.906,-0l-0,-19.384Zm5.988,4.385l0,10.589l1.467,0c1.259,0 2.154,-0.143 2.687,-0.415c0.525,-0.278 0.94,-0.764 1.244,-1.46c0.303,-0.693 0.447,-1.809 0.447,-3.363c-0,-2.05 -0.329,-3.453 -1.006,-4.211c-0.669,-0.764 -1.786,-1.14 -3.34,-1.14l-1.499,-0Zm14.233,5.32c0,-3.167 0.885,-5.631 2.646,-7.385c1.771,-1.77 4.218,-2.646 7.369,-2.646c3.228,-0 5.717,0.869 7.462,2.591c1.747,1.736 2.616,4.161 2.616,7.28c0,2.272 -0.376,4.122 -1.14,5.573c-0.767,1.442 -1.866,2.575 -3.31,3.381c-1.442,0.812 -3.238,1.211 -5.391,1.211c-2.183,0 -3.995,-0.351 -5.429,-1.045c-1.426,-0.7 -2.592,-1.802 -3.484,-3.308c-0.885,-1.498 -1.339,-3.389 -1.339,-5.652Zm5.988,0.016c0,1.952 0.365,3.355 1.091,4.215c0.734,0.847 1.722,1.278 2.974,1.278c1.292,-0 2.289,-0.415 2.998,-1.253c0.71,-0.837 1.061,-2.336 1.061,-4.512c-0,-1.818 -0.374,-3.15 -1.109,-3.988c-0.741,-0.844 -1.738,-1.268 -2.997,-1.268c-1.212,0 -2.186,0.431 -2.918,1.284c-0.735,0.854 -1.1,2.273 -1.1,4.244Zm17.381,-9.721l5.589,0l7.273,10.699l-0,-10.699l5.66,0l-0,19.384l-5.66,-0l-7.232,-10.644l0,10.644l-5.63,-0l0,-19.384Zm22.502,0l16.026,0l0,4.138l-10.014,0l-0,3.087l9.28,-0l-0,3.953l-9.28,0l-0,3.819l10.318,0l-0,4.387l-16.33,-0l0,-19.384Zm18.522,12.974l5.685,-0.361c0.128,0.926 0.374,1.627 0.757,2.106c0.614,0.782 1.499,1.172 2.64,1.172c0.853,0 1.514,-0.2 1.977,-0.597c0.461,-0.409 0.694,-0.87 0.694,-1.397c-0,-0.501 -0.217,-0.949 -0.655,-1.348c-0.438,-0.397 -1.457,-0.773 -3.061,-1.124c-2.624,-0.589 -4.497,-1.371 -5.614,-2.352c-1.123,-0.972 -1.691,-2.215 -1.691,-3.739c0,-0.988 0.288,-1.93 0.863,-2.815c0.581,-0.886 1.45,-1.586 2.607,-2.088c1.157,-0.504 2.751,-0.757 4.768,-0.757c2.47,-0 4.362,0.461 5.662,1.387c1.298,0.917 2.071,2.384 2.32,4.4l-5.63,0.327c-0.151,-0.876 -0.47,-1.515 -0.949,-1.912c-0.479,-0.399 -1.141,-0.6 -1.985,-0.6c-0.703,-0 -1.227,0.144 -1.579,0.44c-0.351,0.295 -0.526,0.653 -0.526,1.075c-0,0.312 0.143,0.584 0.431,0.837c0.271,0.255 0.94,0.488 1.993,0.712c2.624,0.565 4.497,1.138 5.621,1.713c1.132,0.575 1.962,1.291 2.471,2.144c0.518,0.853 0.773,1.812 0.773,2.872c0,1.244 -0.342,2.391 -1.028,3.443c-0.694,1.045 -1.65,1.843 -2.886,2.384c-1.228,0.543 -2.783,0.814 -4.656,0.814c-3.294,0 -5.582,-0.639 -6.849,-1.905c-1.268,-1.268 -1.987,-2.879 -2.153,-4.831Zm20.825,-12.974l6.014,0l-0,19.384l-6.014,-0l0,-19.384Zm22.222,16.186l-6.784,-0l-0.981,3.198l-6.107,-0l7.295,-19.384l6.554,0l7.264,19.384l-6.276,-0l-0.965,-3.198Zm-1.266,-4.193l-2.121,-6.97l-2.122,6.97l4.243,-0Z"/>
	<path fill="#f08519" d="M381.13,53.125c-0.914,3.295 -2.225,6.425 -3.871,9.343c0.023,0.102 0.036,0.208 0.036,0.315c-0,0.645 -0.438,1.187 -1.03,1.353c-1.717,2.743 -3.746,5.274 -6.03,7.542c-7.559,7.511 -17.942,12.189 -29.408,12.296c-0.184,0.036 -0.375,0.036 -0.557,-0.005c-8.728,-0.031 -16.823,-2.713 -23.522,-7.27c1.035,-0.446 2.066,-0.89 3.099,-1.33c4.728,2.913 10.129,4.852 15.918,5.532c-3.099,-2.473 -5.953,-5.394 -8.447,-8.686c0.892,-0.373 1.788,-0.742 2.68,-1.111c2.686,3.428 5.785,6.413 9.153,8.846l-0,-12.554c0.936,-0.375 1.873,-0.743 2.813,-1.112l0,13.666c5.142,-3.718 9.664,-8.726 13.032,-14.641c0.209,-0.369 0.414,-0.742 0.62,-1.12l-8.211,0c2.52,-0.956 5.049,-1.894 7.582,-2.81l2.011,-0c0.125,-0.281 0.25,-0.565 0.375,-0.85c1.169,-0.414 2.336,-0.818 3.51,-1.223c-0.259,0.699 -0.536,1.392 -0.825,2.073l14.592,-0c1.342,-2.326 2.448,-4.803 3.296,-7.396c1.057,-0.294 2.123,-0.583 3.184,-0.858Zm-104.542,-32.415l96.435,-0.222c12.567,-0.027 15.684,9.267 8.188,17.993c13.999,-0.654 19.52,1.383 22.789,9.494c-27.883,2.139 -69.028,19.421 -105.086,35.456c12.915,-14.164 31.491,-27.513 55.73,-40.049l-109.859,0.453l2.363,-1.722l115.759,-1.009l2.743,2.157c-1.882,0.058 -3.768,0.121 -5.65,0.178c-17.559,9.503 -34.367,19.43 -47.47,31.419c30.147,-13.071 56.086,-24.713 86.176,-29.031c-0.257,-2.005 -1.824,-3.281 -4.283,-4.058c0.148,0.236 0.23,0.515 0.22,0.807c-0.021,0.774 -0.677,1.348 -1.458,1.285c-0.776,-0.057 -1.391,-0.734 -1.364,-1.502c0.016,-0.463 0.256,-0.855 0.613,-1.081c-4.14,-0.785 -9.912,-0.659 -16.072,-0.316c6.874,-8.609 8.787,-17.357 -3.625,-17.552l-97.737,-1.548l1.588,-1.152Zm91.667,48.985c1.699,-1.69 3.247,-3.532 4.62,-5.506l-14.106,0c-0.424,0.849 -0.865,1.685 -1.334,2.503c-3.17,5.577 -7.319,10.394 -12.032,14.165c8.871,-1.117 16.826,-5.172 22.852,-11.162Zm-58.058,1.481c-2.216,-2.291 -4.17,-4.83 -5.816,-7.578c-0.044,-0.059 -0.084,-0.125 -0.12,-0.196c-3.301,-5.564 -5.338,-11.959 -5.74,-18.794l2.809,-0.012c0.379,6.074 2.15,11.775 5,16.783l14.722,-0c-2.19,-5.177 -3.568,-10.856 -3.88,-16.851l2.809,-0.009c0.313,5.751 1.673,11.198 3.818,16.152c-0.62,0.435 -1.235,0.876 -1.85,1.317c-1.008,0.724 -2.007,1.453 -3.002,2.201l-10.855,0c1.271,1.845 2.693,3.579 4.254,5.181c-0.722,0.596 -1.436,1.196 -2.149,1.806Zm28.954,-20.377l-0,-6.36l2.813,-0.013l0,4.732c-0.94,0.542 -1.882,1.089 -2.813,1.641Zm-86.352,-12.79l1.681,-1.227l101.1,-1.424l3.791,2.976l-106.572,-0.325Zm7.234,-5.26l1.931,-1.41l87.528,-0.761l3.537,2.775l-92.996,-0.604Zm7.185,-5.225l1.743,-1.268l73.436,-1.245l4.643,3.642l-79.822,-1.129Zm73.6,-27.497l0.004,0c11.573,0.036 22.036,4.727 29.604,12.296c2.231,2.228 4.206,4.71 5.888,7.391c-1.098,-0.16 -2.208,-0.223 -3.296,-0.218l-0.215,0c-1.306,-1.858 -2.768,-3.598 -4.37,-5.198c-6.061,-6.065 -14.12,-10.152 -23.111,-11.207c5.286,4.226 9.812,9.713 13.086,16.036c0.066,0.134 0.138,0.268 0.205,0.4l-3.167,0.009c-3.389,-6.229 -8.063,-11.553 -13.482,-15.488l0,15.515l-2.813,0.009l-0,-15.524c-5.437,3.948 -10.133,9.294 -13.523,15.555l-3.171,0.009c0.084,-0.165 0.164,-0.324 0.25,-0.485c3.255,-6.301 7.764,-11.771 13.026,-15.991c-8.874,1.112 -16.844,5.172 -22.874,11.167c-1.654,1.64 -3.162,3.427 -4.504,5.34l-3.377,0.009c1.691,-2.663 3.671,-5.123 5.902,-7.338c7.563,-7.51 17.959,-12.189 29.429,-12.292c0.17,-0.03 0.343,-0.03 0.509,0.005Z"/>
</svg>