<svg xmlns="http://www.w3.org/2000/svg" viewBox="0 0 160 60">
	<title>Indah Logistik Cargo</title>
	<path fill="#023a5d" d="M69.317,47.672c0.004,0.071 -0.024,0.154 -0.083,0.241c-0.059,0.087 -0.166,0.182 -0.288,0.308l-3.969,4.048l2.227,5.741c0.04,0.103 0.103,0.178 0.127,0.233c0.023,0.059 0.039,0.114 0.043,0.158c0.004,0.051 -0.008,0.099 -0.031,0.138c-0.024,0.039 -0.064,0.075 -0.123,0.095c-0.059,0.02 -0.138,0.039 -0.249,0.055c-0.11,0.016 -0.248,0.02 -0.418,0.02c-0.17,-0 -0.308,-0.008 -0.415,-0.016c-0.106,-0.012 -0.193,-0.028 -0.256,-0.047c-0.068,-0.02 -0.119,-0.048 -0.154,-0.083c-0.036,-0.036 -0.072,-0.079 -0.091,-0.135c-0.612,-1.583 -1.205,-3.17 -1.813,-4.754c-0.027,-0.075 -0.087,-0.126 -0.166,-0.15c-0.079,-0.024 -0.154,-0.012 -0.221,0.036c-0.521,0.375 -1.271,0.959 -1.409,1.816l-0.47,2.902c-0.008,0.044 -0.024,0.087 -0.056,0.119c-0.031,0.031 -0.082,0.063 -0.15,0.083c-0.067,0.02 -0.15,0.039 -0.256,0.051c-0.103,0.016 -0.229,0.02 -0.379,0.02c-0.15,-0 -0.281,-0.004 -0.383,-0.02c-0.103,-0.016 -0.182,-0.031 -0.241,-0.051c-0.055,-0.02 -0.095,-0.048 -0.115,-0.083c-0.019,-0.032 -0.023,-0.071 -0.016,-0.119l1.773,-10.622c0.004,-0.039 0.024,-0.079 0.06,-0.11c0.031,-0.036 0.087,-0.059 0.154,-0.083c0.067,-0.02 0.154,-0.04 0.256,-0.051c0.103,-0.016 0.229,-0.02 0.379,-0.02c0.15,-0 0.277,0.004 0.376,0.02c0.102,0.015 0.181,0.031 0.236,0.051c0.06,0.02 0.095,0.047 0.115,0.083c0.02,0.031 0.028,0.071 0.024,0.11l-0.695,4.154c-0.02,0.111 0.035,0.214 0.134,0.265c0.099,0.051 0.213,0.036 0.292,-0.043l4.442,-4.36c0.048,-0.051 0.099,-0.095 0.154,-0.134c0.06,-0.036 0.123,-0.063 0.198,-0.083c0.079,-0.02 0.17,-0.035 0.276,-0.047c0.115,-0.012 0.241,-0.016 0.387,-0.016c0.162,-0 0.292,0.004 0.391,0.02c0.099,0.015 0.178,0.035 0.233,0.055c0.059,0.024 0.099,0.051 0.122,0.087c0.024,0.031 0.036,0.071 0.04,0.118l0.008,0Zm71.905,0.135c0,0.035 -0.008,0.082 -0.012,0.142c-0.004,0.059 -0.016,0.126 -0.027,0.193c-0.008,0.063 -0.024,0.134 -0.044,0.205c-0.02,0.072 -0.039,0.135 -0.067,0.19c-0.028,0.055 -0.055,0.099 -0.091,0.13c-0.031,0.032 -0.067,0.06 -0.106,0.048c-1.675,-0.529 -4.075,-0.529 -5.667,0.675c-0.351,0.261 -0.663,0.576 -0.932,0.94c-0.268,0.363 -0.493,0.754 -0.675,1.176c-0.178,0.427 -0.312,0.873 -0.395,1.339c-0.083,0.466 -0.114,0.94 -0.091,1.418c0.024,0.501 0.115,0.943 0.273,1.33c0.158,0.383 0.379,0.707 0.655,0.968c0.281,0.26 0.612,0.462 0.999,0.596c0.387,0.134 0.814,0.201 1.284,0.201c0.347,0 0.707,-0.039 1.078,-0.122c0.375,-0.083 0.718,-0.209 1.034,-0.379l0.494,-3.206l-1.809,-0c-0.067,-0 -0.118,-0.024 -0.158,-0.072c-0.039,-0.051 -0.059,-0.118 -0.063,-0.209c0,-0.039 0,-0.095 0.004,-0.158c0.004,-0.067 0.016,-0.134 0.024,-0.201c0.012,-0.071 0.028,-0.138 0.047,-0.205c0.02,-0.068 0.048,-0.127 0.079,-0.186c0.028,-0.051 0.063,-0.095 0.107,-0.126c0.043,-0.032 0.087,-0.048 0.134,-0.048l2.752,0c0.154,0 0.269,0.055 0.348,0.166c0.075,0.111 0.099,0.257 0.071,0.442l-0.656,4.253c-0.019,0.111 -0.043,0.197 -0.079,0.261c-0.035,0.063 -0.071,0.122 -0.114,0.173c-0.047,0.052 -0.174,0.127 -0.375,0.229c-0.198,0.099 -0.454,0.202 -0.758,0.304c-0.308,0.103 -0.656,0.194 -1.043,0.269c-0.387,0.079 -0.793,0.118 -1.216,0.118c-0.73,0 -1.374,-0.094 -1.935,-0.284c-0.564,-0.193 -1.038,-0.47 -1.429,-0.833c-0.391,-0.363 -0.695,-0.81 -0.916,-1.327c-0.217,-0.517 -0.344,-1.105 -0.371,-1.761c-0.028,-0.608 0.015,-1.208 0.126,-1.801c0.11,-0.588 0.28,-1.149 0.517,-1.678c0.233,-0.529 0.533,-1.022 0.889,-1.473c0.473,-0.596 1.303,-1.358 2.329,-1.82c1.979,-0.884 4.435,-1.015 5.58,-0.261c0.079,0.052 0.118,0.123 0.142,0.178c0.024,0.059 0.043,0.13 0.043,0.217l0.02,-0.011Zm-110.697,-0c0,0.035 -0.008,0.082 -0.012,0.142c-0.004,0.059 -0.015,0.126 -0.027,0.193c-0.008,0.063 -0.024,0.134 -0.044,0.205c-0.019,0.072 -0.039,0.135 -0.067,0.19c-0.028,0.055 -0.055,0.099 -0.091,0.13c-0.031,0.032 -0.067,0.06 -0.106,0.048c-1.675,-0.529 -4.075,-0.529 -5.667,0.675c-0.351,0.261 -0.663,0.576 -0.932,0.94c-0.268,0.363 -0.493,0.754 -0.675,1.176c-0.177,0.427 -0.312,0.873 -0.395,1.339c-0.083,0.466 -0.114,0.94 -0.09,1.418c0.023,0.501 0.114,0.943 0.272,1.33c0.158,0.383 0.379,0.707 0.655,0.968c0.281,0.26 0.613,0.462 1,0.596c0.386,0.134 0.813,0.201 1.283,0.201c0.347,0 0.707,-0.039 1.078,-0.122c0.375,-0.083 0.718,-0.209 1.034,-0.379l0.494,-3.206l-1.809,-0c-0.067,-0 -0.118,-0.024 -0.157,-0.072c-0.04,-0.051 -0.06,-0.118 -0.064,-0.209c0,-0.039 0,-0.095 0.004,-0.158c0.004,-0.067 0.016,-0.134 0.024,-0.201c0.012,-0.071 0.028,-0.138 0.047,-0.205c0.02,-0.068 0.048,-0.127 0.079,-0.186c0.028,-0.051 0.064,-0.095 0.107,-0.126c0.043,-0.032 0.087,-0.048 0.134,-0.048l2.752,0c0.154,0 0.269,0.055 0.348,0.166c0.075,0.111 0.099,0.257 0.071,0.442l-0.656,4.253c-0.019,0.111 -0.043,0.197 -0.078,0.261c-0.036,0.063 -0.072,0.122 -0.115,0.173c-0.047,0.052 -0.174,0.127 -0.375,0.229c-0.198,0.099 -0.454,0.202 -0.758,0.304c-0.308,0.103 -0.656,0.194 -1.043,0.269c-0.387,0.079 -0.793,0.118 -1.216,0.118c-0.73,0 -1.374,-0.094 -1.935,-0.284c-0.564,-0.193 -1.038,-0.47 -1.429,-0.833c-0.391,-0.363 -0.695,-0.81 -0.916,-1.327c-0.217,-0.517 -0.344,-1.105 -0.371,-1.761c-0.028,-0.608 0.015,-1.208 0.126,-1.801c0.11,-0.588 0.28,-1.149 0.517,-1.678c0.233,-0.529 0.533,-1.022 0.889,-1.473c0.474,-0.596 1.303,-1.358 2.329,-1.82c1.979,-0.884 4.435,-1.015 5.58,-0.261c0.079,0.052 0.118,0.123 0.142,0.178c0.024,0.059 0.043,0.13 0.043,0.217l0.02,-0.011Zm14.113,0.477c0.004,0.048 -0,0.099 -0,0.158c-0.004,0.059 -0.008,0.123 -0.024,0.19c-0.012,0.063 -0.028,0.134 -0.047,0.205c-0.02,0.071 -0.044,0.134 -0.071,0.19c-0.028,0.051 -0.06,0.098 -0.099,0.13c-0.04,0.035 -0.083,0.051 -0.134,0.051c-0.068,0 -0.162,-0.039 -0.285,-0.114c-0.122,-0.071 -0.28,-0.15 -0.474,-0.237c-0.189,-0.083 -0.418,-0.162 -0.679,-0.237c-0.26,-0.075 -0.56,-0.115 -0.9,-0.115c-0.371,0 -0.703,0.052 -0.975,0.158c-0.281,0.107 -0.51,0.249 -0.687,0.431c-0.182,0.181 -0.316,0.383 -0.399,0.612c-0.083,0.229 -0.119,0.462 -0.107,0.711c0.012,0.248 0.083,0.469 0.213,0.655c0.131,0.186 0.297,0.359 0.498,0.513c0.201,0.15 0.43,0.297 0.687,0.435c0.257,0.138 0.517,0.276 0.782,0.418c0.264,0.142 0.529,0.296 0.79,0.458c0.26,0.162 0.489,0.352 0.695,0.565c0.201,0.217 0.371,0.458 0.505,0.734c0.134,0.277 0.209,0.597 0.225,0.964c0.024,0.482 -0.063,0.936 -0.257,1.362c-0.193,0.423 -0.481,0.794 -0.864,1.11c-0.383,0.316 -0.849,0.564 -1.402,0.75c-0.553,0.186 -1.173,0.276 -1.864,0.276c-0.379,0 -0.727,-0.027 -1.054,-0.09c-0.324,-0.06 -0.62,-0.131 -0.885,-0.221c-0.264,-0.087 -0.485,-0.178 -0.671,-0.273c-0.182,-0.095 -0.316,-0.178 -0.399,-0.249c-0.083,-0.071 -0.13,-0.181 -0.134,-0.324c-0,-0.031 -0,-0.082 0.004,-0.142c0.008,-0.063 0.02,-0.13 0.031,-0.205c0.016,-0.075 0.036,-0.146 0.048,-0.217c0.02,-0.071 0.043,-0.134 0.075,-0.194c0.028,-0.059 0.063,-0.106 0.103,-0.142c0.035,-0.039 0.082,-0.055 0.138,-0.055c0.098,-0 0.221,0.047 0.375,0.138c0.154,0.091 0.339,0.186 0.565,0.292c0.221,0.107 0.485,0.202 0.793,0.293c0.308,0.09 0.664,0.138 1.07,0.138c0.431,-0 0.814,-0.056 1.149,-0.166c0.332,-0.111 0.612,-0.261 0.834,-0.454c0.221,-0.19 0.386,-0.415 0.497,-0.671c0.111,-0.257 0.162,-0.53 0.146,-0.822c-0.012,-0.253 -0.083,-0.478 -0.209,-0.667c-0.126,-0.194 -0.284,-0.363 -0.486,-0.517c-0.197,-0.154 -0.422,-0.297 -0.679,-0.431c-0.257,-0.13 -0.513,-0.268 -0.778,-0.407c-0.26,-0.142 -0.517,-0.296 -0.774,-0.458c-0.253,-0.161 -0.486,-0.351 -0.683,-0.56c-0.201,-0.217 -0.371,-0.458 -0.501,-0.735c-0.135,-0.276 -0.21,-0.6 -0.229,-0.967c-0.024,-0.454 0.051,-0.873 0.225,-1.264c0.169,-0.391 0.426,-0.738 0.762,-1.03c0.335,-0.296 0.75,-0.529 1.24,-0.699c0.489,-0.174 1.042,-0.257 1.654,-0.257c0.296,0 0.577,0.024 0.853,0.067c0.272,0.048 0.517,0.103 0.734,0.17c0.222,0.063 0.407,0.134 0.565,0.213c0.158,0.075 0.265,0.138 0.324,0.194c0.059,0.051 0.099,0.102 0.126,0.158c0.028,0.051 0.044,0.118 0.048,0.201l-0.004,-0.02Zm110.393,2.867c0.019,0.442 -0,0.932 -0.052,1.469c-0.051,0.541 -0.158,1.09 -0.316,1.647c-0.154,0.556 -0.375,1.097 -0.647,1.626c-0.277,0.526 -0.628,0.992 -1.047,1.398c-0.422,0.407 -0.931,0.735 -1.524,0.987c-0.592,0.249 -1.279,0.376 -2.061,0.376c-0.624,-0 -1.177,-0.083 -1.654,-0.241c-0.478,-0.162 -0.885,-0.407 -1.213,-0.727c-0.327,-0.324 -0.584,-0.719 -0.762,-1.192c-0.181,-0.474 -0.284,-1.019 -0.312,-1.639c-0.02,-0.49 0,-1.015 0.056,-1.58c0.055,-0.564 0.169,-1.125 0.335,-1.686c0.166,-0.56 0.387,-1.097 0.671,-1.619c0.281,-0.517 0.636,-0.975 1.059,-1.378c0.422,-0.399 0.928,-0.718 1.512,-0.955c0.584,-0.237 1.26,-0.352 2.026,-0.352c0.62,0 1.172,0.083 1.646,0.249c0.478,0.17 0.881,0.419 1.213,0.742c0.331,0.328 0.584,0.731 0.766,1.213c0.181,0.481 0.284,1.034 0.311,1.658l-0.007,0.004Zm-136.372,0c0.02,0.442 0,0.932 -0.051,1.469c-0.051,0.541 -0.158,1.09 -0.316,1.647c-0.154,0.556 -0.375,1.097 -0.647,1.626c-0.277,0.526 -0.628,0.992 -1.047,1.398c-0.422,0.407 -0.932,0.735 -1.524,0.987c-0.592,0.249 -1.279,0.376 -2.061,0.376c-0.624,-0 -1.177,-0.083 -1.655,-0.241c-0.477,-0.162 -0.884,-0.407 -1.212,-0.727c-0.328,-0.324 -0.584,-0.719 -0.762,-1.192c-0.182,-0.474 -0.284,-1.019 -0.312,-1.639c-0.02,-0.49 0,-1.015 0.055,-1.58c0.056,-0.564 0.17,-1.125 0.336,-1.686c0.166,-0.56 0.387,-1.097 0.671,-1.619c0.281,-0.517 0.636,-0.975 1.058,-1.378c0.423,-0.399 0.928,-0.718 1.513,-0.955c0.584,-0.237 1.259,-0.352 2.026,-0.352c0.619,0 1.172,0.083 1.646,0.249c0.478,0.17 0.881,0.419 1.212,0.742c0.332,0.328 0.585,0.731 0.766,1.213c0.182,0.481 0.285,1.034 0.312,1.658l-0.008,0.004Zm83.906,-2.59c0.004,0.118 -0.008,0.268 -0.04,0.442c-0.035,0.178 -0.087,0.316 -0.15,0.419c-0.063,0.102 -0.138,0.154 -0.217,0.154c-0.087,-0 -0.194,-0.052 -0.312,-0.158c-0.122,-0.107 -0.284,-0.218 -0.486,-0.34c-0.205,-0.122 -0.462,-0.237 -0.782,-0.34c-0.315,-0.106 -0.706,-0.158 -1.176,-0.158c-0.517,0 -0.987,0.091 -1.402,0.269c-0.419,0.182 -0.79,0.422 -1.117,0.73c-0.324,0.305 -0.613,0.66 -0.849,1.059c-0.241,0.399 -0.435,0.817 -0.581,1.251c-0.15,0.435 -0.253,0.877 -0.32,1.323c-0.063,0.446 -0.087,0.869 -0.067,1.268c0.024,0.454 0.107,0.865 0.245,1.22c0.142,0.355 0.336,0.655 0.58,0.904c0.249,0.245 0.545,0.431 0.889,0.553c0.347,0.126 0.734,0.189 1.169,0.189c0.477,0 0.888,-0.051 1.232,-0.15c0.343,-0.098 0.635,-0.209 0.884,-0.331c0.245,-0.123 0.442,-0.233 0.604,-0.332c0.162,-0.099 0.296,-0.15 0.399,-0.15c0.071,0 0.123,0.024 0.158,0.067c0.032,0.048 0.051,0.115 0.055,0.205c0,0.028 0,0.072 -0.008,0.127c-0.007,0.051 -0.015,0.11 -0.027,0.174c-0.008,0.059 -0.02,0.13 -0.032,0.205c-0.012,0.071 -0.027,0.142 -0.051,0.205c-0.024,0.067 -0.044,0.127 -0.071,0.182c-0.028,0.051 -0.067,0.106 -0.13,0.166c-0.06,0.055 -0.194,0.138 -0.395,0.252c-0.202,0.111 -0.451,0.218 -0.747,0.316c-0.292,0.099 -0.624,0.186 -0.995,0.253c-0.371,0.071 -0.762,0.107 -1.184,0.107c-0.632,-0 -1.205,-0.087 -1.714,-0.261c-0.513,-0.174 -0.956,-0.43 -1.327,-0.77c-0.371,-0.34 -0.663,-0.762 -0.884,-1.264c-0.217,-0.505 -0.344,-1.085 -0.375,-1.741c-0.028,-0.541 0.007,-1.098 0.102,-1.67c0.095,-0.573 0.249,-1.133 0.466,-1.67c0.213,-0.541 0.49,-1.055 0.825,-1.533c0.34,-0.477 0.739,-0.9 1.197,-1.263c0.462,-0.363 0.983,-0.648 1.571,-0.853c0.585,-0.205 1.236,-0.312 1.951,-0.312c0.45,0 0.873,0.047 1.268,0.138c0.394,0.095 0.73,0.213 1.014,0.352c0.285,0.142 0.49,0.268 0.616,0.379c0.127,0.11 0.198,0.241 0.206,0.387l0.008,-0Zm24.845,1.196c0.019,0.391 -0.024,0.762 -0.131,1.118c-0.106,0.351 -0.276,0.679 -0.509,0.975c-0.233,0.296 -0.533,0.561 -0.9,0.79c-0.364,0.229 -0.79,0.418 -1.288,0.56c0.34,0.107 0.62,0.336 0.845,0.687c0.226,0.348 0.407,0.806 0.549,1.379l0.628,2.444c0.024,0.106 0.048,0.205 0.071,0.304c0.02,0.095 0.032,0.178 0.036,0.249c0.004,0.051 -0.012,0.094 -0.044,0.134c-0.027,0.035 -0.079,0.067 -0.146,0.091c-0.067,0.019 -0.162,0.039 -0.284,0.047c-0.122,0.012 -0.273,0.016 -0.454,0.016c-0.162,-0 -0.296,-0.004 -0.395,-0.016c-0.103,-0.012 -0.178,-0.032 -0.237,-0.059c-0.055,-0.028 -0.095,-0.063 -0.118,-0.107c-0.024,-0.043 -0.044,-0.102 -0.06,-0.174l-0.62,-2.602c-0.063,-0.3 -0.15,-0.572 -0.252,-0.817c-0.103,-0.249 -0.241,-0.458 -0.415,-0.64c-0.174,-0.181 -0.391,-0.32 -0.651,-0.418c-0.261,-0.099 -0.577,-0.15 -0.944,-0.15l-1.09,-0l-0.813,4.722c-0.012,0.04 -0.032,0.075 -0.064,0.111c-0.027,0.035 -0.079,0.063 -0.146,0.083c-0.067,0.019 -0.154,0.039 -0.264,0.051c-0.107,0.016 -0.237,0.02 -0.395,0.02c-0.142,-0 -0.269,-0.004 -0.375,-0.016c-0.103,-0.012 -0.186,-0.028 -0.245,-0.047c-0.059,-0.02 -0.099,-0.048 -0.122,-0.083c-0.02,-0.036 -0.032,-0.071 -0.02,-0.119l1.757,-10.247c0.039,-0.221 0.134,-0.375 0.28,-0.466c0.146,-0.086 0.312,-0.13 0.498,-0.13l2.669,0c0.581,0 1.098,0.052 1.54,0.154c0.442,0.103 0.817,0.249 1.125,0.446c0.308,0.198 0.541,0.443 0.707,0.727c0.162,0.288 0.253,0.62 0.273,0.987l0.004,-0.004Zm-72.19,-2.018c0,0.036 0.004,0.083 0.004,0.139c0,0.063 -0.008,0.126 -0.02,0.193c-0.012,0.067 -0.027,0.138 -0.047,0.217c-0.02,0.079 -0.047,0.142 -0.083,0.202c-0.036,0.055 -0.075,0.102 -0.13,0.138c-0.048,0.039 -0.107,0.055 -0.166,0.055l-3.372,0l-1.603,9.595c-0.012,0.048 -0.032,0.083 -0.064,0.119c-0.031,0.035 -0.083,0.063 -0.142,0.083c-0.067,0.02 -0.15,0.039 -0.256,0.051c-0.103,0.016 -0.233,0.02 -0.387,0.02c-0.154,-0 -0.281,-0.004 -0.379,-0.02c-0.099,-0.016 -0.174,-0.031 -0.229,-0.051c-0.06,-0.02 -0.095,-0.048 -0.115,-0.083c-0.02,-0.036 -0.028,-0.071 -0.016,-0.119l1.595,-9.595l-3.336,0c-0.087,0 -0.146,-0.028 -0.178,-0.075c-0.035,-0.051 -0.051,-0.122 -0.059,-0.213c-0.004,-0.04 -0,-0.091 0.004,-0.15c0.008,-0.059 0.016,-0.127 0.028,-0.202c0.011,-0.071 0.027,-0.142 0.051,-0.213c0.02,-0.067 0.047,-0.13 0.083,-0.189c0.031,-0.064 0.071,-0.107 0.114,-0.146c0.048,-0.04 0.099,-0.056 0.158,-0.056l8.324,0c0.079,0 0.138,0.028 0.17,0.083c0.035,0.052 0.051,0.127 0.055,0.217l-0.004,0Zm-21.646,10.547c-0.004,0.04 -0.02,0.079 -0.056,0.111c-0.031,0.035 -0.083,0.063 -0.15,0.083c-0.067,0.02 -0.15,0.039 -0.256,0.051c-0.103,0.016 -0.229,0.02 -0.38,0.02c-0.157,-0 -0.288,-0.004 -0.386,-0.02c-0.099,-0.016 -0.174,-0.031 -0.233,-0.051c-0.056,-0.02 -0.095,-0.048 -0.115,-0.083c-0.02,-0.032 -0.024,-0.071 -0.016,-0.111l1.773,-10.63c0.004,-0.039 0.024,-0.079 0.063,-0.11c0.04,-0.036 0.091,-0.059 0.162,-0.083c0.067,-0.02 0.15,-0.04 0.249,-0.051c0.103,-0.016 0.225,-0.02 0.375,-0.02c0.15,-0 0.273,0.004 0.371,0.02c0.099,0.015 0.178,0.031 0.241,0.051c0.059,0.02 0.099,0.047 0.119,0.083c0.019,0.031 0.027,0.071 0.015,0.11l-1.773,10.63l-0.003,0Zm23.218,0c-0.004,0.04 -0.02,0.079 -0.056,0.111c-0.031,0.035 -0.082,0.063 -0.15,0.083c-0.067,0.02 -0.15,0.039 -0.256,0.051c-0.103,0.016 -0.229,0.02 -0.379,0.02c-0.158,-0 -0.289,-0.004 -0.391,-0.02c-0.099,-0.016 -0.174,-0.031 -0.233,-0.051c-0.056,-0.02 -0.095,-0.048 -0.115,-0.083c-0.02,-0.032 -0.023,-0.071 -0.016,-0.111l1.773,-10.63c0.004,-0.039 0.024,-0.079 0.064,-0.11c0.039,-0.036 0.09,-0.059 0.161,-0.083c0.068,-0.02 0.151,-0.04 0.249,-0.051c0.103,-0.016 0.225,-0.02 0.375,-0.02c0.15,-0 0.273,0.004 0.372,0.02c0.098,0.015 0.177,0.031 0.24,0.051c0.06,0.02 0.099,0.047 0.119,0.083c0.02,0.031 0.028,0.071 0.016,0.11l-1.773,10.63Zm56.762,-0.32c0.012,0.127 0.012,0.229 -0,0.308c-0.012,0.079 -0.044,0.139 -0.095,0.178c-0.047,0.04 -0.126,0.067 -0.229,0.075c-0.103,0.012 -0.241,0.02 -0.415,0.02c-0.11,-0 -0.209,-0.004 -0.292,-0.012c-0.079,-0.008 -0.142,-0.024 -0.185,-0.043c-0.044,-0.02 -0.075,-0.048 -0.095,-0.083c-0.02,-0.036 -0.032,-0.079 -0.036,-0.131l-0.256,-2.74l-4.143,0l-1.393,2.713c-0.028,0.059 -0.06,0.106 -0.095,0.146c-0.032,0.035 -0.083,0.067 -0.142,0.091c-0.06,0.023 -0.139,0.043 -0.233,0.051c-0.099,0.008 -0.217,0.012 -0.356,0.012c-0.15,-0 -0.272,-0.008 -0.363,-0.02c-0.087,-0.016 -0.154,-0.043 -0.186,-0.083c-0.035,-0.043 -0.043,-0.102 -0.023,-0.178c0.02,-0.078 0.059,-0.181 0.118,-0.308l5.564,-10.456c0.039,-0.067 0.079,-0.118 0.122,-0.158c0.044,-0.043 0.099,-0.075 0.166,-0.094c0.067,-0.024 0.15,-0.044 0.257,-0.052c0.102,-0.008 0.229,-0.011 0.375,-0.011c0.17,-0 0.308,0.003 0.411,0.011c0.102,0.008 0.189,0.028 0.248,0.052c0.064,0.019 0.107,0.055 0.135,0.098c0.023,0.044 0.039,0.099 0.047,0.162l1.094,10.46l-0,-0.008Zm-106.156,-0.454c-0,0.028 -0,0.071 -0.004,0.139c-0.008,0.063 -0.016,0.13 -0.028,0.205c-0.012,0.071 -0.027,0.146 -0.047,0.221c-0.016,0.071 -0.044,0.142 -0.075,0.205c-0.036,0.064 -0.075,0.119 -0.123,0.154c-0.047,0.04 -0.106,0.06 -0.165,0.06l-4.194,-0c-0.434,-0 -0.809,-0.174 -1.094,-0.506c-0.28,-0.332 -0.391,-0.73 -0.32,-1.161l1.533,-9.176c0.007,-0.04 0.027,-0.079 0.059,-0.111c0.035,-0.032 0.087,-0.059 0.154,-0.083c0.067,-0.02 0.154,-0.039 0.256,-0.051c0.103,-0.016 0.229,-0.02 0.38,-0.02c0.15,-0 0.276,0.004 0.375,0.02c0.102,0.015 0.181,0.031 0.237,0.051c0.059,0.02 0.094,0.047 0.114,0.083c0.02,0.032 0.028,0.071 0.016,0.111l-1.599,9.567l4.288,0c0.079,0 0.138,0.028 0.174,0.075c0.039,0.051 0.055,0.127 0.059,0.217l0.004,0Zm146.12,-6.254c-0.016,-0.395 -0.079,-0.762 -0.181,-1.098c-0.103,-0.332 -0.257,-0.62 -0.458,-0.857c-0.206,-0.241 -0.47,-0.422 -0.794,-0.557c-0.324,-0.134 -0.711,-0.201 -1.165,-0.201c-0.573,-0 -1.066,0.11 -1.489,0.328c-0.422,0.217 -0.781,0.505 -1.082,0.857c-0.304,0.351 -0.544,0.75 -0.734,1.196c-0.186,0.446 -0.328,0.896 -0.434,1.354c-0.103,0.454 -0.174,0.897 -0.206,1.323c-0.035,0.431 -0.043,0.798 -0.031,1.11c0.016,0.402 0.075,0.766 0.173,1.094c0.103,0.327 0.253,0.608 0.462,0.841c0.21,0.233 0.474,0.414 0.798,0.541c0.32,0.126 0.711,0.193 1.165,0.193c0.569,0 1.058,-0.107 1.481,-0.32c0.418,-0.213 0.778,-0.493 1.074,-0.841c0.296,-0.347 0.541,-0.742 0.73,-1.181c0.19,-0.442 0.34,-0.884 0.446,-1.338c0.107,-0.45 0.178,-0.893 0.21,-1.319c0.035,-0.426 0.043,-0.802 0.031,-1.125l0.004,-0Zm-136.375,-0c-0.016,-0.395 -0.079,-0.762 -0.181,-1.098c-0.103,-0.332 -0.257,-0.62 -0.459,-0.857c-0.205,-0.241 -0.469,-0.422 -0.793,-0.557c-0.324,-0.134 -0.711,-0.201 -1.165,-0.201c-0.573,-0 -1.066,0.11 -1.489,0.328c-0.422,0.217 -0.782,0.505 -1.082,0.857c-0.304,0.351 -0.545,0.75 -0.734,1.196c-0.186,0.446 -0.328,0.896 -0.434,1.354c-0.103,0.454 -0.174,0.897 -0.206,1.323c-0.035,0.431 -0.043,0.798 -0.031,1.11c0.015,0.402 0.075,0.766 0.173,1.094c0.103,0.327 0.253,0.608 0.462,0.841c0.21,0.233 0.474,0.414 0.798,0.541c0.32,0.126 0.711,0.193 1.165,0.193c0.568,0 1.058,-0.107 1.481,-0.32c0.418,-0.213 0.777,-0.493 1.074,-0.841c0.296,-0.347 0.541,-0.742 0.73,-1.181c0.19,-0.442 0.34,-0.884 0.446,-1.338c0.107,-0.45 0.178,-0.893 0.21,-1.319c0.035,-0.426 0.043,-0.802 0.031,-1.125l0.004,-0Zm94.172,-2.524l-0.008,0l-2.883,5.612l3.416,-0l-0.525,-5.612Zm14.338,1.248c-0.008,-0.193 -0.06,-0.375 -0.139,-0.537c-0.087,-0.166 -0.209,-0.308 -0.379,-0.43c-0.17,-0.119 -0.387,-0.209 -0.651,-0.273c-0.265,-0.063 -0.581,-0.094 -0.94,-0.094l-1.698,-0l-0.644,3.727l1.442,0c0.564,0 1.038,-0.067 1.425,-0.205c0.387,-0.138 0.703,-0.316 0.94,-0.545c0.237,-0.225 0.411,-0.478 0.513,-0.762c0.103,-0.285 0.146,-0.577 0.131,-0.881Z"/>
	<path fill="#003b5f" d="M54.995,41.801c19.941,0.004 29.868,0.983 33.422,-13.758c1.133,-5.046 0.924,-9.63 -4.81,-13.579c-1.575,-1.086 -3.021,-1.003 -5.816,-1.003l-20.127,0.004l1.525,1.82l-4.19,26.516l-0.004,-0Zm-38.286,0.004l11.767,-0.004l1.935,-12.348l8.825,12.348l11.376,0.004l4.438,-28.344l-11.396,0l-2.124,13.587l-9.054,-13.587l-13.086,0.004l1.473,1.852l-4.154,26.488Zm-15.7,-0l11.372,-0l4.438,-28.344l-11.372,0l-4.438,28.344Zm137.275,-28.344l-11.826,5.757l-3.538,22.587l11.53,-0l1.512,-9.639l8.964,-0l-1.512,9.635l11.135,0.004l4.442,-28.344l-11.139,0l-2.053,13.106l-8.964,-0l2.053,-13.106l-0.604,0Zm-70.969,23.092l2.74,-17.339c4.281,0.004 6.796,-0.549 7.396,2.121c1.291,5.741 -3.218,15.238 -6.918,15.226l-3.218,-0.008Z"/>
	<path fill="#ecdf04" d="M100.148,22.918l38.74,-9.457l-47.996,0.004l9.256,9.453Z"/>
	<path fill="#df882b" d="M100.148,22.918l-32.063,37.082l70.803,-46.539l-38.74,9.457Z"/>
	<path fill="#d32c23" d="M121.056,44.245l-0.091,-19.222l-11.443,7.49l11.534,11.732Zm-12.821,-30.78l12.703,-0.004l-0.036,-13.461l-12.667,13.465Z"/>
</svg>