<?xml version="1.0" encoding="UTF-8"?>
<svg width="308" height="63" version="1.1" viewBox="0 0 308 63" xmlns="http://www.w3.org/2000/svg">
<title>GoFood logo</title>
 <g transform="scale(4.329 3.938)" fill="none" fill-rule="evenodd">
  <path d="m0 0h70v16h-70z" fill="#fff" fill-opacity=".01"/>
  <g transform="translate(.2551 1.143)" fill-rule="nonzero">
   <ellipse cx="6.829" cy="6.857" rx="6.829" ry="6.857" fill="#ee2737"/>
   <path d="m6.478 3.806a0.498 0.498 0 0 0-0.569-0.43 0.523 0.523 0 0 0-0.404 0.605 9.03 9.03 0 0 1 0.137 1.623 0.335 0.335 0 1 1-0.67 2e-3l-3e-3 -2.004a0.539 0.539 0 0 0-0.41-0.547 0.503 0.503 0 0 0-0.577 0.518l3e-3 2.033a0.351 0.351 0 0 1-0.34 0.357 0.345 0.345 0 0 1-0.336-0.36 9.156 9.156 0 0 1 0.137-1.622 0.523 0.523 0 0 0-0.404-0.606 0.49 0.49 0 0 0-0.569 0.43 12.77 12.77 0 0 0-0.153 2.341c9e-3 0.78 0.405 1.504 1.055 1.93 0.291 0.18 0.476 0.491 0.495 0.834l0.054 1.198c5e-3 0.304 0.247 0.55 0.55 0.559a0.567 0.567 0 0 0 0.55-0.558l0.053-1.157c0.021-0.342 0.212-0.652 0.508-0.824a2.22 2.22 0 0 0 1.04-1.814c0.034-0.839-0.015-1.679-0.147-2.508zm2.913-0.758c-1.301 0-1.952 1.975-1.952 3.28 9e-3 0.674 0.346 1.3 0.903 1.675 0.258 0.17 0.42 0.453 0.44 0.762l0.061 1.344a0.548 0.548 0 1 0 1.096 0l0.062-1.344a0.985 0.985 0 0 1 0.44-0.762 2.05 2.05 0 0 0 0.902-1.674c0-1.306-0.65-3.281-1.952-3.281z" fill="#fff"/>
  </g>
  <g fill="#000" fill-rule="nonzero">
   <path d="m19.02 11.51a2.932 2.932 0 0 0 2.552 1.252c1.19 0 2.064-0.762 2.064-1.8v-0.546h-0.029a3.233 3.233 0 0 1-2.45 0.921 3.968 3.968 0 0 1-3.524-1.939 4.002 4.002 0 0 1-0.037-4.033 3.97 3.97 0 0 1 3.487-2.003 3.404 3.404 0 0 1 2.523 0.893h0.03v-0.749h2.035v7.428c0 2.16-1.706 3.657-4.1 3.657a4.89 4.89 0 0 1-4.072-1.814l1.52-1.267zm4.53-4.62c0-0.865-0.974-1.657-2.064-1.657-1.377 0-2.294 0.836-2.294 2.088-0.04 0.593 0.181 1.175 0.607 1.588a2.003 2.003 0 0 0 1.6 0.557c1.191 0 2.152-0.749 2.152-1.685v-0.892zm7.456-3.6c2.48 0 4.287 1.771 4.287 4.031s-1.806 4.03-4.287 4.03a4.018 4.018 0 0 1-3.703-1.934 4.053 4.053 0 0 1 0-4.191 4.018 4.018 0 0 1 3.703-1.936zm0 1.872a2.155 2.155 0 0 0-2.136 2.169 2.155 2.155 0 0 0 2.155 2.15 2.155 2.155 0 0 0 2.146-2.16 2.072 2.072 0 0 0-0.606-1.562 2.054 2.054 0 0 0-1.56-0.597zm6.338 0.158h-1.821v-1.814h1.82v-0.777c0-1.339 0.932-2.16 2.495-2.16h1.993v1.829h-1.735c-0.416 0-0.63 0.201-0.63 0.59v0.518h2.838v1.814h-2.837v5.816h-2.122v-5.816zm9.319-2.03c2.48 0 4.287 1.771 4.287 4.031s-1.807 4.03-4.287 4.03a4.018 4.018 0 0 1-3.704-1.934 4.054 4.054 0 0 1 0-4.192 4.018 4.018 0 0 1 3.704-1.935zm0 1.872a2.155 2.155 0 0 0-2.136 2.169 2.155 2.155 0 0 0 2.155 2.15 2.155 2.155 0 0 0 2.146-2.16 2.072 2.072 0 0 0-0.606-1.562 2.054 2.054 0 0 0-1.56-0.597zm9.419-1.872c2.48 0 4.287 1.771 4.287 4.031s-1.806 4.03-4.287 4.03a4.018 4.018 0 0 1-3.703-1.934 4.053 4.053 0 0 1 0-4.191 4.018 4.018 0 0 1 3.703-1.936zm0 1.872a2.155 2.155 0 0 0-2.136 2.169 2.155 2.155 0 0 0 2.155 2.15 2.155 2.155 0 0 0 2.146-2.16 2.072 2.072 0 0 0-0.606-1.562 2.054 2.054 0 0 0-1.56-0.597zm9.191-1.872a3.617 3.617 0 0 1 2.465 0.82h0.03v-3.482h2.121v10.51h-1.964v-0.748h-0.028a3.344 3.344 0 0 1-2.566 0.964 3.903 3.903 0 0 1-2.936-1.111 3.936 3.936 0 0 1-1.18-2.92 3.98 3.98 0 0 1 1.174-2.884 3.947 3.947 0 0 1 2.885-1.147zm2.494 3.528c0-0.907-1.003-1.655-2.165-1.655a2.105 2.105 0 0 0-1.609 0.576c-0.43 0.411-0.67 0.986-0.656 1.583 0 1.31 0.889 2.145 2.265 2.145 1.205 0 2.165-0.749 2.165-1.685z"/>
  </g>
 </g>
</svg>
