<svg id="Layer_1" data-name="Layer 1" xmlns="http://www.w3.org/2000/svg" width="750" height="138.24" viewBox="0 0 750 138.24"><defs><style>.cls-1{fill:#009c49;}</style></defs><title>grabfood-logo</title><path class="cls-1" d="M445.77,397H403.26v47.06H382.39l0-120.57,67.64,0V344H403.24v32.67h42.51Zm82.57-7.11c0-15.21-10.64-25.48-25.41-25.47s-25.39,10.27-25.39,25.48v8c0,15.2,10.65,26,25.41,26s25.4-10.84,25.39-26Zm21.66,0v8c0,27.57-18.49,46.21-47,46.22s-47.07-18.62-47.07-46.19v-8c0-27.56,18.5-45.82,47.05-45.83S550,362.35,550,389.92Zm78.34,0c0-15.21-10.64-25.48-25.4-25.47s-25.4,10.27-25.4,25.48v8c0,15.2,10.65,26,25.41,26s25.4-10.84,25.39-26Zm21.66,0v8c0,27.57-18.49,46.21-47,46.22s-47.07-18.62-47.07-46.19v-8c0-27.57,18.5-45.82,47-45.83S650,362.35,650,389.92ZM348.62,358a44.28,44.28,0,0,0-31.34-13,43.1,43.1,0,0,0-21.94,6.3c-9.8,6.48-17.86,13.52-32.36,32.11V396.7c12.31-15.9,23.95-28.44,32.8-35.33a36.07,36.07,0,0,1,21.5-7.5c19.22,0,35.47,16.08,35.48,35.14v8.05A34.69,34.69,0,0,1,342.24,422a35.39,35.39,0,0,1-24.93,10.24c-15.8,0-29.7-10.74-33.48-25.42l-6.35,7.63c4.63,15.39,21.37,26.73,39.83,26.73a44.35,44.35,0,0,0,31.33-13,43.57,43.57,0,0,0,13.12-31.09v-8A43.53,43.53,0,0,0,348.62,358Zm-192.94-4a32.08,32.08,0,0,1,16.18,4,82.39,82.39,0,0,1,6.2-6.71c-5.05-3.83-13.6-6.2-22.39-6.2-12.51,0-23.86,4.48-32,12.61s-12.49,19.25-12.49,31.5l0,52.14h9l0-52.14c0-20.71,14.57-35.17,35.46-35.18Zm85.62,87.27V389.05a28.84,28.84,0,0,0-57.67,0v8.05c0,15.49,13.22,28.59,28.84,28.59,4.29,0,10.12-1.05,13.68-4V412.3a22.46,22.46,0,0,1-13.68,4.46,19.54,19.54,0,0,1-19.83-19.65v-8.05a19.83,19.83,0,0,1,39.65,0v52.14ZM0,384v2.89a56.87,56.87,0,0,0,57.23,57.28c12.38,0,23.34-2.78,32.59-8.25,7.63-4.51,11-9.06,11.3-9.48l0-48.08H55v8.94H92.1v36.36l0,0c-4.35,4.32-14.64,11.53-34.85,11.54A47.66,47.66,0,0,1,9,386.83V384c0-12.4,5.63-24.76,15.45-33.91a53.9,53.9,0,0,1,36.8-14.48c12.77,0,21.68,1.92,28.83,6.21v-10c-7.44-3.14-16.34-4.55-28.83-4.54C28,327.22,0,353.21,0,384Zm155.68-14.53a19.71,19.71,0,0,1,8.62,1.68,52.85,52.85,0,0,1,3.95-7.84c-2.45-1.74-8.28-2.78-12.57-2.78-16.44,0-28.82,12.3-28.82,28.6l0,52.15h9l0-52.15C135.86,377.51,144,369.43,155.68,369.42ZM90.09,359V348.4c-8.15-4.33-17-6.26-28.83-6.26a47.44,47.44,0,0,0-32.13,12.32c-8.69,8-13.49,18.43-13.49,29.49v2.88a41.73,41.73,0,0,0,41.59,41.78c18.65,0,26.3-6.06,28.25-8V393.83H55v8.92H77v13.43l-.08,0c-2.83,1.13-8.72,3.47-19.75,3.47a32.36,32.36,0,0,1-23-9.51,32.79,32.79,0,0,1-9.52-23.34V384c0-17.81,16.76-32.87,36.61-32.87,13.73,0,21.85,2.2,28.83,7.88Zm212.63,16.77a21.07,21.07,0,0,1,14.57-6.35A19.54,19.54,0,0,1,337.12,389v8a19.55,19.55,0,0,1-19.82,19.67c-5.38,0-10.58-2.93-14.65-8.23a32,32,0,0,1-6.32-16.73L289,400.61a33.7,33.7,0,0,0,10,17.77,27.33,27.33,0,0,0,18.23,7.28,28.74,28.74,0,0,0,28.83-28.6V389a28.23,28.23,0,0,0-8.59-20.07,28.69,28.69,0,0,0-20.26-8.51c-4.76,0-12.32,1.7-21.34,9.75l0,0c-2.42,2.39-8.09,8-11.53,12-5.8,6.28-14.22,15.75-21.39,25.23v14c8-10.16,12.55-15.84,20-24.41C289.72,389.23,298,379.8,302.72,375.72ZM168,397.12a43.59,43.59,0,0,0,13.14,31.07,44.36,44.36,0,0,0,31.34,13,32.78,32.78,0,0,0,13.67-2.82v-8.92a37.5,37.5,0,0,1-13.67,2.81c-19.22,0-35.48-16.1-35.48-35.16v-8c0-19.07,16.23-35.17,35.45-35.17a35.42,35.42,0,0,1,25.15,10.22A34.8,34.8,0,0,1,247.91,389l0,52.15h9l0-53.87A44.41,44.41,0,0,0,181.11,358,43.52,43.52,0,0,0,168,389.07v8.05ZM272.24,362.5a72.07,72.07,0,0,1,9-9.43l0-47.18h-9l0,56.61Zm15.63-13.09V305.88h9v37.4a53,53,0,0,0-9,6.13Zm373.89,49.36c0,27.07,17.3,45.35,44.23,45.35s44-18.31,44-45.38l0-87H729.54l0,87c0,14.93-9.65,25.39-23.58,25.39S682.2,413.7,682.2,398.76v-8c0-14.74,9.83-24.83,23.76-24.83,14.12,0,23.6,9.32,23.6,23.13V355.45c-3-4.48-12.44-9.52-23.59-9.51-26.93,0-44.2,17.93-44.2,44.81Z" transform="translate(0 -305.88)"/></svg>