<svg xmlns="http://www.w3.org/2000/svg" viewBox="0 0 253 50">
	<title>GrabFood</title>
	<path fill="#E94E30" d="M39.2,0H22.6H6L0,8.8l1.6,33.5c0.1,2.2,1.9,3.9,4.1,3.9h6.2V33.8c0-0.5-0.2-1-0.5-1.4l-1.7-1.9c-0.4-0.5-0.6-1.3-0.6-1.9V16.9c0-0.5,0.4-0.9,0.9-0.9h1.6v10c0,0.5,0.4,0.8,0.8,0.8h0.1c0.5,0,0.8-0.4,0.8-0.8V16h1.2h1.2v10c0,0.5,0.4,0.8,0.8,0.8h0.1c0.5,0,0.8-0.4,0.8-0.8V16h1.6c0.5,0,0.9,0.4,0.9,0.9v11.7c0,0.6-0.2,1.4-0.6,1.9l-1.7,1.9c-0.3,0.4-0.5,0.9-0.5,1.4v12.4h5.5H28V32.7c0-0.8-0.4-1.4-0.9-1.9c-0.3-0.2-0.6-0.4-0.8-0.7c0,0,0,0,0,0v0c-1.4-1.4-2.3-3.5-2.3-6c0-4.4,2.9-8.8,6.4-8.8c3.5,0,6.4,4.4,6.4,8.8c0,2.4-0.9,4.6-2.3,6v0c0,0,0,0,0,0c-0.3,0.3-0.5,0.5-0.8,0.7c-0.5,0.5-0.9,1.1-0.9,1.9v13.5h6.6c2.2,0,4-1.7,4.1-3.9l1.6-33.5L39.2,0z M32.2,9h-9.7h-9.7V4.7c0-0.5,0.4-0.9,0.9-0.9h8.8h8.8c0.5,0,0.9,0.4,0.9,0.9V9z M62,25c7.3,2.2,10.2,4.9,9.7,9.3c-0.3,2.7-1.9,4.9-4.4,6c-1.4,0.6-3.3,1-4.8,0.9c-2.3,0-4.5-0.6-6.5-1.5c-0.7-0.4-1.8-1.1-2.6-1.7l0,0c-0.4-0.3-0.4-0.5-0.2-0.9c0.1-0.1,0.2-0.3,0.5-0.7c0.3-0.4,0.5-0.8,0.5-0.8c0.3-0.5,0.6-0.5,1.1-0.2c0,0,0,0,0.2,0.1c0.1,0.1,0.2,0.1,0.2,0.1c2.1,1.5,4.5,2.4,6.8,2.5c3.3-0.1,5.6-1.6,5.9-3.7c0.4-2.4-1.6-4.4-5.4-5.6c-1.4-0.4-4.3-1.5-5.1-1.9c-2.9-1.6-4.3-3.8-4.1-6.5c0.2-3.8,3.7-6.7,8.1-6.7c1.9,0,3.9,0.3,5.8,1.1c0.7,0.3,1.9,0.9,2.3,1.2c0.5,0.4,0.5,0.6,0.3,1c0,0.1-0.2,0.2-0.5,0.7l0,0c-0.4,0.5-0.5,0.7-0.5,0.7c-0.3,0.4-0.5,0.5-1,0.2c-2-1.3-3.9-1.8-6.2-1.8c-2.8,0.1-4.8,1.7-4.9,3.9C57,22.5,58.6,23.9,62,25 M82.3,23.9c4.5,0,8.1,3.6,8.2,8v8.6c0,0.5-0.1,0.6-0.6,0.6h-2c-0.5,0-0.6-0.1-0.6-0.6v-8.6c0-2.7-2.2-4.8-4.9-4.8c-2.7,0-4.9,2.1-4.9,4.8v8.6c0,0.4-0.2,0.6-0.6,0.6h-2.1c-0.5,0-0.6-0.2-0.6-0.6V14.1c0-0.5,0.1-0.6,0.6-0.6h2.1c0.4,0,0.6,0.2,0.6,0.6v11.4C78.8,24.5,80.5,23.9,82.3,23.9 M101.5,23.9c-4.9,0-8.8,3.9-8.8,8.7c0,4.8,4,8.7,8.8,8.7c4.9,0,8.8-3.9,8.8-8.7C110.3,27.8,106.3,23.9,101.5,23.9 M101.5,38c-3.1,0-5.6-2.5-5.6-5.5c0-3,2.5-5.5,5.6-5.5s5.6,2.5,5.6,5.5C107.1,35.6,104.5,38,101.5,38 M167.4,33.7C167.4,33.7,167.4,33.7,167.4,33.7c0.6,0,1-0.5,1-1c0,0,0,0,0-0.1c0,0,0,0,0-0.1c0-4.8-3.7-8.7-8.4-8.7c-4.6,0-8.4,3.9-8.4,8.7c0,0.4,0,0.7,0.1,1.1l0,0.1h0c0.2,1.7,1,3.3,2.1,4.6c0,0,0,0,0,0c1.3,1.4,3,2.4,5,2.7l0.2,0v0c0.1,0,0.1,0,0.2,0c2.7,0.3,4.9-0.1,6.7-1c0.5-0.2,0.9-0.5,1.3-0.8c0.1-0.1,0.2-0.2,0.3-0.3c0.1,0,0.1-0.1,0.1-0.1c0.5-0.5,0.5-0.7,0.2-1.1c-0.6-1-1-1.5-1-1.5c-0.3-0.3-0.5-0.4-0.8-0.1c-0.1,0-0.1,0.1-0.1,0.1c-1.9,1.7-4.5,2.1-6.7,1.6c-0.5-0.1-0.9-0.3-1.3-0.5c-1.5-0.8-2.6-2.1-2.9-3.7L167.4,33.7C167.4,33.7,167.4,33.7,167.4,33.7 M155.2,30.6c0.6-2.1,2.6-3.5,4.8-3.5c2.2,0,4.2,1.5,4.9,3.5H155.2z M121.5,23.9c-2,0-4,0.7-5.5,2v-1.3c0-0.5-0.1-0.6-0.6-0.6h-2c-0.5,0-0.6,0.1-0.6,0.6v24.9c0,0.5,0.1,0.6,0.6,0.6h2c0.5,0,0.6-0.2,0.6-0.6V39.2c1.5,1.3,3.5,2,5.5,2c4.8,0,8.7-3.9,8.7-8.7S126.3,23.9,121.5,23.9 M121.5,38c-3,0-5.4-2.4-5.5-5.3v-0.3c0.1-3,2.5-5.3,5.5-5.3c3,0,5.5,2.5,5.5,5.5S124.5,38,121.5,38 M148.4,33.7C148.4,33.7,148.5,33.7,148.4,33.7c0.6,0,1-0.5,1-1c0,0,0,0,0-0.1c0,0,0,0,0-0.1c0-4.8-3.7-8.7-8.4-8.7c-4.6,0-8.4,3.9-8.4,8.7c0,0.4,0,0.7,0.1,1.1l0,0.1h0c0.2,1.7,1,3.3,2.1,4.6c0,0,0,0,0,0c1.3,1.4,3,2.4,5,2.7l0.2,0v0c0.1,0,0.1,0,0.2,0c2.7,0.3,4.9-0.1,6.7-1c0.5-0.2,0.9-0.5,1.3-0.8c0.1-0.1,0.2-0.2,0.3-0.3c0.1,0,0.1-0.1,0.1-0.1c0.5-0.5,0.5-0.7,0.2-1.1c-0.6-1-1-1.5-1-1.5c-0.3-0.3-0.5-0.4-0.8-0.1c-0.1,0-0.1,0.1-0.1,0.1c-1.9,1.7-4.5,2.1-6.7,1.6c-0.5-0.1-0.9-0.3-1.3-0.5c-1.5-0.8-2.6-2.1-2.9-3.7L148.4,33.7C148.4,33.7,148.4,33.7,148.4,33.7 M136.2,30.6c0.6-2.1,2.6-3.5,4.8-3.5c2.2,0,4.2,1.5,4.9,3.5H136.2z M172.9,41.2h5V30.6h12.9v-5.1H178v-6.3h13.3v-5h-18.4V41.2z M202.4,22.3c-2.5,0-4.9,1-6.8,2.8c-1.8,1.9-2.8,4.3-2.8,6.9c0,2.5,1,5,2.8,6.9l0,0c1.9,1.8,4.3,2.8,6.8,2.8c2.5,0,4.9-1,6.8-2.8c1.8-1.9,2.8-4.3,2.8-6.9c0-2.6-1-5-2.8-6.9C207.4,23.3,205,22.3,202.4,22.3 M202.4,36.9c-2.6,0-4.7-2.2-4.7-4.9s2.1-4.9,4.7-4.9c2.6,0,4.8,2.2,4.8,4.9C207.1,34.7,205,36.9,202.4,36.9 M223.2,22.4c-2.5,0-4.9,1-6.8,2.8c-1.8,1.9-2.8,4.3-2.8,6.9c0,2.5,1,5,2.8,6.9l0,0c1.9,1.8,4.3,2.8,6.8,2.8c2.5,0,4.9-1,6.8-2.8c1.8-1.9,2.8-4.3,2.8-6.9c0-2.6-1-5-2.8-6.9C228.2,23.4,225.8,22.4,223.2,22.4 M223.2,37c-2.6,0-4.7-2.2-4.7-4.9c0-2.7,2.1-4.9,4.7-4.9c2.6,0,4.8,2.2,4.8,4.9C228,34.8,225.8,37,223.2,37 M248.4,14.3v9.8h0c-1.3-1.2-3.1-1.6-4.8-1.6c-2.6,0-4.7,0.8-6.5,2.6c-1.8,1.9-2.6,4.3-2.6,6.8c0,2.5,0.8,5.2,2.6,7l0,0c1.8,1.8,4.2,2.6,6.7,2.6c1.4,0,3.1-0.2,4.5-1.6l0,0v1.3h4.6V14.3H248.4z M243.9,36.8c-2.5,0-4.6-2.3-4.6-5s2.1-5,4.6-5s4.6,2.3,4.6,5S246.3,36.8,243.9,36.8"/>
</svg>