<svg xmlns="http://www.w3.org/2000/svg" viewBox="0 0 230 43">
	<title>GoFood</title>
	<ellipse fill="#EE2737" cx="22.6" cy="22.4" rx="22.6" ry="20.6"/>
	<path fill="#FFFFFF" d="M21.4,13.2c-0.1-0.8-0.9-1.4-1.8-1.3c0,0,0,0,0,0c-0.9,0.2-1.5,1-1.3,1.8c0.3,1.6,0.5,3.2,0.5,4.9c0,0.6-0.5,1-1.1,1c-0.6,0-1.1-0.4-1.1-1l0-6c0-0.8-0.5-1.5-1.4-1.6c-0.9-0.1-1.8,0.4-1.9,1.3c0,0.1,0,0.2,0,0.3l0,6.1c0,0.6-0.5,1.1-1.1,1.1c-0.6,0-1.1-0.5-1.1-1.1c0,0,0,0,0,0c0-1.6,0.1-3.3,0.5-4.9c0.2-0.8-0.4-1.6-1.3-1.8c-0.9-0.1-1.7,0.4-1.9,1.2c0,0,0,0.1,0,0.1c-0.4,2.3-0.6,4.7-0.5,7c0,2.3,1.3,4.5,3.5,5.8c1,0.5,1.6,1.5,1.6,2.5l0.2,3.6c0,0.9,0.8,1.7,1.8,1.7c1,0,1.8-0.8,1.8-1.7l0.2-3.5c0.1-1,0.7-2,1.7-2.5c2.1-1.2,3.4-3.2,3.4-5.5C22,18.2,21.8,15.7,21.4,13.2z M31,10.9c-4.3,0-6.4,5.9-6.4,9.9c0,2,1.1,3.9,3,5c0.9,0.5,1.4,1.4,1.5,2.3l0.2,4c0,0.9,0.8,1.6,1.8,1.7c1,0,1.8-0.7,1.8-1.6c0,0,0,0,0,0l0.2-4c0.1-0.9,0.6-1.8,1.5-2.3c1.8-1.1,3-3,3-5C37.5,16.8,35.3,10.9,31,10.9z"/>
	<path fill="#000000" d="M62,32.9c1.9,2.5,5.1,3.9,8.4,3.8c3.9,0,6.8-2.3,6.8-5.4v-1.6h-0.1C75,31.6,72,32.6,69,32.4c-4.8,0.1-9.2-2.1-11.6-5.8c-2.4-3.7-2.5-8.4-0.1-12.1c2.4-3.8,6.8-6.1,11.5-6c3.1-0.2,6.1,0.8,8.3,2.7h0.1V8.8h6.7v22.4c0,6.5-5.6,11-13.5,11c-5.2,0.3-10.2-1.8-13.4-5.5L62,32.9L62,32.9z M76.9,19c0-2.6-3.2-5-6.8-5c-4.5,0-7.6,2.5-7.6,6.3c-0.1,1.8,0.6,3.5,2,4.8c1.4,1.2,3.3,1.9,5.3,1.7c3.9,0,7.1-2.3,7.1-5.1L76.9,19L76.9,19z M101.6,8.2c8.2,0,14.2,5.3,14.2,12.1s-6,12.1-14.2,12.1c-5,0.3-9.7-1.9-12.2-5.8c-2.6-3.9-2.6-8.7,0-12.6C91.9,10.1,96.6,7.9,101.6,8.2L101.6,8.2z M101.6,13.8c-3.9,0-7.1,3-7.1,6.5c0,3.6,3.2,6.5,7.1,6.5c3.9,0,7.1-2.9,7.1-6.5c0.1-1.8-0.6-3.5-2-4.7C105.4,14.4,103.5,13.7,101.6,13.8L101.6,13.8z M122.5,14.3h-6V8.8h6V6.5c0-4,3.1-6.5,8.2-6.5h6.6v5.5h-5.7c-1.4,0-2.1,0.6-2.1,1.8v1.6h9.4v5.5h-9.4v17.5h-7L122.5,14.3L122.5,14.3z M153.3,8.2c8.2,0,14.2,5.3,14.2,12.1s-6,12.1-14.2,12.1c-5,0.3-9.7-1.9-12.2-5.8c-2.6-3.9-2.6-8.7,0-12.6C143.6,10.1,148.3,7.9,153.3,8.2z M153.3,13.8c-3.9,0-7.1,3-7.1,6.5c0,3.6,3.2,6.5,7.1,6.5c3.9,0,7.1-2.9,7.1-6.5c0.1-1.8-0.6-3.5-2-4.7C157.1,14.4,155.2,13.7,153.3,13.8L153.3,13.8z M184.4,8.2c8.2,0,14.2,5.3,14.2,12.1s-6,12.1-14.2,12.1c-5,0.3-9.7-1.9-12.2-5.8c-2.6-3.9-2.6-8.7,0-12.6C174.7,10.1,179.4,7.9,184.4,8.2z M184.4,13.8c-3.9,0-7.1,3-7.1,6.5c0,3.6,3.2,6.5,7.1,6.5c3.9,0,7.1-2.9,7.1-6.5c0.1-1.8-0.6-3.5-2-4.7C188.2,14.4,186.3,13.7,184.4,13.8L184.4,13.8z M214.8,8.2c3-0.1,5.9,0.8,8.1,2.5h0.1V0.2h7v31.6h-6.5v-2.3h-0.1c-2.2,2-5.3,3.1-8.5,2.9c-3.6,0.2-7.1-1-9.7-3.3c-2.6-2.3-4-5.5-3.9-8.8c-0.1-3.3,1.3-6.4,3.9-8.7C207.8,9.4,211.2,8.1,214.8,8.2L214.8,8.2z M223,18.8c0-2.7-3.3-5-7.2-5c-2-0.1-3.9,0.5-5.3,1.7c-1.4,1.2-2.2,3-2.2,4.8c0,3.9,2.9,6.5,7.5,6.5c4,0,7.2-2.3,7.2-5.1V18.8z"/>
</svg>