<svg xmlns="http://www.w3.org/2000/svg" viewBox="0 0 250 240">
	<title>GoSend</title>
	<path fill="#00A23D" d="M125,0c45.5,0,82.5,37,82.5,82.5S170.5,165,125,165s-82.5-37-82.5-82.5C42.6,37,79.5,0,125,0z"/>
	<path fill="#FFFFFF" d="M169.1,62.9c-0.3-3.2-1.9-6.2-4.6-8.1c-2.6-1.9-5.3-3.7-8-5.4c-10.8,5-24.8,12.1-35.9,18c-3.8,2-6.4,5.9-6.4,10.2c-0.1,5.6-0.2,11.3-0.2,16.9l-8.4-13.9L97,86.2c0.1-5.3,0.2-10.7,0.5-16c0.2-4.3,2.7-8,6.4-10c11.8-6.2,26.3-13.9,37.5-19.3c-3.8-1.9-7.7-3.8-11.5-5.6c-2.7-1.2-5.8-1.2-8.6,0C109,40.3,97.2,46.6,86.2,54.1c-2.7,1.8-4.4,4.7-4.7,7.9c-1.2,12.3-1.4,24.5-0.7,36.8c0.1,3,1.6,5.8,3.9,7.7c10.6,9.1,22.3,16.9,34.8,23.1c3.1,1.4,6.7,1.4,9.7-0.1c12.4-6.3,24.3-13.6,35.4-21.9c2.5-1.8,4.1-4.7,4.4-7.8C169.9,87.5,170,75.2,169.1,62.9z"/>
	<path fill="#000000" d="M240.4,204.7c0-4.1-4.6-7.5-9.8-7.5c-5.3-0.4-9.9,3.6-10.3,8.9c0,0.3-0.1,0.6,0,0.9c0,5.9,4,9.7,10.3,9.7c5.5,0,9.8-3.4,9.8-7.6L240.4,204.7L240.4,204.7L240.4,204.7z M229.1,188.7c4.1-0.2,8.1,1.1,11.2,3.7h0.1v-15.8h9.6v47.6h-8.9v-3.4H241c-3.1,3-7.3,4.6-11.7,4.4c-9.8,0.5-18.2-7-18.7-16.9c0-0.5-0.1-0.9,0-1.4c-0.2-10,7.8-18.1,17.7-18.3C228.6,188.7,228.8,188.7,229.1,188.7L229.1,188.7z M168.1,189.7h9.4v3.3h0.1c3.2-2.8,7.4-4.4,11.7-4.2c9.8,0,16.6,6.5,16.6,15.8v19.7h-9.7v-18.4c0-5.3-3.5-8.5-9-8.5c-4.7-0.4-8.9,3-9.4,7.7c0,0.3-0.1,0.5-0.1,0.8v18.4h-9.7L168.1,189.7L168.1,189.7z M153.6,203.3c-0.4-4.1-4-6.7-9.2-6.7c-5.2,0-8.8,2.6-9.4,6.7H153.6L153.6,203.3L153.6,203.3z M144.1,188.7c9.8-0.5,18.3,7.1,18.8,17c0.1,0.5,0.1,1.1,0,1.6v2.7h-28c0.3,4.5,4,7.4,9.8,7.4c4.1-0.1,8.1-1.9,10.7-5.2l6,6c-4.2,4.7-10.3,7.2-16.6,7c-12.1,0-19.4-7.2-19.4-18.2c-0.2-9.9,7.6-18.1,17.5-18.3C143.3,188.7,143.8,188.7,144.1,188.7L144.1,188.7z M94.6,210.9c1.4,4.5,4.9,6.6,10.4,6.6c5,0,7.9-1.1,7.9-3c0-2-2.1-2.9-8.5-3.9c-12.7-2-17.1-5-17.1-11.2c0-6.4,6.4-10.7,15.9-10.7c8.7,0,16.6,4.5,18.4,10.4l-8.8,2.7c-1.8-3.6-5.6-5.8-9.6-5.4c-4,0-6.6,1.2-6.6,3c0,1.8,1.8,2.5,9.5,3.8c11.7,1.8,16.3,5,16.3,11.3c0,6.5-6.9,10.8-17.3,10.8c-4.5,0.2-9-1-12.9-3.3c-3.3-1.9-5.7-5.1-6.5-8.9L94.6,210.9L94.6,210.9z M63.4,197.2c-5.4,0.1-9.7,4.5-9.7,9.8c0.1,5.4,4.5,9.7,9.8,9.7c5.4-0.1,9.7-4.4,9.7-9.8c0.2-5.2-3.8-9.6-8.9-9.8C64.1,197.2,63.8,197.2,63.4,197.2L63.4,197.2z M63.4,188.7c11.3,0,19.5,8,19.5,18.3c0,10.2-8.2,18.3-19.5,18.3c-10.1,0.7-18.8-7-19.5-17c-0.7-10.1,7-18.8,17-19.5C61.8,188.7,62.6,188.7,63.4,188.7L63.4,188.7L63.4,188.7z M29.5,205c0-3.9-4.5-7.5-9.4-7.5c-6.3,0-10.4,3.8-10.4,9.5c-0.3,5.1,3.4,9.4,8.5,9.7c0.5,0.1,1,0,1.6,0c5.4,0,9.8-3.4,9.8-7.6L29.5,205L29.5,205z M8.9,226c2.6,3.8,7,5.9,11.6,5.7c5.4,0,9.4-3.5,9.4-8.2V221h-0.1c-3,2.9-7,4.4-11.2,4.2c-10,0.3-18.3-7.6-18.6-17.5c-0.3-10,7.6-18.3,17.5-18.6c0.3,0,0.5,0,0.8,0c4.2-0.3,8.4,1.2,11.5,4h0.2v-3.4h9.2v33.7c0,9.8-7.8,16.6-18.7,16.6c-7.1,0.4-14-2.7-18.5-8.2L8.9,226z"/>
</svg>