<svg xmlns="http://www.w3.org/2000/svg" viewBox="0 0 250 240">
	<title>GrabExpress</title>
	<ellipse fill="#00913D" cx="125" cy="82.5" rx="82.5" ry="82.5"/>
	<path fill="#FFFFFF" d="M164.8,114.4c-0.5-1-1.3-1.7-2.4-2.1c-0.7-0.2-1.5-0.3-2.3-0.2c-2.1,0.1-3.9,1.3-4.7,3.3c-0.4,1.1-0.5,2.3-0.4,3.5c0.2,2.4,1.7,4.1,4.1,4.7c1.2,0.3,2.3,0.2,3.5,0.1c0.7-0.1,1.4-0.3,2.1-0.6c0.1-0.1,0.3-0.1,0.3-0.3c0-0.7,0.1-1.4-0.1-2.1c-0.1,0-0.1,0-0.1,0c-0.2,0.1-0.3,0.1-0.5,0.2c-1.1,0.5-2.2,0.7-3.4,0.7c-2-0.1-3.1-1.1-3.3-3.1c0.2-0.1,0.5-0.1,0.7-0.1c2.1,0,4.1,0,6.1,0c0.1,0,0.3,0,0.4,0c0.2,0,0.2-0.1,0.3-0.3C165.4,116.9,165.3,115.6,164.8,114.4L164.8,114.4z M157.9,116.5L157.9,116.5c0-1.4,1.1-2.4,2.6-2.4c1.3,0,2.1,0.9,2.1,2.4C161,116.5,159.5,116.5,157.9,116.5z M78.5,112.2c-0.9-0.5-1.7-0.9-2.6-1.1c-1.1-0.2-2.1-0.2-3.1,0.1c-1.6,0.4-2.7,1.4-3.2,3.1c-0.4,1.4-0.4,2.7,0.1,4.1c0.6,1.8,1.9,2.7,3.7,2.9c0.9,0.1,1.7,0,2.5-0.2c0.2-0.1,0.4-0.2,0.4-0.5c0-0.9,0-1.7,0-2.6c0-0.3-0.1-0.4-0.4-0.4c-0.7,0-1.4,0-2.1,0c-0.4,0-0.4-0.1-0.4-0.4c0-0.4,0-0.9,0-1.4c0-0.2,0.1-0.4,0.4-0.4c1.7,0,3.5,0,5.2,0c0.3,0,0.4,0.1,0.4,0.4c0,0.7,0,1.6,0,2.3c0,1.2,0,2.4,0,3.7c0,0.3-0.1,0.5-0.4,0.7c-1.1,0.6-2.1,1.1-3.4,1.2c-1.6,0.2-3.1,0.1-4.6-0.4c-2.7-0.9-4.2-2.9-4.6-5.7c-0.2-1.2-0.2-2.5,0.2-3.7c0.6-2.3,2.1-3.9,4.3-4.7c2.4-0.9,4.8-0.8,7.2,0.1c0.6,0.2,0.6,0.2,0.6,0.9C78.6,110.8,78.6,111.4,78.5,112.2z M84.1,113.9c0.3-0.3,0.5-0.6,0.7-0.8c0.7-0.7,1.7-1,2.7-0.9c0.3,0,0.4,0.1,0.4,0.5c0,0.7,0,1.4,0,2.2c-0.8-0.1-1.5-0.1-2.2,0.1c-0.3,0.1-0.6,0.2-0.8,0.3c-0.6,0.3-0.8,0.7-0.8,1.4c0.1,2.1,0,4.2,0,6.4c0,0.6,0,0.6-0.6,0.6c-0.5,0-1,0-1.6,0c-0.7,0-0.7,0.1-0.7-0.7c0-2.4,0-4.7,0-7c0-1,0-1.9,0-2.9c0-0.4,0-0.4,0.5-0.4c0.6,0,1.1,0,1.6,0c0.2,0,0.4,0.1,0.4,0.3C83.9,113.1,84,113.4,84.1,113.9z M98,116.3c0-0.2,0-0.5-0.1-0.7c-0.2-1.8-1.2-3-3-3.4c-1.1-0.2-2.2-0.2-3.4-0.1c-0.6,0.1-1.2,0.2-1.9,0.6c-0.2,0.1-0.3,0.1-0.3,0.4c0,0.7-0.1,1.3,0,2c0.1,0,0.1,0,0.2,0c0.1-0.1,0.2-0.1,0.4-0.2c1.1-0.5,2.2-0.7,3.4-0.6c1.2,0.1,1.8,0.7,1.9,1.9c0,0.2-0.1,0.4-0.3,0.4c-0.6,0.1-1.1,0.1-1.6,0.2c-1.1,0.1-2.1,0.3-3,0.7c-1.2,0.6-1.8,1.6-1.7,2.9c0.1,1.4,0.7,2.4,2,2.8c1.7,0.6,3.4,0.5,4.8-1h0.1c0.1,0.2,0.1,0.4,0.2,0.7c0,0.2,0.1,0.3,0.4,0.3c0.6,0,1.1,0,1.6,0c0.4,0,0.5,0,0.5-0.5C98,120.8,98,118.5,98,116.3L98,116.3z M94.3,121.4L94.3,121.4c-0.6,0.4-1.4,0.4-2.1,0.2c-0.6-0.1-1-0.6-1.1-1.1c-0.1-0.7,0.1-1.2,0.8-1.4c0.4-0.2,0.9-0.3,1.4-0.4s1-0.1,1.5-0.2c0.2-0.1,0.4,0.1,0.4,0.3c0,0.2,0,0.6,0,0.8c0,0.1,0,0.2,0,0.3C95.3,120.7,94.9,121.1,94.3,121.4z M110.5,114.9c-0.6-1.5-1.7-2.4-3.4-2.7c-1.5-0.2-2.9,0-4,1.1c-0.1,0.1-0.1,0.1-0.2,0.1c-0.1-0.2-0.1-0.4-0.1-0.6c0-1.4,0-2.9,0-4.4c0-0.7,0.1-0.6-0.6-0.5c-0.6,0.1-1.1,0.2-1.7,0.4c-0.4,0.1-0.5,0.2-0.5,0.6c0,4.7,0,9.5,0,14.3c0,0.3,0.1,0.5,0.4,0.4c0.4,0,0.9,0,1.4,0c0.3,0,0.5-0.1,0.6-0.4c0.1-0.2,0-0.5,0.2-0.7c0.2,0.2,0.5,0.4,0.8,0.6c0.3,0.2,0.6,0.4,0.9,0.5c1.9,0.6,4.7,0.1,5.9-2.5C111.3,119,111.3,116.9,110.5,114.9L110.5,114.9z M108,119.5L108,119.5c-0.6,2.1-3.2,2.9-4.9,1.4c-0.2-0.2-0.2-0.4-0.2-0.6c0-0.7,0-1.5,0-2.2s0-1.5,0-2.2c0-0.3,0.1-0.5,0.3-0.7c1-0.8,2.2-1,3.4-0.6c0.9,0.4,1.3,1.1,1.6,2.1C108.3,117.5,108.3,118.5,108,119.5z M113.1,116.1c0-2.2,0-4.4,0-6.5c0-0.1,0-0.3,0-0.4c0-0.2,0.1-0.3,0.3-0.3c0.1,0,0.1,0,0.2,0c2.6,0,5.1,0,7.7,0c0.6,0,0.6,0,0.6,0.6c0,0.4,0,0.9,0,1.4c0,0.3-0.1,0.4-0.4,0.4c-1.5,0-2.9,0-4.4,0c-0.9,0-0.9,0-0.9,0.9c0,0.7,0,1.5,0,2.2c0,0.4,0,0.5,0.5,0.5c1.3,0,2.6,0,3.9,0c0.6,0,0.6,0,0.6,0.6c0,0.4,0,0.9,0,1.2c0,0.4,0,0.4-0.5,0.4c-1.2,0-2.5,0-3.7,0c-0.1,0-0.2,0-0.4,0c-0.2,0-0.4,0.1-0.4,0.4c0,1.1,0,2.2,0,3.4c0,0.4,0.2,0.4,0.5,0.4c1.5,0,3,0,4.6,0c0.9,0,0.8-0.1,0.8,0.8c0,0.4,0,0.7,0,1.1c0.1,0.4-0.1,0.4-0.4,0.4c-2.6,0-5.3,0-7.9,0c-0.4,0-0.4,0-0.4-0.5C113.1,120.7,113.1,118.4,113.1,116.1z M128.5,115.7c0.4-0.4,0.6-0.9,0.9-1.4c0.4-0.6,0.7-1.1,1.1-1.6c0.1-0.2,0.2-0.4,0.4-0.4c0.8,0,1.6,0,2.4,0c0,0.3-0.2,0.4-0.3,0.6c-0.9,1.4-1.9,2.9-2.9,4.3c-0.2,0.3-0.2,0.6,0,0.9c1.1,1.6,2.1,3.1,3.1,4.7c0.1,0.2,0.3,0.3,0.3,0.6c-0.1,0.2-0.2,0.1-0.4,0.1c-0.6,0-1.2-0.1-1.8,0s-0.9-0.2-1.2-0.7c-0.6-1.1-1.2-2.1-1.9-3.1c-0.2,0.1-0.3,0.3-0.4,0.5c-0.6,0.9-1.2,1.8-1.7,2.7c-0.2,0.4-0.4,0.5-0.9,0.4c-0.7,0-1.4,0-2.1,0c0.1-0.3,0.2-0.5,0.3-0.6c1-1.5,1.9-3.1,2.9-4.6c0.3-0.5,0.2-0.8,0-1.2c-0.9-1.3-1.8-2.7-2.7-4.1c-0.1-0.2-0.3-0.3-0.3-0.6c0.1-0.2,0.2-0.1,0.4-0.1c0.6,0,1.3,0.1,1.9,0c0.5-0.1,0.8,0.2,1.1,0.6C127.3,113.9,127.9,114.8,128.5,115.7z M146.1,117.2c-0.1-1.1-0.4-2.2-1-3.2c-1.6-2.4-5.3-2.5-6.9-0.7c-0.1,0.1-0.1,0.2-0.4,0.2c-0.1-0.2-0.1-0.6-0.1-0.8c0-0.2-0.1-0.3-0.4-0.3c-0.6,0-1.2,0-1.9,0c-0.2,0-0.3,0.1-0.3,0.3c0,0.1,0,0.2,0,0.4c0,4.6,0,9.2,0,13.9c0,0.1,0,0.2,0,0.4c0,0.2,0.1,0.4,0.4,0.4c0.6,0,1.3,0,1.9,0c0.5,0,0.5,0,0.5-0.5c0-1.3,0-2.6,0-3.9c0-0.2,0-0.4,0-0.7c0.6,0.5,1.2,0.9,1.9,1.1c2.3,0.6,4.7-0.2,5.7-2.9C146,119.6,146.1,118.4,146.1,117.2L146.1,117.2z M143,119.5L143,119.5c-0.6,2.1-3.1,2.9-4.9,1.4c-0.2-0.2-0.2-0.3-0.2-0.6c0-0.7,0-1.6,0-2.3c0-0.7,0-1.5,0-2.2c0-0.3,0.1-0.6,0.4-0.7c1-0.7,2.1-0.9,3.2-0.5c0.9,0.4,1.4,1.1,1.6,2.1C143.3,117.5,143.3,118.5,143,119.5z M150.3,113.9c0.3-0.3,0.5-0.6,0.7-0.8c0.8-0.7,1.7-1,2.8-0.9c0.2,0,0.4,0,0.4,0.3c0,0.8,0,1.6,0,2.4c-0.8-0.1-1.5-0.1-2.2,0.1c-0.2,0.1-0.5,0.1-0.7,0.3c-0.6,0.3-0.9,0.7-0.9,1.4c0.1,2.1,0,4.2,0,6.4c0,0.6,0,0.6-0.6,0.6c-0.6,0-1.2,0-1.9,0c-0.2,0-0.4-0.1-0.4-0.3c0-0.1,0-0.3,0-0.4c0-3.2,0-6.4,0-9.5c0-0.1,0-0.3,0-0.4c0-0.2,0.1-0.3,0.3-0.3c0.6,0,1.2,0,1.9,0c0.2,0,0.2,0.1,0.3,0.2C150.2,113,150.2,113.4,150.3,113.9z M174,114.9c-0.8-0.2-1.4-0.6-2.2-0.7c-0.6-0.1-1.2-0.1-1.7-0.1c-0.8,0.1-1.2,0.8-0.9,1.5c0.1,0.3,0.4,0.5,0.7,0.6c0.4,0.2,0.9,0.2,1.4,0.4c0.6,0.2,1.3,0.4,1.9,0.6c1,0.5,1.6,1.2,1.7,2.4c0.2,1.7-0.7,3.2-2.4,3.7c-1.8,0.6-3.6,0.4-5.4-0.4c-0.4-0.2-0.5-0.4-0.5-0.8c0.1-0.6,0-1.1,0-1.7c0.3-0.1,0.4,0.1,0.6,0.2c1.1,0.7,2.4,1,3.7,0.8c0.4-0.1,0.7-0.2,1-0.5c0.4-0.6,0.3-1.3-0.3-1.7c-0.3-0.2-0.6-0.2-0.9-0.3c-0.6-0.1-1.1-0.2-1.6-0.4c-1.7-0.6-2.6-1.7-2.5-3.4c0.1-1.5,1.1-2.7,2.8-3.1c1.4-0.3,2.9-0.2,4.2,0.3c0.3,0.1,0.5,0.2,0.4,0.6C174,113.6,174,114.2,174,114.9z M175.8,120.4c0.8,0.6,1.6,0.9,2.4,1.1c0.7,0.1,1.4,0.2,2.1,0.1c0.6-0.1,1-0.5,1.1-1c0.1-0.6-0.1-0.9-0.7-1.2c-0.5-0.2-1-0.3-1.5-0.4s-1-0.2-1.5-0.5c-1.2-0.6-1.9-1.6-1.9-2.9s0.6-2.4,1.9-3c0.8-0.4,1.6-0.5,2.5-0.5s1.9,0.1,2.7,0.5c0.3,0.1,0.4,0.2,0.4,0.6s0,0.8,0,1.2c0,0.6,0,0.6-0.6,0.4c-0.9-0.4-1.9-0.6-2.9-0.6c-0.2,0-0.4,0-0.7,0.1c-0.6,0.1-0.8,0.4-0.9,0.9c-0.1,0.6,0.1,0.9,0.6,1.1c0.3,0.1,0.6,0.2,0.9,0.3c0.7,0.2,1.4,0.4,2.1,0.6c2.7,0.9,2.3,4.6,0.7,5.7c-0.6,0.4-1.1,0.6-1.7,0.7c-1.6,0.2-3.1,0.2-4.6-0.5c-0.4-0.2-0.6-0.4-0.6-0.9C175.8,121.7,175.8,121.1,175.8,120.4z M165,52.4c0-0.2-0.1-0.3-0.3-0.3c-0.4,0.1-0.9,0-1.2,0c-20.4,0-40.8,0-61.2,0c-0.2,0-0.4,0-0.6,0c-0.2,0-0.4,0.1-0.4,0.4c0,0.1,0,0.2,0,0.4c0,5.7,0,11.4,0,17.2c0,0.2,0,0.4,0,0.6c0.1,0,0.1,0.1,0.1,0.1c0.1-0.1,0.2-0.2,0.3-0.3c1.5-1.5,3-2.9,4.4-4.4c0.3-0.3,0.7-0.6,1.1-0.6c0.1,0,0.2,0,0.4-0.1c3.3-0.3,6.6-0.6,9.9-0.9c3.2-0.3,6.2,1.9,6.6,5.1c0.5,3.4-1.9,6.2-4.7,6.7c-0.7,0.1-1.4,0.2-2.1,0.2c-0.8,0.1-1.6,0.1-2.4,0.2c-0.2,0-0.4,0.1-0.4,0.3c-0.1,1.1-0.2,2.1-0.3,3.2c0,0.2,0,0.3,0.2,0.3c0.1,0,0.3,0.1,0.4,0.1c4.1,0.7,8.1,1.4,12.2,2.1c0.9,0.1,1.8,0.1,2.7-0.2c2.4-0.8,4.7-1.6,7.1-2.3c2.7-0.9,5.3-0.1,7,2.2c0.2,0.3,0.5,0.4,0.8,0.4c2.5,0,4.9,0,7.4,0c2.8,0,5.7,0,8.5,0c2.3,0,4.1-1.7,4.2-4c0-0.2,0-0.4,0-0.7c0-8.5,0-16.9,0-25.4C165,52.7,165,52.5,165,52.4z M139.9,82.2c-0.7-0.2-1.6-0.1-2.3,0.2c-2.7,0.9-5.5,1.8-8.2,2.7c-0.3,0.1-0.6,0.2-1,0.1c-5.2-0.9-10.4-1.8-15.5-2.7c-0.9-0.1-0.9-0.2-0.8-1.1c0.2-2.1,0.4-4.1,0.6-6.1c0.1-0.6,0.1-0.6,0.7-0.6c1.7-0.1,3.5-0.2,5.2-0.4c2.4-0.2,3.9-2.3,3.5-4.6c-0.4-1.9-2.1-3.2-4.1-3.1c-3.2,0.2-6.5,0.6-9.8,0.9c-0.4,0.1-0.7,0.2-0.9,0.4c-2.1,2.1-4.2,4.2-6.3,6.2c-0.4,0.4-0.8,0.6-1.4,0.6c-1-0.1-2,0-3,0c-0.4,0-0.5,0-0.5,0.5c0,5,0,10,0,15c0,0.5,0,0.5,0.6,0.5c1.1,0,2.1,0,3.2,0c0.4,0,0.7,0.1,1,0.2c1.6,0.9,3.2,1.9,4.9,2.9c0.4,0.2,0.7,0.3,1.1,0.3c3.8,0,7.6,0,11.4,0s7.5,0,11.4,0c0.4,0,0.7-0.1,1.1-0.2c1.4-0.6,2.9-1.1,4.4-1.6c1.8-0.7,3.7-1.4,5.5-2.1c1.7-0.7,2.7-2.4,2.6-4.2C143.1,84.1,141.7,82.7,139.9,82.2z M153.6,44.6c-13.7,0-27.4,0-41,0c-0.4,0-0.7,0.1-1,0.3c-2.2,1.6-4.4,3.1-6.5,4.6c-0.1,0.1-0.3,0.2-0.4,0.4c19,0,38,0,57,0c-0.2-0.1-0.2-0.2-0.3-0.2c-2.2-1.6-4.6-3.2-6.8-4.8C154.3,44.6,154,44.6,153.6,44.6z M112.1,42.1c0.2,0.3,0.4,0.3,0.7,0.3c13.5,0,27.1,0,40.6,0c0.4,0,0.6-0.1,0.8-0.4c0.8-1.4,1.7-2.8,2.6-4.2c0.1-0.1,0.2-0.2,0.1-0.4c-0.4-0.2-0.7-0.1-1.1-0.1c-10,0-20,0-30,0c-5.1,0-10.3,0-15.4,0c-0.4,0-0.7-0.1-1,0.1c0,0.1,0,0.1,0.1,0.2C110.3,39.1,111.2,40.6,112.1,42.1z M93.3,71.7c-2.6,0-5.1,0-7.7,0c-0.6,0-0.6,0-0.6,0.6c0,7.1,0,14.2,0,21.3c0,0.6,0,0.6,0.6,0.6c2.6,0,5.1,0,7.7,0c0.1,0,0.2,0,0.2,0c0.2,0,0.3-0.1,0.3-0.3c0-0.1,0-0.3,0-0.4c0-3.5,0-7,0-10.5c0-3.6,0-7.1,0-10.7C93.9,71.7,93.9,71.7,93.3,71.7z M163.6,48.6c0.1-0.2,0.1-0.2,0-0.3c-1.3-3.1-2.7-6.2-4.2-9.4c-0.1-0.2-0.2-0.4-0.6-0.6c-1,1.6-1.9,3.2-2.9,4.9C158.6,45,161.1,46.7,163.6,48.6z M102.7,48.4c2.4-1.7,4.7-3.3,7.1-5c0.4-0.3,0.4-0.3,0.1-0.7c-0.7-1.1-1.4-2.2-2.1-3.4c-0.2-0.3-0.4-0.7-0.6-1c-0.4,0.1-0.5,0.4-0.6,0.6c-1.4,3.1-2.9,6.2-4.2,9.3c-0.1,0.1-0.2,0.2-0.1,0.3C102.5,48.6,102.6,48.6,102.7,48.4z"/>
	<path fill="#009A3C" d="M169.7,189.7v-18.3h3.7v15.8C172.5,187.7,171,188.7,169.7,189.7L169.7,189.7z M163.2,195.2L163.2,195.2c1.1-1.4,2.4-2.8,3.7-4v-19.9h-3.7V195.2L163.2,195.2z M119.6,209.8L119.6,209.8c0,4.9,1.9,9.5,5.5,13.1c3.6,3.6,8.2,5.5,13.1,5.5c2.1,0,4.2-0.4,5.7-1.2v-3.7c-1.7,0.7-3.9,1.2-5.7,1.2c-8,0-14.8-6.8-14.8-14.8v-3.4c0-8,6.8-14.8,14.8-14.8c4,0,7.7,1.6,10.5,4.3c2.8,2.8,4.3,6.5,4.3,10.5v22h3.7v-22.8c-0.2-4.8-2.3-9.3-5.7-12.7c-3.5-3.4-8-5.2-12.8-5.2c-4.9,0-9.5,1.9-13.1,5.5c-3.6,3.6-5.5,8.2-5.5,13.1V209.8L119.6,209.8z M176,200.8c-1.9,1.7-5.4,5.7-8.2,9c-3.1,3.6-5.1,6-8.4,10.3v-5.9c3-4,6.5-8,8.9-10.6c1.4-1.7,3.8-4.1,4.8-5.1l0,0c3.7-3.4,6.9-4.1,8.9-4.1c3.1,0,6.2,1.2,8.5,3.6c2.3,2.3,3.6,5.3,3.6,8.5v3.4c0,6.6-5.4,12-12,12c-2.7,0-5.4-1.1-7.6-3.1c-2.1-1.9-3.6-4.6-4.2-7.5l3.1-3.7c0.1,2.4,1.1,5.1,2.6,7c1.7,2.2,3.9,3.5,6.1,3.5c4.6,0,8.3-3.6,8.3-8.3v-3.4c0-4.6-3.6-8.3-8.3-8.3C179.9,198.1,177.6,199.1,176,200.8L176,200.8L176,200.8z M87.1,193.7L87.1,193.7v-4.4c-3.4-1.8-7.1-2.6-12-2.6c-5.1,0-9.8,1.9-13.4,5.2c-3.6,3.4-5.6,7.7-5.6,12.4v1.2c0,9.7,7.8,17.6,17.3,17.6c7.8,0,11-2.6,11.8-3.4v-11.3H72.5v3.7h9.1v5.7l0,0c-1.2,0.5-3.6,1.4-8.2,1.4c-3.7,0-7-1.4-9.6-4c-2.6-2.6-4-6.1-4-9.9v-1.2c0-7.5,7-13.8,15.3-13.8C80.8,190.4,84.2,191.3,87.1,193.7L87.1,193.7z M114.5,198.1c-4.9,0-8.3,3.4-8.3,8.3v22h-3.7v-22c0-6.9,5.2-12,12-12c1.8,0,4.2,0.4,5.2,1.2c-0.7,1.2-1.2,2.1-1.6,3.3C117.1,198.4,116,198.1,114.5,198.1L114.5,198.1L114.5,198.1z M49.5,204.3c0-13,11.7-23.9,25.6-23.9c5.2,0,8.9,0.6,12,1.9v4.2c-3-1.8-6.7-2.6-12-2.6c-5.7,0-11.2,2.2-15.3,6.1c-4.1,3.9-6.5,9-6.5,14.3v1.2c0,5.6,2.1,10.7,5.8,14.5s8.9,5.9,14.3,5.9c8.4,0,12.7-3.1,14.5-4.9l0,0v-15.3H72.5V202h19.3v20.3c-0.1,0.2-1.6,2.1-4.7,4c-3.9,2.3-8.4,3.5-13.6,3.5c-6.4,0-12.5-2.5-16.9-7c-4.5-4.6-7-10.6-7-17.2L49.5,204.3L49.5,204.3L49.5,204.3z M150.3,228.4h-3.7v-22c0-4.6-3.6-8.3-8.3-8.3c-4.6,0-8.3,3.6-8.3,8.3v3.4c0,4.6,3.6,8.3,8.3,8.3c2.1,0,4.2-0.7,5.7-1.9v4c-1.5,1.2-3.9,1.7-5.7,1.7c-6.5,0-12-5.6-12-12v-3.4c0-3.1,1.2-6.2,3.6-8.5c2.4-2.3,5.3-3.6,8.5-3.6c6.7,0,12,5.3,12,12L150.3,228.4L150.3,228.4L150.3,228.4z M114.5,191.6c-8.7,0-14.8,6.1-14.8,14.8v22H96v-22c0-5.2,1.9-9.9,5.2-13.3c3.4-3.4,8.1-5.3,13.3-5.3c3.7,0,7.2,1,9.4,2.6c-0.7,0.7-1.7,1.7-2.6,2.8C119.3,192.1,117.1,191.6,114.5,191.6L114.5,191.6L114.5,191.6z M195.1,193.3L195.1,193.3c-3.6-3.6-8.2-5.5-13.1-5.5c-3.6,0-7.2,1.3-9.2,2.7c-4.1,2.7-7.5,5.7-13.5,13.5v5.6c5.1-6.7,10-12,13.7-14.9c2.4-1.9,5.9-3.2,9-3.2c8,0,14.8,6.8,14.8,14.8v3.4c0,4-1.6,7.7-4.4,10.5c-2.8,2.8-6.5,4.3-10.4,4.3c-6.6,0-12.4-4.6-14-10.7l-2.7,3.2c1.9,6.5,8.9,11.3,16.7,11.3c4.9,0,9.5-1.9,13.1-5.5s5.5-8.2,5.5-13.1v-3.4C200.6,201.5,198.7,196.8,195.1,193.3z"/>
</svg>