<svg xmlns="http://www.w3.org/2000/svg" viewBox="0 0 230 43">
	<title>GrabFood</title>
	<path fill="#009C49" d="M106.9,16.3c-2.5-2.6-6-4-9.6-4c-2.4,0-4.7,0.7-6.7,1.9c-3,2-5.5,4.1-9.9,9.8v4.1c3.8-4.9,7.3-8.7,10.1-10.8c1.9-1.5,4.2-2.3,6.6-2.3c5.9,0,10.9,4.9,10.9,10.8v2.5c0,2.9-1.2,5.6-3.2,7.6c-2,2-4.8,3.1-7.6,3.1c-4.8,0-9.1-3.3-10.3-7.8l-1.9,2.3c1.4,4.7,6.6,8.2,12.2,8.2c3.6,0,7.1-1.4,9.6-4c2.6-2.5,4-5.9,4-9.5v-2.5C110.9,22.2,109.5,18.8,106.9,16.3z M47.7,15.1c1.7,0,3.4,0.4,5,1.2c0.6-0.7,1.2-1.4,1.9-2.1c-1.5-1.2-4.2-1.9-6.9-1.9c-3.8,0-7.3,1.4-9.8,3.9c-2.5,2.5-3.8,5.9-3.8,9.7v16h2.8v-16C36.9,19.5,41.3,15.1,47.7,15.1L47.7,15.1z M74,41.8v-16c-0.1-4.9-4.1-8.8-9-8.7c-4.8,0.1-8.6,3.9-8.7,8.7v2.5c0,4.8,4.1,8.8,8.8,8.8c1.3,0,3.1-0.3,4.2-1.2v-2.9c-1.2,0.9-2.7,1.4-4.2,1.4c-3.3,0-6-2.6-6.1-5.9c0,0,0-0.1,0-0.1v-2.5c0.1-3.4,2.9-6,6.2-5.9c3.3,0.1,5.9,2.7,5.9,5.9v16L74,41.8z M0,24.3v0.9c-0.1,9.6,7.7,17.5,17.3,17.6c0.1,0,0.2,0,0.2,0c3.8,0,7.2-0.9,10-2.5c2.3-1.4,3.4-2.8,3.5-2.9V22.5H16.9v2.7h11.4v11.2l0,0c-1.3,1.3-4.5,3.5-10.7,3.5C9.5,40.1,2.9,33.6,2.8,25.5c0-0.1,0-0.3,0-0.4v-0.9c0-3.8,1.7-7.6,4.7-10.4c3.1-2.9,7.1-4.4,11.3-4.4c3.9,0,6.6,0.6,8.8,1.9V8.3c-2.3-1-5-1.4-8.8-1.4C8.6,6.8,0,14.8,0,24.3z M47.7,19.8c0.9,0,1.8,0.1,2.6,0.5c0.3-0.8,0.7-1.6,1.2-2.4c-0.8-0.5-2.5-0.9-3.9-0.9c-5,0-8.8,3.8-8.8,8.8v16h2.8v-16C41.7,22.3,44.2,19.8,47.7,19.8L47.7,19.8z M27.6,16.6v-3.3c-2.5-1.3-5.2-1.9-8.8-1.9c-3.6,0-7.2,1.3-9.9,3.8c-2.7,2.5-4.1,5.7-4.1,9v0.9c0,7.1,5.7,12.8,12.8,12.8c5.7,0,8.1-1.9,8.7-2.5v-8.2h-9.3V30h6.7v4.1h0c-0.9,0.3-2.7,1.1-6.1,1.1c-2.6,0-5.2-1-7.1-2.9c-1.9-1.9-2.9-4.5-2.9-7.2v-0.9c0-5.5,5.1-10.1,11.2-10.1C23,14.2,25.5,14.8,27.6,16.6L27.6,16.6z M92.8,21.7c1.2-1.2,2.8-1.9,4.5-1.9c3.3,0,6,2.6,6.1,5.9c0,0,0,0.1,0,0.1v2.5c0,3.3-2.6,6-6,6c0,0-0.1,0-0.1,0c-1.6,0-3.2-0.9-4.5-2.5c-1.1-1.5-1.8-3.3-1.9-5.1l-2.2,2.7c0.4,2.1,1.5,4,3.1,5.4c1.5,1.4,3.5,2.2,5.6,2.2c4.9,0,8.8-3.9,8.8-8.8v-2.5c0-2.3-1-4.5-2.6-6.2c-1.6-1.7-3.9-2.6-6.2-2.6c-1.5,0-3.8,0.5-6.5,3l0,0c-0.7,0.7-2.5,2.5-3.5,3.7c-1.8,1.9-4.4,4.8-6.6,7.7v4.3c2.5-3.1,3.8-4.9,6.1-7.5C88.8,25.9,91.4,23,92.8,21.7L92.8,21.7z M51.5,28.3c0,3.6,1.5,7,4,9.5c2.5,2.5,6,4,9.6,4c1.4,0,2.9-0.3,4.2-0.9v-2.7c-1.3,0.5-2.8,0.8-4.2,0.9c-5.9,0-10.9-4.9-10.9-10.8v-2.5c0-5.8,5-10.8,10.9-10.8c2.9,0,5.7,1.1,7.7,3.1c2,2,3.2,4.8,3.2,7.6v16h2.8V25.3c-0.4-7.5-6.7-13.3-14.2-13c-3.4,0.2-6.6,1.6-9,4c-2.6,2.5-4,5.9-4,9.5V28.3z M83.5,17.7c0.8-1,1.8-2,2.8-2.9V0.3h-2.8V17.7z M88.3,13.6V0.3H91v11.5C90.1,12.3,89.1,12.9,88.3,13.6z M136.7,28.3h-13v14.4h-6.4v-37H138V12h-14.3v10h13L136.7,28.3z M162,26.1c0-4.7-3.3-7.8-7.8-7.8s-7.8,3.1-7.8,7.8v2.5c0,4.7,3.3,8,7.8,8c4.5,0,7.8-3.3,7.8-8V26.1z M168.7,26.1v2.5c0,8.5-5.7,14.2-14.4,14.2c-8.7,0-14.4-5.7-14.4-14.2v-2.5c0-8.5,5.7-14.1,14.4-14.1S168.7,17.6,168.7,26.1L168.7,26.1z M192.7,26.1c0-4.7-3.3-7.8-7.8-7.8c-4.5,0-7.8,3.1-7.8,7.8v2.5c0,4.7,3.3,8,7.8,8c4.5,0,7.8-3.3,7.8-8L192.7,26.1z M199.3,26.1v2.5c0,8.5-5.7,14.2-14.4,14.2c-8.7,0-14.4-5.7-14.4-14.2v-2.5c0-8.5,5.7-14.1,14.4-14.1C193.6,12,199.3,17.6,199.3,26.1L199.3,26.1z M202.9,28.8c0,8.3,5.3,13.9,13.6,13.9S230,37.1,230,28.8V2.1h-6.3v26.7c0,4.6-3,7.8-7.2,7.8s-7.3-3.2-7.3-7.8v-2.5c0-4.5,3-7.6,7.3-7.6c4.3,0,7.2,2.9,7.2,7.1V15.5c-0.9-1.4-3.8-2.9-7.2-2.9c-8.3,0-13.6,5.5-13.6,13.7L202.9,28.8z"/>
</svg>