<svg xmlns="http://www.w3.org/2000/svg" viewBox="0 0 100 25">
	<title>BRI</title>
	<path fill="#00529c" d="M27.514,6.767l5.27,-0c2.135,-0 3.726,0.935 3.726,2.905c-0,1.445 -0.739,2.249 -2.019,2.676l-0,0.033c1.527,0.313 2.315,1.133 2.315,2.529c-0,2.742 -2.414,3.316 -4.466,3.316l-4.826,-0l-0,-11.459Zm47.787,-0l5.271,-0c2.133,-0 3.726,0.935 3.726,2.905c0,1.445 -0.738,2.249 -2.019,2.676l0,0.033c1.528,0.313 2.314,1.133 2.314,2.529c0,2.742 -2.412,3.316 -4.465,3.316l-4.827,-0l0,-11.459Zm9.97,-0l5.451,-0c2.035,-0 3.693,0.919 3.693,2.89c0,1.526 -0.722,2.544 -2.199,2.888l-0,0.033c0.984,0.263 1.05,1.133 1.625,2.529l1.116,3.119l-3.185,-0l-0.656,-2.068c-0.624,-1.97 -1.019,-2.464 -2.151,-2.464l-0.641,-0l0,4.532l-3.053,-0l-0,-11.459Zm-24.296,-0l3.053,-0l0,4.679l0.033,-0l3.448,-4.679l3.677,-0l-4.235,5.335l4.564,6.124l-3.892,-0l-3.562,-5.204l-0.033,-0l0,5.204l-3.053,-0l0,-11.459Zm-11.577,-0l3.891,-0l3.875,7.782l0.032,-0l-0.048,-7.782l2.791,-0l-0,11.459l-3.794,-0l-4.005,-7.832l-0.032,0l0.097,7.832l-2.807,-0l0,-11.459Zm-8.584,-0l3.743,-0l4.416,11.459l-3.349,-0l-0.854,-2.446l-4.301,-0l-0.903,2.446l-3.103,-0l4.351,-11.459Zm54.984,-0.001l3.054,0l-0,11.46l-3.054,-0l0,-11.46Zm-65.231,9.293l0.903,0c1.117,0 2.282,-0.165 2.282,-1.33c0,-1.248 -1.198,-1.362 -2.25,-1.362l-0.935,0l-0,2.692Zm47.788,0l0.903,0c1.116,0 2.282,-0.165 2.282,-1.33c0,-1.248 -1.198,-1.362 -2.249,-1.362l-0.936,0l-0,2.692Zm-35.67,-6.928l-0.033,-0l-1.477,4.482l2.873,0l-1.363,-4.482Zm45.639,2.396l0.805,0c0.985,0 2.233,-0.033 2.233,-1.33c0,-1.066 -1.067,-1.263 -2.233,-1.263l-0.805,0l0,2.593Zm-57.757,-0.229l0.854,0c1.001,0 2.036,-0.246 2.036,-1.215c0,-1.05 -0.985,-1.149 -2.004,-1.149l-0.886,0l-0,2.364Zm47.788,0l0.854,0c1.002,0 2.035,-0.246 2.035,-1.215c0,-1.05 -0.984,-1.149 -2.002,-1.149l-0.887,0l-0,2.364Z"/>
	<path fill="#00529c" d="M20.642,0.988l-15.981,-0c-1.94,-0 -3.513,1.611 -3.513,3.599l0,15.827c0,1.968 1.544,3.569 3.459,3.598l16.027,0c1.94,0 3.514,-1.61 3.514,-3.598l0.006,-15.827c0,-1.988 -1.571,-3.599 -3.512,-3.599m-14.082,21.18l-0.871,0.01c-1.056,-0 -1.911,-0.868 -1.911,-1.938l-0.005,-0.152l-0,-14.616l0.006,-0.788c0.039,-1.035 0.826,-1.867 1.856,-1.867l1.772,-0c1.607,-0 2.909,1.397 2.909,3.043c0,0.815 -0.319,1.555 -0.836,2.092l-4.523,4.589l4.239,4.317c0.547,0.564 0.876,1.303 0.876,2.113c0,1.766 -1.571,3.197 -3.512,3.197m13.031,-0.015l-7.902,-0.002c-0,-0 0.913,-1.975 0.913,-3.197c-0,-1.492 -0.498,-2.823 -1.278,-3.704l-2.703,-2.755l2.758,-2.851c0.822,-0.771 1.367,-2.141 1.367,-3.702c0,-1.236 -0.341,-2.331 -0.891,-3.125l1.914,-0c1.607,-0 2.91,1.397 2.91,3.043c-0,0.815 -0.319,1.555 -0.836,2.092l-4.436,4.542l9.213,9.394c-0.292,0.184 -0.66,0.265 -1.029,0.265m1.93,-2.933l-6.602,-6.729l3.144,-3.196c0.64,-0.801 1.046,-2.006 1.046,-3.353c0,-1.244 -0.346,-2.367 -0.901,-3.161l1.407,0.042c1.055,0 1.911,0.868 1.911,1.938l-0.005,14.459Z"/>
</svg>