<svg xmlns="http://www.w3.org/2000/svg" viewBox="0 0 100 25">
	<title>BSI</title>
	<path fill="#f9ad3c" d="M63.836,0.436c-0.009,-0.147 -0.026,-0.293 -0.046,-0.436c0.947,0.977 2.297,1.547 3.76,1.455c0.7,-0.046 1.355,-0.239 1.937,-0.545c-0.453,0.788 -0.687,1.715 -0.624,2.691c0.075,1.208 0.595,2.281 1.383,3.078c-0.402,-0.08 -0.826,-0.113 -1.258,-0.084c-1.71,0.109 -3.157,1.098 -3.92,2.499c-0.302,-2.071 -1.907,-3.681 -3.92,-4.038c1.698,-0.83 2.818,-2.624 2.692,-4.624l-0.004,0.004Z"/>
	<path fill="#0ca49d" d="M55.551,10.837c-0.122,0.193 -0.247,0.336 -0.377,0.432c-0.134,0.097 -0.302,0.143 -0.512,0.143c-0.184,-0 -0.381,-0.059 -0.595,-0.176c-0.214,-0.118 -0.453,-0.248 -0.721,-0.39c-0.269,-0.143 -0.575,-0.277 -0.923,-0.39c-0.343,-0.118 -0.738,-0.176 -1.178,-0.176c-0.763,-0 -1.329,0.163 -1.702,0.486c-0.373,0.323 -0.562,0.763 -0.562,1.317c0,0.352 0.113,0.645 0.336,0.88c0.226,0.235 0.519,0.432 0.884,0.604c0.365,0.167 0.784,0.323 1.254,0.465c0.469,0.143 0.947,0.298 1.438,0.47c0.49,0.172 0.968,0.373 1.438,0.608c0.47,0.234 0.889,0.528 1.254,0.888c0.364,0.361 0.658,0.801 0.884,1.317c0.227,0.516 0.336,1.14 0.336,1.87c-0,0.809 -0.139,1.568 -0.42,2.272c-0.281,0.705 -0.687,1.321 -1.224,1.849c-0.532,0.524 -1.191,0.939 -1.975,1.241c-0.784,0.302 -1.672,0.453 -2.666,0.453c-0.545,-0 -1.103,-0.055 -1.669,-0.168c-0.566,-0.113 -1.115,-0.272 -1.643,-0.473c-0.529,-0.206 -1.027,-0.449 -1.493,-0.73c-0.465,-0.281 -0.872,-0.595 -1.216,-0.939l1.204,-1.899c0.096,-0.139 0.222,-0.252 0.377,-0.344c0.155,-0.092 0.327,-0.139 0.511,-0.139c0.239,0 0.483,0.076 0.73,0.231c0.243,0.151 0.52,0.323 0.83,0.507c0.31,0.185 0.662,0.353 1.065,0.508c0.402,0.151 0.876,0.23 1.421,0.23c0.738,0 1.313,-0.163 1.723,-0.486c0.411,-0.327 0.613,-0.839 0.613,-1.547c-0,-0.411 -0.114,-0.742 -0.336,-0.998c-0.226,-0.256 -0.52,-0.47 -0.884,-0.637c-0.365,-0.168 -0.78,-0.319 -1.246,-0.445c-0.465,-0.13 -0.943,-0.272 -1.434,-0.427c-0.49,-0.155 -0.968,-0.348 -1.433,-0.579c-0.466,-0.231 -0.881,-0.528 -1.246,-0.901c-0.364,-0.373 -0.662,-0.839 -0.884,-1.396c-0.227,-0.558 -0.336,-1.246 -0.336,-2.063c0,-0.658 0.134,-1.3 0.399,-1.925c0.264,-0.624 0.654,-1.182 1.169,-1.673c0.516,-0.49 1.145,-0.88 1.891,-1.173c0.746,-0.294 1.602,-0.441 2.566,-0.441c0.537,0 1.061,0.042 1.572,0.126c0.512,0.084 0.994,0.21 1.451,0.373c0.457,0.164 0.885,0.361 1.283,0.591c0.398,0.231 0.75,0.487 1.065,0.776l-1.011,1.891l-0.008,-0.013Zm3.593,-3.945l0,17.978l4.226,0l0,-13.475c0,-1.006 -0.536,-4.046 -4.226,-4.503Zm-22.894,0.386c1.188,0.003 2.2,0.116 3.038,0.335c0.851,0.227 1.547,0.541 2.084,0.952c0.536,0.411 0.93,0.906 1.174,1.493c0.243,0.586 0.368,1.241 0.368,1.962c0,0.394 -0.054,0.771 -0.167,1.136c-0.113,0.365 -0.29,0.704 -0.528,1.023c-0.239,0.318 -0.55,0.608 -0.927,0.872c-0.377,0.264 -0.83,0.495 -1.358,0.688c1.157,0.28 2.012,0.733 2.565,1.358c0.554,0.625 0.831,1.438 0.831,2.432c-0,0.746 -0.143,1.442 -0.432,2.083c-0.29,0.642 -0.713,1.204 -1.271,1.677c-0.557,0.478 -1.245,0.852 -2.062,1.12c-0.818,0.268 -1.753,0.402 -2.805,0.402l-7.006,0l-0,-17.533l6.44,-0l0.056,-0Zm0.422,14.464c0.536,0 0.977,-0.067 1.316,-0.205c0.34,-0.138 0.608,-0.315 0.801,-0.528c0.193,-0.218 0.323,-0.462 0.398,-0.734c0.072,-0.273 0.109,-0.549 0.109,-0.83c0,-0.323 -0.042,-0.608 -0.126,-0.868c-0.083,-0.256 -0.23,-0.474 -0.431,-0.65c-0.206,-0.176 -0.474,-0.314 -0.814,-0.411c-0.335,-0.096 -0.763,-0.142 -1.274,-0.142l-2.843,-0l0,4.368l2.864,0Zm-2.864,-11.42l0,4.331l2.117,-0c0.449,-0 0.856,-0.034 1.216,-0.097c0.361,-0.063 0.667,-0.176 0.923,-0.335c0.251,-0.16 0.444,-0.382 0.578,-0.663c0.134,-0.281 0.197,-0.633 0.197,-1.06c0,-0.42 -0.05,-0.763 -0.155,-1.04c-0.105,-0.277 -0.264,-0.499 -0.482,-0.667c-0.218,-0.167 -0.491,-0.289 -0.826,-0.36c-0.331,-0.072 -0.729,-0.109 -1.186,-0.109l-2.382,-0Z"/>
</svg>