<svg xmlns="http://www.w3.org/2000/svg" viewBox="0 0 100 25">
	<title>BCA</title>
	<path fill="#0060af" d="M74.208,4.877l-2.84,5.155c-1.072,-0.87 -2.381,-1.511 -4.052,-1.511c-3.952,0 -5.558,2.947 -5.558,5.022c0,1.541 1.009,3.814 4.526,3.814c1.476,-0 3.575,-1.027 4.179,-1.495l-2.809,5.981c-1.339,0.268 -1.779,0.433 -2.913,0.468c-6.295,0.188 -8.838,-3.679 -8.836,-7.63c0.004,-5.224 4.648,-11.577 12.347,-11.577c0.472,0 1.049,0.163 1.542,0.344l0.499,-0.637l3.915,2.066Zm-22.082,-1.905c2.964,0.017 4.639,1.626 4.639,3.95c-0,2.143 -1.767,4.04 -3.706,5.02c1.997,0.734 2.169,2.536 2.169,3.811c0,3.079 -3.09,5.957 -7.106,5.957l-8.76,-0l3.417,-13.194l-1.404,-0.008l2.87,-5.536c-0,0 5.47,-0.016 7.881,0Zm33.802,0l0.804,18.738l-5.986,-0l-0.003,-3.214l-4.082,0l-1.343,3.214l-6.492,-0l6.787,-13.38l-1.53,-0.01l2.908,-5.348l8.937,0Zm-39.173,10.908l-0.801,3.08l2.05,-0c0.807,-0 1.906,-0.401 2.176,-1.403c0.266,-1.005 -0.503,-1.677 -1.307,-1.677l-2.118,0Zm33.949,-5.176l-2.308,5.451l2.378,-0l-0.07,-5.451Zm-31.487,1.865c0.614,0 1.696,-0.155 1.967,-1.342c0.297,-1.288 -0.719,-1.322 -1.207,-1.322l-1.741,-0.008l-0.608,2.672l1.589,0Z"/>
	<path fill="#0060af" d="M24.779,24.012c-3.033,0 -6.15,-0.747 -9.263,-2.224l-0.076,-0.038l-0.037,-0.078c-1.397,-2.949 -2.135,-6.174 -2.135,-9.329c-0,-3.151 0.708,-6.238 2.106,-9.183l0.039,-0.078l0.077,-0.039c2.88,-1.364 5.978,-2.055 9.21,-2.055c3.012,-0 6.228,0.769 9.299,2.228l0.079,0.036l0.036,0.079c1.424,3.003 2.175,6.228 2.175,9.331c-0,3.091 -0.721,6.181 -2.146,9.182l-0.038,0.079l-0.079,0.036c-2.836,1.343 -6.034,2.053 -9.247,2.053Zm-8.975,-2.629c3.024,1.423 6.04,2.141 8.975,2.141c3.112,0 6.207,-0.68 8.962,-1.97c1.368,-2.908 2.062,-5.901 2.062,-8.892c-0,-3.004 -0.724,-6.128 -2.094,-9.043c-2.981,-1.401 -6.094,-2.144 -9.009,-2.144c-3.129,-0 -6.129,0.664 -8.922,1.973c-1.34,2.855 -2.022,5.845 -2.022,8.895c-0,3.055 0.709,6.181 2.048,9.04Zm8.001,0.914l0.111,-1.86l0.715,0.031c0.338,0.016 0.426,0.292 0.416,0.555c-0.01,0.161 -0.06,0.339 -0.2,0.436c-0.114,0.083 -0.261,0.102 -0.397,0.095l-0.233,-0.012l-0.047,0.779l-0.365,-0.024Zm2.736,-0.034l-0.256,-1.863l0.616,-0.093c0.151,-0.021 0.333,0.005 0.406,0.099c0.081,0.098 0.106,0.18 0.121,0.308c0.024,0.159 -0.023,0.344 -0.202,0.435l0,0.006c0.2,-0 0.321,0.144 0.357,0.387c0.005,0.051 0.02,0.175 0.005,0.278c-0.041,0.246 -0.188,0.325 -0.435,0.36l-0.612,0.083Zm-3.519,-1.917l0.372,0.043l-0.16,1.301c-0.078,0.412 -0.237,0.592 -0.691,0.536c-0.461,-0.058 -0.571,-0.269 -0.543,-0.684l0.161,-1.3l0.375,0.043l-0.161,1.27c-0.017,0.138 -0.049,0.343 0.197,0.368c0.218,0.016 0.267,-0.128 0.291,-0.307l0.159,-1.27Zm-1.835,0.716c0.191,0.071 0.207,0.171 0.172,0.343c-0.015,0.075 -0.119,0.527 -0.047,0.6l0.002,0.056l-0.389,-0.102c-0.016,-0.125 0.039,-0.351 0.061,-0.475c0.022,-0.111 0.057,-0.266 -0.055,-0.325c-0.088,-0.047 -0.121,-0.044 -0.22,-0.067l-0.101,-0.021l-0.167,0.793l-0.376,-0.081l0.401,-1.851l0.641,0.145c0.375,0.081 0.489,0.248 0.435,0.592c-0.03,0.195 -0.125,0.405 -0.357,0.393c-0.003,-0.001 -0.007,-0.002 -0.01,-0.003l0.002,0.003c0.003,0 0.005,0 0.008,0Zm8.023,0.08c0.005,0.035 0.01,0.074 0.012,0.108c0.05,0.34 -0.012,0.621 -0.394,0.699c-0.564,0.109 -0.673,-0.242 -0.772,-0.733l-0.053,-0.266c-0.078,-0.47 -0.111,-0.826 0.439,-0.935c0.311,-0.057 0.516,0.067 0.601,0.375c0.013,0.046 0.03,0.092 0.036,0.138l-0.338,0.07c-0.039,-0.116 -0.09,-0.323 -0.242,-0.306c-0.273,0.033 -0.183,0.372 -0.155,0.514l0.102,0.51c0.03,0.154 0.091,0.401 0.327,0.353c0.191,-0.038 0.108,-0.337 0.091,-0.459l0.346,-0.068Zm-2.273,0.787c0.073,-0.01 0.147,-0.014 0.205,-0.051c0.089,-0.058 0.081,-0.182 0.069,-0.274c-0.031,-0.202 -0.084,-0.279 -0.299,-0.247l-0.134,0.021l0.085,0.562l0.074,-0.011Zm2.815,-0.223l-0.117,-1.928l0.454,-0.138l0.951,1.677l-0.357,0.106l-0.226,-0.426l-0.396,0.119l0.051,0.485l-0.36,0.105Zm-11.207,-1.457c0.142,-0.455 0.269,-0.79 0.811,-0.641c0.29,0.081 0.47,0.209 0.461,0.546c-0.001,0.075 -0.026,0.151 -0.042,0.225l-0.337,-0.093c0.044,-0.186 0.072,-0.334 -0.157,-0.404c-0.265,-0.073 -0.33,0.248 -0.366,0.387l-0.137,0.505c-0.044,0.15 -0.096,0.399 0.137,0.462c0.192,0.052 0.309,-0.137 0.379,-0.413l-0.236,-0.062l0.082,-0.293l0.554,0.179l-0.263,0.974l-0.255,-0.069l0.057,-0.206l-0.007,-0c-0.118,0.168 -0.261,0.186 -0.387,0.162c-0.554,-0.151 -0.496,-0.513 -0.364,-0.998l0.07,-0.261Zm5.682,1.009l0.19,0.01c0.154,0.006 0.255,-0.055 0.269,-0.281c0.007,-0.217 -0.075,-0.253 -0.274,-0.262l-0.15,-0.005l-0.035,0.538Zm2.581,-0.189c0.082,-0.014 0.192,-0.024 0.238,-0.101c0.024,-0.052 0.055,-0.093 0.035,-0.208c-0.025,-0.136 -0.07,-0.221 -0.243,-0.188l-0.162,0.026l0.064,0.478l0.068,-0.007Zm-6.134,-0.284l0.254,0.068c0.153,0.022 0.239,-0.057 0.269,-0.243c0.028,-0.171 -0.008,-0.237 -0.146,-0.27l-0.271,-0.055l-0.106,0.5Zm9.354,0.02l0.286,-0.083l-0.38,-0.78l0.094,0.863Zm-5.377,-17.726c-1.974,0.022 -3.669,1.335 -3.663,3.593c0.006,1.914 1.546,2.939 2.095,3.671c0.831,1.104 1.28,2.409 1.327,4.407c0.036,1.591 0.034,3.161 0.042,3.717l0.441,0c-0.008,-0.582 -0.028,-2.249 -0.005,-3.766c0.03,-1.998 0.495,-3.254 1.326,-4.358c0.554,-0.732 2.093,-1.757 2.096,-3.671c0.007,-2.258 -1.687,-3.571 -3.659,-3.593c0.017,0 0.033,0 0.049,0l-0.098,0c0.016,0 0.032,0 0.049,0Zm1.274,15.386c-0.006,-1.176 0.65,-2.216 1.506,-2.775c0.764,-0.494 1.787,-0.819 3.434,-1.237c0.511,-0.13 1.043,-0.419 1.205,-0.789c0.439,0.44 0.518,1.429 0.441,2.007c-0.091,0.669 -0.87,1.771 -2.045,1.814c-0.718,0.029 -1.632,-0.155 -2.065,-0.247c-0.749,-0.162 -1.942,0.308 -2.132,1.226l-0.344,0.001Zm-2.551,0c0.005,-1.176 -0.651,-2.216 -1.509,-2.775c-0.761,-0.494 -1.783,-0.819 -3.432,-1.237c-0.509,-0.13 -1.042,-0.419 -1.207,-0.789c-0.437,0.44 -0.516,1.429 -0.439,2.007c0.089,0.669 0.87,1.771 2.047,1.814c0.719,0.029 1.627,-0.155 2.063,-0.247c0.751,-0.162 1.941,0.308 2.13,1.226l0.347,0.001Zm0.718,-0.001c0,-0.918 0.01,-3.37 -0.012,-3.673c0.02,-3.65 -2.634,-6.224 -4.311,-6.023c-1.16,0.1 -2.132,0.573 -2.654,1.934c-0.484,1.268 -0.051,2.955 1.557,3.351c1.72,0.425 2.725,0.779 3.452,1.278c0.89,0.611 1.618,1.778 1.637,3.134l0.331,-0.001Zm1.115,-0c-0,-0.918 -0.011,-3.37 0.012,-3.673c-0.02,-3.65 2.632,-6.224 4.31,-6.023c1.16,0.1 2.131,0.573 2.655,1.934c0.483,1.268 0.048,2.955 -1.559,3.351c-1.721,0.425 -2.724,0.779 -3.452,1.278c-0.89,0.611 -1.566,1.778 -1.587,3.134l-0.379,-0.001Z"/>
</svg>