<svg xmlns="http://www.w3.org/2000/svg" viewBox="0 0 100 25">
	<title>GoPay</title>
	<path fill="#00aed6" d="M10.91,1.969c6.025,-0 10.91,4.713 10.91,10.529c0,5.814 -4.885,10.528 -10.91,10.528c-6.025,0 -10.91,-4.714 -10.91,-10.528c0,-5.816 4.885,-10.529 10.91,-10.529Z"/>
	<path fill="#fff" d="M17.275,12.173c-0.084,-1.34 -1.266,-2.368 -2.655,-2.308l-6.892,-0c-0.251,-0 -0.455,-0.196 -0.455,-0.439c0,-0.242 0.204,-0.438 0.455,-0.438l6.982,-0c-0.04,-0.908 -0.683,-1.688 -1.591,-1.93c-2.035,-0.352 -4.119,-0.352 -6.155,-0c-1.157,0.274 -2.022,1.203 -2.182,2.342c-0.318,2.066 -0.318,4.164 0,6.23c0.244,1.205 1.237,2.139 2.491,2.343c2.524,0.307 5.078,0.307 7.601,-0c1.125,-0.221 1.975,-1.112 2.11,-2.212c0.23,-1.182 0.328,-2.385 0.291,-3.588Zm-2.274,1.474l0,0.386c0,0.242 -0.203,0.439 -0.454,0.439c-0.251,-0 -0.455,-0.197 -0.455,-0.439l-0,-0.386c-0.147,-0.124 -0.23,-0.304 -0.227,-0.492c-0,-0.363 0.305,-0.657 0.682,-0.657c0.376,-0 0.682,0.294 0.682,0.657c-0.003,0.188 -0.085,0.365 -0.228,0.492Z"/>
	<path fill="#000" d="M37.285,5.118l-0,1.387c-1.107,-0.97 -2.572,-1.467 -4.064,-1.378c-3.527,0.032 -6.36,2.817 -6.328,6.221c0.033,3.404 2.919,6.138 6.446,6.107c1.452,0.063 2.866,-0.462 3.901,-1.448l-0,1.185c-0,1.605 -1.437,2.781 -3.328,2.781c-1.445,0.101 -2.867,-0.383 -3.928,-1.334l-2.209,2.054c1.657,1.569 3.908,2.412 6.228,2.333c3.873,0 6.528,-2.509 6.528,-5.852l-0,-12.056l-3.246,0Zm21.029,0.361l3.255,-0l-0,1.035l0.045,-0c1.068,-0.939 2.477,-1.431 3.919,-1.369c3.542,0.128 6.306,3.004 6.173,6.423c-0.127,3.238 -2.817,5.835 -6.173,5.957c-1.378,0.03 -2.723,-0.407 -3.8,-1.237l0,5.861l-3.391,0l-0.028,-16.67Zm32.431,11.046l-5.61,-11.046l3.737,-0l3.682,7.65l0.054,0l3.637,-7.65l3.755,-0l-8.401,16.67l-3.736,0l2.882,-5.624Zm-12.529,-6.344c2.227,-0.289 2.891,-0.597 2.891,-1.193c0,-0.772 -0.846,-1.237 -2.154,-1.237c-1.411,-0.112 -2.696,0.786 -3.028,2.114l-3.2,-0.64c0.454,-2.387 3,-4.089 6.136,-4.089c3.547,0 5.746,1.755 5.746,4.598l0,7.449l-3.045,-0l0,-1.299l-0.046,0c-1.034,1.123 -2.548,1.719 -4.1,1.614c-2.682,0 -4.546,-1.412 -4.546,-3.509c0,-2.097 1.527,-3.299 5.346,-3.808Zm-35.612,1.132c-0,-3.51 2.873,-6.186 6.855,-6.186c3.982,0 6.855,2.694 6.855,6.186c0,3.492 -2.846,6.194 -6.855,6.194c-4.009,0 -6.855,-2.693 -6.855,-6.194Zm38.776,0.105l-0.045,0c-0.301,0.422 -0.909,0.667 -2.592,0.948c-1.991,0.36 -2.727,0.737 -2.727,1.421c-0,0.685 0.591,1.018 1.873,1.018c1.955,0 3.464,-0.878 3.464,-1.991l0.027,-1.396Zm-16.375,-3.378c-1.818,0 -3.299,1.22 -3.299,2.545l-0,1.482c-0,1.413 1.463,2.58 3.318,2.58c1.89,0.094 3.502,-1.308 3.599,-3.133c0.098,-1.825 -1.355,-3.38 -3.246,-3.474c-0.118,-0.005 -0.236,-0.005 -0.353,0l-0.019,0Zm-12.109,3.273c0.015,-1.846 -1.524,-3.355 -3.437,-3.369c-1.913,-0.014 -3.476,1.47 -3.491,3.316c-0.015,1.847 1.523,3.355 3.436,3.37l0.055,-0c1.815,0.094 3.365,-1.25 3.463,-3.002c0.005,-0.105 0.006,-0.21 0.001,-0.315l-0.027,0Zm-15.747,0.641c-0,1.447 -1.528,2.632 -3.464,2.632c-1.779,0.173 -3.366,-1.078 -3.546,-2.794c-0.018,-0.173 -0.021,-0.348 -0.009,-0.523c-0,-1.913 1.455,-3.229 3.691,-3.229c1.819,0 3.328,1.202 3.328,2.562l-0,1.352Z"/>
</svg>