<svg xmlns="http://www.w3.org/2000/svg" viewBox="0 0 100 25">
	<title>Ovo</title>
	<path fill="#4b2489" d="M33.425,20.407c-2.273,2.16 -5.303,3.348 -8.438,3.308c-3.151,0.048 -6.199,-1.14 -8.486,-3.308c-2.174,-2.108 -3.403,-5.011 -3.403,-8.04c0,-3.029 1.229,-5.931 3.403,-8.04c2.284,-2.18 5.338,-3.376 8.495,-3.327c3.136,-0.04 6.166,1.148 8.438,3.308c2.177,2.107 3.407,5.01 3.407,8.04c0,3.029 -1.23,5.933 -3.407,8.04m-8.438,-15.687c-0.023,-0 -0.047,-0 -0.071,-0c-4.066,-0 -7.412,3.346 -7.412,7.412c-0,0.086 0.001,0.173 0.004,0.259c0,4.092 3.368,7.46 7.46,7.46c4.093,-0 7.46,-3.368 7.46,-7.46c0.003,-0.086 0.005,-0.173 0.005,-0.259c-0,-4.066 -3.346,-7.412 -7.412,-7.412c-0.011,0 -0.022,0 -0.034,0m36.437,-1.026l-9.119,20.337l-0.518,-0.096c-2.608,-0.469 -3.135,-1.121 -4.353,-3.768l-6.836,-14.891l-2.57,0l-0,-3.615l9.713,0l-0,3.615l-2.32,0l5.494,12.321l5.331,-12.321l-2.877,0l0,-3.615l8.055,0l-0,2.033Zm22.053,16.732c-4.749,4.387 -12.164,4.387 -16.914,0c-2.174,-2.108 -3.403,-5.011 -3.403,-8.04c0,-3.029 1.229,-5.931 3.403,-8.04c4.75,-4.386 12.165,-4.386 16.914,0c2.182,2.105 3.416,5.009 3.416,8.04c-0,3.031 -1.234,5.936 -3.416,8.04m-8.39,-15.706c-0.023,-0 -0.047,-0 -0.071,-0c-4.071,-0 -7.421,3.35 -7.421,7.421c-0,0.083 0.001,0.167 0.004,0.25c-0,4.092 3.367,7.46 7.46,7.46c4.092,-0 7.459,-3.368 7.459,-7.46c0.004,-0.09 0.005,-0.179 0.005,-0.269c0,-4.06 -3.341,-7.402 -7.402,-7.402c-0.011,0 -0.022,0 -0.034,0"/>
</svg>