<svg xmlns="http://www.w3.org/2000/svg" viewBox="0 0 100 25">
	<title>Bank Jateng</title>
	<path fill="#e50013" d="M33.224,12.711c-3.004,3.296 -4.913,7.526 -6.209,12.289c-1.417,-0.924 -2.834,-1.849 -4.241,-2.763c2.512,-3.778 5.808,-7.074 10.45,-9.526Zm10.461,-7.476c-0.252,1.025 -0.503,2.171 -0.744,3.206c-2.733,0.482 -5.607,1.838 -8.551,3.506c2.301,-2.914 5.828,-4.843 9.295,-6.712Z"/>
	<path fill="#fdde53" d="M24.643,18.569l0,-1.256c0.985,-0.673 1.95,-1.095 2.904,-1.387c-1.145,0.744 -2.1,1.638 -2.904,2.643Zm0.915,-2.421c2.271,-1.468 4.652,-2.744 7.255,-3.608c-2.04,0 -4.11,0.292 -6.24,1.126c-0.342,0.834 -0.684,1.658 -1.015,2.482Zm-2.211,-1.689c0.07,-0.341 0.171,-0.683 0.312,-1.014c0.924,-0.121 1.838,-0.181 2.763,-0.071c-1.126,0.282 -2.13,0.663 -3.075,1.085Zm2.392,-1.577c0.15,-0.352 0.311,-0.704 0.462,-1.055c1.206,-0.01 2.341,0.161 3.406,0.573c-1.296,0.04 -2.582,0.211 -3.868,0.482Zm2.17,-1.276c1.527,0.1 3.055,0.221 4.582,0.462c-1.156,-0.623 -2.341,-1.146 -3.567,-1.598c-0.332,0.372 -0.673,0.754 -1.015,1.136Zm-4.019,-1.678c0.301,-0.342 0.603,-0.684 0.904,-1.025c1.166,0.382 2.291,0.814 3.396,1.276c-1.416,-0.141 -2.853,-0.221 -4.3,-0.251Zm4.28,-2.824c0.272,-0.141 0.533,-0.281 0.804,-0.432c0.633,0.603 1.226,1.346 1.769,2.231c-0.814,-0.673 -1.668,-1.276 -2.573,-1.799Zm1.819,2.522c0.342,-0.12 0.683,-0.231 1.025,-0.351c0.532,0.733 1.045,1.487 1.557,2.27c-0.804,-0.693 -1.678,-1.316 -2.582,-1.919Zm2.522,-1.728c0.131,1.115 0.312,2.231 0.653,3.346c-0.542,-0.754 -1.015,-1.698 -1.467,-2.743c0.281,-0.201 0.543,-0.402 0.814,-0.603Zm0.482,-1.377c0.081,1.618 0.262,3.186 0.854,4.522c-0.06,-1.588 0.071,-3.185 0.422,-4.773c-0.422,0.091 -0.854,0.171 -1.276,0.251Zm3.085,-0.442c0.442,0.261 0.884,0.523 1.327,0.794c-1.176,1.377 -2.271,2.803 -3.176,4.351c0.372,-1.678 1.106,-3.417 1.849,-5.145Zm-0.573,-1.869c-0.432,1.216 -0.673,2.362 -0.773,3.437c0.442,-1.186 0.974,-2.311 1.628,-3.387c-0.292,-0.01 -0.573,-0.03 -0.855,-0.05Zm-0.502,-3.316c0.442,0.051 0.884,0.111 1.326,0.161c-0.783,1.357 -1.447,2.793 -1.838,4.411c-0.272,-1.376 0.08,-2.964 0.512,-4.572Zm7.988,-0.894c0.593,0.332 1.186,0.663 1.779,0.995c-2.382,1.336 -4.733,2.874 -6.953,5.416c0.934,-2.11 2.723,-4.251 5.174,-6.411Z"/>
	<path fill="#0d3157" d="M36.138,19.353l-2.27,-0l-0,-7.004l1.758,0c0.553,0 0.985,0.081 1.296,0.231c0.312,0.161 0.543,0.372 0.714,0.643c0.16,0.272 0.241,0.593 0.241,0.945c-0,0.683 -0.342,1.186 -1.025,1.477c0.492,0.101 0.884,0.312 1.165,0.633c0.292,0.322 0.433,0.714 0.433,1.166c-0,0.361 -0.091,0.673 -0.262,0.954c-0.181,0.282 -0.432,0.513 -0.773,0.684c-0.332,0.18 -0.764,0.271 -1.277,0.271Zm-0.482,-6.109l-0.824,-0l0,2.11l0.643,-0c0.513,-0 0.874,-0.101 1.096,-0.302c0.221,-0.201 0.321,-0.472 0.321,-0.794c-0.01,-0.683 -0.422,-1.014 -1.236,-1.014Zm0.07,2.994l-0.894,-0l0,2.221l0.945,-0c0.522,-0 0.884,-0.041 1.065,-0.131c0.191,-0.09 0.341,-0.221 0.452,-0.402c0.111,-0.181 0.171,-0.372 0.171,-0.583c-0,-0.211 -0.06,-0.412 -0.181,-0.583c-0.121,-0.18 -0.291,-0.311 -0.512,-0.391c-0.222,-0.091 -0.563,-0.131 -1.046,-0.131Zm6.401,0.321l0,1.97c0,0.161 0.05,0.241 0.161,0.241c0.07,0 0.161,-0.04 0.271,-0.1c0.402,-0.211 0.091,0.512 -0.251,0.683c-0.12,0.06 -0.251,0.07 -0.382,0.07c-0.382,0 -0.603,-0.15 -0.673,-0.462c-0.382,0.301 -0.784,0.452 -1.216,0.452c-0.311,0 -0.573,-0.11 -0.784,-0.321c-0.211,-0.211 -0.311,-0.483 -0.311,-0.804c-0,-0.292 0.1,-0.553 0.301,-0.784c0.201,-0.231 0.493,-0.412 0.875,-0.553l1.145,-0.402l0,-0.251c0,-0.562 -0.271,-0.834 -0.814,-0.834c-0.482,0 -0.964,0.261 -1.427,0.774l0,-1.005c0.342,-0.422 0.844,-0.633 1.497,-0.633c0.483,0 0.875,0.131 1.176,0.392c0.101,0.08 0.181,0.201 0.261,0.332c0.081,0.14 0.131,0.281 0.151,0.422c0.01,0.16 0.02,0.422 0.02,0.813Zm-0.874,1.88l0,-1.377l-0.603,0.241c-0.301,0.121 -0.522,0.251 -0.643,0.372c-0.121,0.13 -0.191,0.281 -0.191,0.472c0,0.191 0.06,0.352 0.181,0.472c0.121,0.121 0.271,0.181 0.462,0.181c0.282,-0.01 0.553,-0.13 0.794,-0.361Zm2.914,-3.728l0,0.592c0.392,-0.452 0.844,-0.683 1.346,-0.683c0.282,0 0.543,0.071 0.774,0.221c0.241,0.151 0.422,0.352 0.553,0.613c0.12,0.261 0.191,0.673 0.191,1.236l-0,2.653c-0.643,0.09 -0.744,-0.251 -0.884,-0.573l-0,-2.07c-0,-0.472 -0.071,-0.814 -0.212,-1.015c-0.14,-0.201 -0.371,-0.311 -0.703,-0.311c-0.422,-0 -0.774,0.221 -1.065,0.653l0,3.316l-0.904,-0l-0,-4.632l0.904,-0Zm6.592,-0l1.015,-0l-1.88,2.24c0.744,0.794 1.498,1.608 2.241,2.402c-0.522,0.1 -1.125,-0.04 -1.728,-0.563l-1.648,-1.798l2,-2.281Zm-2.04,-2.412l-0,7.054l-0.904,-0l-0,-6.19c0.06,-0.331 0.361,-0.623 0.904,-0.864Zm7.184,0.07l0,6.964c0,0.653 -0.07,1.135 -0.201,1.447c-0.13,0.311 -0.341,0.562 -0.633,0.743c-0.291,0.191 -0.643,0.282 -1.055,0.282c-0.06,-0 -0.171,-0.01 -0.321,-0.03l-0.181,-0.935l0.251,0c0.281,0 0.502,-0.03 0.653,-0.1c0.151,-0.071 0.272,-0.191 0.362,-0.372c0.09,-0.181 0.131,-0.553 0.131,-1.136l-0,-5.727c0.02,-0.673 0.422,-0.985 0.994,-1.136Zm4.351,3.156l1.608,-1.689l-0,0.955l1.437,-0c-0.06,0.261 -0.181,0.533 -0.643,0.824l-0.794,-0l-0,2.261c-0,0.532 0.201,0.794 0.613,0.794c0.301,-0 0.633,-0.111 0.975,-0.332l-0,0.854c-0.332,0.201 -0.684,0.292 -1.076,0.292c-0.391,-0 -0.713,-0.121 -0.974,-0.362c-0.081,-0.071 -0.151,-0.161 -0.201,-0.251c-0.05,-0.091 -0.101,-0.211 -0.131,-0.362c-0.04,-0.151 -0.05,-0.432 -0.05,-0.854l-0,-2.04l-0.754,-0l0,-0.09l-0.01,-0Zm7.516,1.678l-3.205,-0c0.02,0.442 0.171,0.793 0.442,1.055c0.271,0.261 0.613,0.392 1.035,0.392c0.593,-0 1.146,-0.191 1.638,-0.563l-0,0.894c-0.281,0.191 -0.553,0.322 -0.824,0.402c-0.271,0.08 -0.593,0.121 -0.955,0.121c-0.502,-0 -0.904,-0.111 -1.216,-0.322c-0.311,-0.211 -0.562,-0.492 -0.743,-0.854c-0.191,-0.362 -0.281,-0.774 -0.281,-1.236c-0,-0.703 0.19,-1.276 0.592,-1.718c0.392,-0.442 0.905,-0.663 1.528,-0.663c0.603,-0 1.085,0.211 1.447,0.643c0.361,0.432 0.542,1.005 0.542,1.728l0,0.121Zm-3.195,-0.543l2.291,-0c-0.02,-0.362 -0.131,-0.643 -0.322,-0.844c-0.191,-0.201 -0.452,-0.302 -0.773,-0.302c-0.322,0 -0.583,0.101 -0.794,0.302c-0.201,0.191 -0.332,0.472 -0.402,0.844Zm8.36,-0.201c0,-0.492 0.181,-0.884 0.533,-1.166c0.351,-0.281 0.844,-0.432 1.457,-0.432l2.301,0c-0.111,0.292 -0.252,0.563 -0.633,0.714l-0.704,-0c0.181,0.181 0.302,0.351 0.372,0.502c0.07,0.151 0.101,0.322 0.101,0.513c-0,0.241 -0.071,0.482 -0.201,0.713c-0.141,0.231 -0.312,0.412 -0.523,0.533c-0.211,0.12 -0.563,0.221 -1.055,0.291c-0.342,0.05 -0.512,0.171 -0.512,0.352c-0,0.11 0.06,0.191 0.19,0.261c0.131,0.07 0.362,0.141 0.694,0.211c0.562,0.121 0.914,0.221 1.085,0.291c0.161,0.071 0.301,0.171 0.432,0.302c0.221,0.221 0.332,0.502 0.332,0.834c-0,0.442 -0.191,0.784 -0.583,1.045c-0.382,0.261 -0.904,0.392 -1.548,0.392c-0.653,-0 -1.175,-0.131 -1.567,-0.392c-0.392,-0.261 -0.583,-0.613 -0.583,-1.055c0,-0.623 0.382,-1.025 1.146,-1.206c-0.302,-0.201 -0.463,-0.392 -0.463,-0.583c0,-0.151 0.071,-0.281 0.201,-0.402c0.131,-0.12 0.312,-0.211 0.533,-0.261c-0.663,-0.301 -1.005,-0.784 -1.005,-1.457Zm1.698,-0.804c-0.241,0 -0.452,0.081 -0.623,0.251c-0.171,0.171 -0.261,0.372 -0.261,0.603c-0,0.241 0.08,0.432 0.251,0.593c0.171,0.161 0.382,0.231 0.643,0.231c0.251,0 0.473,-0.08 0.643,-0.241c0.171,-0.161 0.252,-0.362 0.252,-0.593c-0,-0.241 -0.081,-0.442 -0.262,-0.603c-0.17,-0.16 -0.382,-0.241 -0.643,-0.241Zm-0.211,4.04c-0.301,-0 -0.552,0.06 -0.743,0.19c-0.191,0.131 -0.292,0.302 -0.292,0.503c0,0.472 0.422,0.713 1.276,0.713c0.402,0 0.714,-0.06 0.935,-0.181c0.221,-0.12 0.331,-0.281 0.331,-0.502c0,-0.211 -0.14,-0.392 -0.422,-0.523c-0.281,-0.13 -0.643,-0.2 -1.085,-0.2Zm-5.044,-4.984l0,0.592c0.392,-0.452 0.844,-0.683 1.346,-0.683c0.282,0 0.543,0.071 0.774,0.221c0.241,0.151 0.422,0.352 0.553,0.613c0.12,0.261 0.191,0.673 0.191,1.236l-0,2.653c-0.643,0.09 -0.744,-0.251 -0.884,-0.573l-0,-2.07c-0,-0.472 -0.071,-0.814 -0.211,-1.015c-0.141,-0.201 -0.372,-0.311 -0.704,-0.311c-0.422,-0 -0.774,0.221 -1.065,0.653l0,3.316l-0.904,-0l-0,-4.632l0.904,-0Zm-9.686,1.848c-0,-0.391 -0.011,-0.653 -0.031,-0.793c-0.02,-0.141 -0.07,-0.282 -0.15,-0.422c-0.081,-0.141 -0.171,-0.252 -0.262,-0.332c-0.291,-0.261 -0.683,-0.392 -1.175,-0.392c-0.653,0 -1.146,0.211 -1.497,0.633l-0,1.005c0.462,-0.522 0.934,-0.774 1.426,-0.774c0.543,0 0.814,0.282 0.814,0.834l0,0.252l-1.145,0.401c-0.372,0.131 -0.663,0.322 -0.874,0.553c-0.201,0.231 -0.302,0.492 -0.302,0.784c0,0.321 0.101,0.593 0.312,0.804c0.211,0.211 0.472,0.321 0.783,0.321c0.433,0 0.834,-0.15 1.216,-0.452c0.071,0.312 0.292,0.462 0.674,0.462c0.13,0 0.271,-0.01 0.381,-0.07c0.352,-0.181 0.653,-0.894 0.252,-0.683c-0.121,0.06 -0.201,0.1 -0.272,0.1c-0.1,0 -0.161,-0.08 -0.161,-0.241l0,-1.99l0.011,0Zm-0.875,1.88c-0.241,0.241 -0.502,0.361 -0.793,0.361c-0.191,0 -0.342,-0.06 -0.463,-0.181c-0.12,-0.12 -0.181,-0.281 -0.181,-0.472c0,-0.191 0.061,-0.342 0.191,-0.472c0.121,-0.131 0.342,-0.251 0.643,-0.372l0.603,-0.241l0,1.377Z"/>
</svg>