<svg xmlns="http://www.w3.org/2000/svg" viewBox="0 0 100 25">
	<title>BNI</title>
	<path fill="#f15a23" d="M8.929,9.409l6.987,8.814l-6.987,5.789l0,-14.603Zm2.812,14.603l5.257,-4.398l3.634,4.398l-8.891,0Zm7.576,-6.199l2.474,-2.043c0,0 2.363,3.11 5.103,3.844c3.59,0.962 5.18,-1.391 5.18,-1.391l-0,5.789l-7.886,0l1.778,-1.537c0,-0 -0.927,0.618 -3.196,-0.953c-1.34,-0.928 -3.453,-3.709 -3.453,-3.709Zm12.757,-9.687c-0,0 -2.338,-2.002 -4.37,-2.002c-2.599,-0 -4.018,2.244 -4.018,3.872c-0,2.372 1.138,3.689 2.28,4.832c1.642,1.642 3.639,3.412 6.108,1.987l-0,-8.689Zm-23.145,-3.433l1.823,2.307l7.497,9.367l2.429,-1.934c0,-0 -2.017,-2.374 -3.371,-5.024c-2.647,-5.179 -0.773,-8.404 -0.773,-8.404l-7.605,-0l0,3.688Zm10.616,-3.705c-0,-0 -0.789,1.075 -0.228,3.705c0.601,2.812 2.989,5.788 2.983,5.721c0,0 0.154,-2.955 1.888,-4.689c3.696,-3.696 7.886,-1.495 7.886,-1.495l-0,-3.225l-12.529,-0.017Z"/>
	<path fill="#005e6a" d="M58.288,1.227l5.471,-0c-0,-0 4.846,7.338 7.228,10.37c2.382,3.032 4.946,6.485 4.946,6.485l-0,-15.212c-0,-0.657 -1.725,-1.643 -1.725,-1.643l6.308,-0c0,-0 -2.07,0.85 -2.07,1.643l0,22.13c0,0 -1.986,-1.101 -4.238,-3.719c-2.531,-2.94 -11.534,-14.813 -11.534,-14.813l0,15.378c0,0.787 1.725,1.978 1.725,1.978l-6.111,0c-0,0 1.676,-1.2 1.676,-1.978l-0,-18.976c-0,-0.698 -1.676,-1.643 -1.676,-1.643Zm25.762,-0l7.021,-0c-0,-0 -1.885,0.893 -1.885,1.643l-0,18.976c-0,0.82 1.885,1.978 1.885,1.978l-7.021,0c-0,0 1.755,-1.185 1.755,-1.978l-0,-18.976c-0,-0.721 -1.755,-1.643 -1.755,-1.643Zm-46.42,-0c0,-0 1.82,0.908 1.82,1.643l0,18.976c0,0.806 -1.82,1.978 -1.82,1.978l10.402,0c0.65,0 7.932,-1.19 7.932,-6.804c-0,-5.614 -5.656,-6.139 -5.656,-6.139c-0,-0 3.445,-0.958 3.445,-4.799c0,-4.14 -5.071,-4.855 -5.721,-4.855l-10.402,-0Zm5.526,11.135l4.876,-0c0.65,-0 4.486,0.996 4.486,4.324c0,3.393 -3.836,4.595 -4.486,4.595l-4.876,0l0,-8.919Zm0,-1.853l0,-7.065l4.226,-0c0.65,-0 2.926,0.759 2.926,3.575c-0,2.322 -2.276,3.49 -2.926,3.49l-4.226,-0Z"/>
</svg>