<svg xmlns="http://www.w3.org/2000/svg" viewBox="0 0 100 25">
	<title>Dana</title>
	<path fill="#108de8" d="M21.249,0.988c6.354,-0 11.512,5.158 11.512,11.512c0,6.354 -5.158,11.512 -11.512,11.512c-6.354,0 -11.513,-5.158 -11.513,-11.512c0,-6.354 5.159,-11.512 11.513,-11.512Zm58.98,17.484l2.511,0l-0,-2.542l4.981,-0l0.015,2.53l2.511,-0l-0,-4.191c-0,-1.265 0.105,-2.842 -0.211,-3.987c-0.591,-2.156 -2.566,-3.663 -4.802,-3.663c-2.217,0 -4.179,1.48 -4.788,3.611c-0.337,1.13 -0.223,2.751 -0.223,4.005c-0,1.417 -0.015,2.842 -0,4.258l0.006,-0.021Zm-28.712,-0.002l2.502,0c0,-0.531 -0.067,-2.156 0.023,-2.542l4.963,-0l0.017,2.54l2.506,0c-0.013,-1.408 0,-2.814 0,-4.216c0,-1.202 0.112,-2.922 -0.211,-3.989c-0.594,-2.153 -2.568,-3.655 -4.801,-3.655c-2.216,-0 -4.177,1.478 -4.788,3.607c-0.336,1.096 -0.222,2.772 -0.222,3.993c0,1.408 -0.031,2.852 0,4.256l0.011,0.006Zm-9.948,-0.019c1.53,0.11 3.314,-1.079 3.942,-1.758c2.184,-2.363 2.236,-5.78 0.038,-8.255c-0.818,-0.922 -2.741,-1.94 -3.957,-1.796l-4.404,-0l0,11.794l4.391,0.015l-0.01,0Zm24.363,-7.203l-0.036,1.756c0,1.476 -0.072,4.231 0,5.43l2.454,0c0.057,-0.843 -0.089,-6.832 0.065,-7.024c0,-1.164 1.217,-2.247 2.444,-2.251c0.637,-0.004 1.252,0.241 1.711,0.683c0.312,0.284 0.791,0.934 0.782,1.589c0.114,0.066 0.024,6.324 0.059,7.018l2.456,0l-0.019,-7.157c0.062,-0.561 -0.276,-1.427 -0.493,-1.866c-0.827,-1.715 -2.57,-2.81 -4.474,-2.81c-1.874,0 -3.595,1.061 -4.437,2.735c-0.211,0.432 -0.565,1.321 -0.512,1.897Zm-26.261,4.648l0,-6.714c0.69,-0.045 1.381,-0.045 2.071,-0c0.542,0.063 1.059,0.263 1.503,0.582c2.529,1.728 1.475,5.85 -1.546,6.126c-0.675,0.047 -1.352,0.049 -2.028,0.006Zm43.071,-2.523c-0.015,-1.054 -0.127,-2.182 0.369,-2.994c0.442,-0.759 1.261,-1.225 2.14,-1.216c0.873,0.006 1.682,0.473 2.125,1.227c0.489,0.843 0.373,1.897 0.36,2.985l-4.994,-0.002Zm-28.721,-0c-0.017,-1.054 -0.124,-2.197 0.371,-2.992c0.442,-0.757 1.256,-1.224 2.133,-1.224c0.877,-0 1.69,0.467 2.132,1.224c0.491,0.844 0.373,1.915 0.365,2.988l-5.001,0.004Z"/>
	<path fill="#fff" d="M27.957,12.548l-0,3.241c-0,0.21 -0.091,0.255 -0.268,0.151c-0.237,-0.142 -0.483,-0.267 -0.738,-0.375c-0.768,-0.306 -1.6,-0.417 -2.422,-0.322c-0.897,0.116 -1.777,0.337 -2.623,0.657c-0.843,0.285 -1.669,0.593 -2.529,0.831c-0.713,0.212 -1.454,0.309 -2.197,0.289c-0.823,-0.032 -1.623,-0.282 -2.319,-0.723c-0.178,-0.107 -0.284,-0.303 -0.276,-0.51l0,-6.367c0,-0.103 0,-0.225 0.093,-0.278c0.093,-0.053 0.187,0.034 0.267,0.086c0.756,0.511 1.65,0.776 2.562,0.759c0.652,-0.027 1.296,-0.147 1.914,-0.356c0.877,-0.272 1.724,-0.633 2.587,-0.938c0.671,-0.258 1.359,-0.469 2.059,-0.633c1.215,-0.284 2.494,-0.048 3.527,0.652c0.238,0.146 0.38,0.41 0.369,0.689l-0,3.162l-0.006,-0.015Z"/>
</svg>