<svg xmlns="http://www.w3.org/2000/svg" viewBox="0 0 100 25">
	<title>LinkAja!</title>
	<path fill="#E9232A" d="M37.3,24.5c-0.5-0.3-0.9-0.5-0.9-0.5c0.1-0.1,2.5-0.6,4.3-0.9c3.7-0.7,8.2-1.2,12.6-1.6c1.8-0.1,8.4-0.1,9.5,0l0.7,0.1l-0.8,0c-1.5,0-4.9,0.3-7.6,0.5c-5.1,0.5-10.8,1.5-14.8,2.5c-0.8,0.2-1.6,0.4-1.7,0.4C38.4,25,37.9,24.8,37.3,24.5L37.3,24.5z M44.5,19.4L44.5,19.4c-0.1-0.2,0.2-0.3,0.4-0.4c0.6-0.3,1.1-0.7,1.2-1.2c0.1-0.2,0.3-1.6,0.5-3c0.2-1.4,0.4-2.5,0.4-2.6c0,0,0.1-0.2,0.3-0.2c0.5,0,0.9,0,1.4,0c0.3,0,0.2,0.3,0.2,0.5c0,0.3-0.1,0.8-0.2,1.4c-0.1,0.7-0.2,1.9-0.3,2.5c-0.2,1.4-0.3,1.8-0.6,2.5c-0.4,0.8-1,1.3-2,1.7c-0.2,0.1-0.8,0.3-0.9,0.1C44.7,20.2,44.6,19.8,44.5,19.4L44.5,19.4z M56.5,18.9L56.5,18.9c-0.7-0.3-0.7-1.4,0.1-1.8c0.5-0.3,1.1-0.2,1.5,0.1C58.9,18,57.7,19.4,56.5,18.9z M51.2,18.3L51.2,18.3c-2.1-0.4-2-2.8-1.6-4.2c0.6-1.6,2-2.1,3.1-2.1c1,0,2.3,0.1,2.7,0.4c0.1,0.1,0,0.6-0.2,2.7c-0.2,1.4-0.4,2.7-0.4,2.8C54.5,18.2,52.3,18.5,51.2,18.3L51.2,18.3z M53,16.3L53,16.3c0.2-0.8,0.3-1.6,0.5-2.4c0-0.3-0.5-0.3-0.7-0.3c-0.7,0-1.1,0.4-1.3,1.2c-0.3,1.1,0,1.8,0.8,1.8C52.7,16.6,53,16.6,53,16.3L53,16.3z M38,17.6L38,17.6c0.6-1.4,2.8-6.3,3.4-7.3c0.1-0.3,0.4-0.3,0.6-0.3c0.5,0,1,0,1.5,0c0.5,0,0.5,0.2,0.5,0.5c0.1,0.4,1,6,1.2,7.3c0,0.2,0.1,0.3-0.2,0.3c-0.4,0-1.4,0.1-1.7,0c-0.1,0-0.2-0.1-0.2-0.2c0-0.1-0.1-0.4-0.1-0.6l-0.1-0.7h-1.2h-1.2l-0.3,0.6c-0.1,0.2-0.2,0.5-0.3,0.6c-0.1,0.1-0.1,0.2-0.3,0.2c-0.3,0-1.3,0-1.7,0C37.8,18,37.9,17.7,38,17.6z M42.7,14.8L42.7,14.8c0-0.4-0.3-2.2-0.3-2.5c0,0,0,0,0,0c-0.1,0.2-0.9,2.1-1,2.6c0,0.1,0,0.1,0.1,0.1C41.6,14.9,42.4,14.9,42.7,14.8C42.7,14.8,42.7,14.8,42.7,14.8L42.7,14.8z M56.6,15.7L56.6,15.7c0-0.2,0.1-0.9,0.2-1.5c0.1-0.6,0.1-1.4,0.2-2c0-0.4,0.1-0.8,0.1-1c0-0.2,0.2-0.2,0.4-0.2c0.5,0,0.9,0,1.3,0c0.2,0,0.3,0.1,0.3,0.2c-0.2,1-0.9,4.4-0.9,4.6c0,0.2-0.1,0.2-0.3,0.3c-0.3,0-0.6,0-1,0C56.6,16.1,56.6,16.1,56.6,15.7L56.6,15.7z M47.1,10.6L47.1,10.6c0-0.6,0.4-1.1,0.9-1.3c0.4-0.1,0.9-0.1,1.1,0.1c0.4,0.5,0.2,1.3-0.4,1.7C48.1,11.6,47.1,11.4,47.1,10.6z M58.9,9.4L58.9,9.4c-0.1-0.3-0.6-1.3-1-2.3c-0.4-0.9-0.7-1.7-0.7-1.8c0-0.1,0.5-0.7,1-1.3l0.9-1c0.1-0.1,0.1-0.2,0.2-0.2c0.5,0,1.1,0,1.6,0c0.4,0,0.6,0,0.3,0.3c-0.2,0.2-0.5,0.6-0.9,1.1c-0.6,0.7-1.1,1.2-1.1,1.2c0,0,0.4,1,1,2.2c0.4,0.9,0.8,1.7,0.9,2.1c0.1,0.1,0,0.2-0.1,0.2c-0.1,0-0.4,0-0.8,0h-0.7c-0.2,0-0.3,0-0.3-0.2L58.9,9.4L58.9,9.4z M39,8.7L39,8.7c-0.6-0.3-0.9-0.7-0.9-1.2c0-0.3,0.5-4.9,0.8-6.4c0.1-0.3,0.1-0.4,0.4-0.4h0.6c0.3,0,0.6,0,0.8,0C41,0.7,41,0.9,41,1.1c0,0.4-0.2,1.4-0.4,2.7c-0.3,2.2-0.4,3-0.3,3.1C40.4,7,40.6,7,42.1,7l1.3,0c0.3,0,0.4,0.1,0.4,0.3c-0.1,0.5-0.1,0.8-0.2,1.3c-0.1,0.3-0.2,0.2-0.5,0.2l-1.6,0C39.5,8.9,39.5,8.9,39,8.7z M54.4,8.8L54.4,8.8c0,0,0-0.6,0.1-1.2C54.6,7,54.8,5.7,55,4.7c0.4-2.8,0.5-3.7,0.6-4c0.1-0.4,0.1-0.4,0.4-0.4h0.6c0.2,0,0.4,0,0.6,0c0.5,0,0.5,0,0.3,0.8c-0.1,0.3-0.2,1.7-0.4,2.8c-0.4,2.9-0.7,4.7-0.7,4.8C56.3,8.9,54.5,9,54.4,8.8L54.4,8.8z M44.2,8.6L44.2,8.6C44.5,6.5,44.7,5,45,3c0-0.2,0.2-0.3,0.5-0.3c0.3,0,0.6,0,0.9,0c0.6,0,0.7,0.1,0.6,0.5c-0.2,1.8-0.6,3.4-0.9,5.3c-0.1,0.3-0.1,0.3-0.4,0.3c-0.3,0-1,0-1.3,0C44.3,8.8,44.3,8.8,44.2,8.6z M48.2,4L48.2,4c0.2-0.8,0.3-0.9,0.5-1.1c0.3-0.2,2.3-0.4,3-0.3c0.1,0,0.2,0,0.3,0.1c2.1,0.5,1.7,2.8,1.6,3.9c-0.1,1-0.3,2-0.3,2.1c0,0.2-0.1,0.2-1,0.2c-0.3,0-0.5,0-0.7,0c-0.3,0-0.3-0.1-0.3-0.3c0.1-0.9,0.2-1.6,0.4-2.4c0.1-1.1,0.1-2.2-1.2-1.9c-0.2,0.1-0.3,0.1-0.3,0.3c-0.2,1.1-0.3,2.2-0.5,3.2c0,0.3-0.1,0.5-0.1,0.7c0,0.1,0,0.1,0,0.2c0,0,0,0.1-0.1,0c-0.2-0.4-1.2-0.3-1.7,0c-0.2,0.1-0.3,0.2-0.2-0.2c0-0.1,0-0.2,0-0.3C47.8,6.7,47.9,5.4,48.2,4L48.2,4z M45.3,1.6L45.3,1.6C45.1,0.8,45.7,0,46.5,0c1-0.1,1.3,1.3,0.3,2C46.1,2.3,45.5,2.2,45.3,1.6z"/>
</svg>