<svg xmlns="http://www.w3.org/2000/svg" viewBox="0 0 100 25">
	<title>Mandiri</title>
	<path fill="#0d2b5b" d="M10.559,16.81c0,-1.144 -0.02,-2.101 -0.082,-2.958l2.163,0l0.103,1.47l0.06,-0c0.489,-0.776 1.387,-1.695 3.06,-1.695c1.306,-0 2.326,0.736 2.754,1.837l0.042,-0c0.347,-0.551 0.754,-0.96 1.223,-1.244c0.551,-0.389 1.185,-0.593 2,-0.593c1.653,-0 3.325,1.122 3.325,4.307l-0,5.853l-2.448,0l-0,-5.488c-0,-1.652 -0.572,-2.633 -1.775,-2.633c-0.857,0 -1.49,0.614 -1.754,1.328c-0.074,0.273 -0.115,0.553 -0.123,0.835l-0,5.959l-2.448,0l-0,-5.756c-0,-1.384 -0.551,-2.365 -1.714,-2.365c-0.937,0 -1.569,0.736 -1.796,1.428c-0.101,0.245 -0.143,0.532 -0.143,0.816l0,5.877l-2.447,0l0,-6.978Zm24.187,4.592c-0,0.896 0.04,1.773 0.141,2.386l-2.264,0l-0.163,-1.101l-0.062,0c-0.612,0.776 -1.653,1.324 -2.936,1.324c-2,0 -3.122,-1.447 -3.122,-2.957c0,-2.512 2.222,-3.775 5.897,-3.755l-0,-0.162c-0,-0.654 -0.267,-1.735 -2.022,-1.735c-0.98,-0 -1.999,0.307 -2.672,0.734l-0.49,-1.633c0.735,-0.449 2.021,-0.877 3.59,-0.877c3.184,-0 4.103,2.022 4.103,4.182l-0,3.594Zm-2.449,-2.468c-1.776,-0.042 -3.469,0.346 -3.469,1.855c0,0.98 0.634,1.429 1.429,1.429c0.999,0 1.734,-0.655 1.959,-1.368c0.055,-0.178 0.082,-0.364 0.082,-0.55l-0,-1.366l-0.001,-0Zm4.182,-2.124c-0,-1.144 -0.021,-2.101 -0.08,-2.958l2.201,0l0.122,1.492l0.061,-0c0.428,-0.777 1.51,-1.717 3.162,-1.717c1.735,-0 3.529,1.122 3.529,4.266l0,5.894l-2.508,0l-0,-5.609c-0,-1.428 -0.532,-2.513 -1.898,-2.513c-0.998,0 -1.694,0.715 -1.959,1.471c-0.081,0.223 -0.101,0.53 -0.101,0.814l-0,5.836l-2.53,0l0.001,-6.976Zm19.876,-6.949l-0,11.132c-0,1.02 0.042,2.124 0.082,2.795l-2.243,0l-0.103,-1.57l-0.041,0c-0.591,1.101 -1.796,1.794 -3.243,1.794c-2.368,0 -4.243,-2.019 -4.243,-5.077c-0.022,-3.327 2.058,-5.307 4.447,-5.307c1.366,-0 2.345,0.571 2.794,1.309l0.043,-0l-0,-5.075l2.508,-0l-0,-0.001l-0.001,-0Zm-2.508,8.132c-0,-0.202 -0.02,-0.447 -0.062,-0.653c-0.224,-0.977 -1.018,-1.774 -2.162,-1.774c-1.611,0 -2.511,1.429 -2.511,3.285c0,1.814 0.899,3.141 2.491,3.141c1.019,0 1.917,-0.695 2.161,-1.776c0.062,-0.223 0.084,-0.469 0.084,-0.734l-0,-1.489l-0.001,0Zm4.283,5.795l-0,-9.936l2.532,0l-0,9.936l-2.532,0Zm4.305,-6.732c-0,-1.346 -0.019,-2.306 -0.08,-3.203l2.183,0l0.08,1.896l0.082,-0c0.49,-1.407 1.652,-1.896 2.715,-1.896c0.245,0 0.387,-0.042 0.59,0l-0,2.205c-0.241,-0.054 -0.487,-0.081 -0.733,-0.082c-1.206,-0 -2.022,0.776 -2.246,1.896c-0.049,0.256 -0.076,0.516 -0.08,0.777l-0,5.14l-2.511,-0l-0,-6.733Zm6.735,6.732l-0,-9.936l2.528,0l-0,9.936l-2.528,0Z"/>
	<path fill="#fdd213" d="M87.445,3.344c-1.252,-1.429 -2.584,-0.782 -3.642,-0.256c-0.446,0.22 -3.658,2.041 -3.658,2.041c-1.761,0.726 -3.132,-0.066 -3.669,-0.733c-0.052,-0.063 -0.098,-0.13 -0.139,-0.201l-0.126,-0.217c-0.212,-0.366 -0.447,-0.719 -0.705,-1.055c-0.156,-0.203 -0.325,-0.396 -0.507,-0.578c-1.204,-1.217 -3.129,-2.068 -6.346,-0.522c-1.524,0.883 -6.486,3.718 -6.486,3.718c-1.865,0.768 -3.291,-0.167 -3.755,-0.853c-0.02,-0.025 -0.039,-0.053 -0.054,-0.082l-0.061,-0.104l-0.314,-0.514c-0.142,-0.225 -0.294,-0.444 -0.456,-0.655c-0.158,-0.202 -0.328,-0.395 -0.508,-0.578c-1.196,-1.209 -3.111,-2.058 -6.301,-0.541c-1.928,1.101 -6.414,3.665 -6.414,3.665l-0.001,0.002l-3.283,1.876l1.698,2.085c0.715,0.682 2.059,1.799 4.137,0.857c0,0 5.737,-3.322 5.759,-3.332c4.905,-2.691 7.325,-0.12 8.395,1.594c0.037,0.054 0.067,0.112 0.1,0.164l0.002,0.003c0.014,0.021 0.022,0.04 0.034,0.06l0.121,0.198c0.521,0.79 1.343,1.3 2.323,1.277c0.541,-0.011 0.908,-0.187 1.442,-0.484l5.55,-3.22l0.012,-0.005c4.966,-2.724 7.427,0.015 8.478,1.73c0.082,0.148 0.174,0.289 0.27,0.421c0.52,0.706 1.238,1.168 2.15,1.145c0.602,-0.011 1.277,-0.373 1.378,-0.439l6.654,-3.841c0.001,0.002 -0.678,-1.025 -2.078,-2.626Z"/>
</svg>