<svg xmlns="http://www.w3.org/2000/svg" viewBox="0 0 100 25">
	<title>Maybank</title>
	<path fill="#fbbc18" d="M18.676,12.5c-0,4.932 -3.999,8.931 -8.931,8.931c-4.932,-0 -8.93,-3.999 -8.93,-8.931c-0,-4.932 3.998,-8.93 8.93,-8.93c4.932,-0 8.931,3.998 8.931,8.93Z"/>
	<path fill="#222" d="M47.6,9.652l3.963,8.697l-1.568,3.412l3.412,-0l5.449,-12.109l-3.522,-0l-2.092,6.082l-2.119,-6.082l-3.523,-0Zm23.017,2.202c4.66,-1.376 4.66,0.275 4.66,0.495l0,0.295c-3.771,0.031 -6.018,1.109 -6.018,3.063c0,1.981 2.092,2.843 4.862,2.843c2.771,0 4.184,-0.642 4.184,-0.642l-0,-5.412c-0,-1.908 -1.23,-3.119 -4.184,-3.119c-2.954,-0 -4.238,0.697 -4.238,0.697l0.734,1.78Zm-30.493,-0c4.66,-1.376 4.66,0.275 4.66,0.495l-0,0.295c-3.771,0.031 -6.018,1.109 -6.018,3.063c0,1.981 2.092,2.843 4.862,2.843c2.77,0 4.183,-0.642 4.183,-0.642l0,-5.412c0,-1.908 -1.229,-3.119 -4.183,-3.119c-2.954,-0 -4.238,0.697 -4.238,0.697l0.734,1.78Zm19.246,6.047c-0,-0 1.688,0.631 4.055,0.631c2.367,0 5.449,-0.734 5.449,-4.807c-0,-4.073 -4.091,-4.22 -4.569,-4.22c-0.901,0 -1.477,0.245 -1.688,0.353l0,-4.187l-3.247,-0l-0,12.23Zm-27.97,0.448l2.917,-7.963l0.954,7.963l3.082,-0l-1.669,-11.697l-3.762,0l-2.49,7.028l-2.491,-7.028l-3.761,0l-1.669,11.697l3.082,-0l0.954,-7.963l2.917,7.963l1.936,-0Zm68.6,-0.01l-3.605,-4.651l3.284,-4.036l-3.669,-0l-2.918,3.798l0,-7.761l-3.192,-0l-0,12.65l3.192,0l0,-4.404l3.275,4.404l3.633,0Zm-14.522,-0.009l3.211,0l0,-5.504c0,-2.862 -2.055,-3.468 -4.587,-3.468c-2.532,0 -4.568,0.697 -4.568,0.697l-0,8.275l3.211,0l-0,-6.581c2.468,-0.722 2.733,0.466 2.733,1.04l0,5.541Zm-13.228,-2.66c-0,-1.251 2.376,-1.34 3.027,-1.341l0,2.227c-0.679,0.08 -3.027,0.275 -3.027,-0.886Zm-30.493,-0c-0,-1.251 2.375,-1.34 3.027,-1.341l-0,2.227c-0.679,0.08 -3.027,0.275 -3.027,-0.886Zm20.86,0.662l0,-4.576c0.647,-0.218 2.991,-0.803 2.991,2.171c0,3.029 -2.404,2.563 -2.991,2.405Z"/>
	<path fill="#222" d="M9.745,2.755c-5.373,-0 -9.745,4.372 -9.745,9.745c0,5.374 4.372,9.745 9.745,9.745c5.374,0 9.745,-4.371 9.745,-9.745c0,-5.373 -4.371,-9.745 -9.745,-9.745Zm0,0.815c4.932,-0 8.931,3.998 8.931,8.93c-0,4.932 -3.999,8.931 -8.931,8.931c-4.932,-0 -8.93,-3.999 -8.93,-8.931c-0,-4.932 3.998,-8.93 8.93,-8.93Zm6.865,5.05c0,-0 1.203,3.27 -0.154,6.242c-0,0 0.077,-0.431 -0.257,-1.284c-0.358,-0.913 -0.239,-2.091 -0.092,-2.312c0,0 -0.661,0.661 -0.624,1.762c0.037,1.101 0.33,4.201 -1.908,5.357c0,0 0.849,-1.55 0.532,-3.367c0,0 0.289,0.111 0.441,0.496c-0,-0 0.605,-1.596 -0.179,-3.55c-0,-0 0.44,0.082 0.715,0.316c0,0 0.29,-1.398 -1.293,-2.38c-0.399,-0.248 -0.344,-0.386 -0.344,-0.386c-0,0 -0.124,0.317 0.137,0.633c0.262,0.317 0.62,0.936 0.565,1.252c-0,0 -0.427,-0.302 -1.046,-0.22c-0,0 1.183,1.005 1.004,3.165c0,0 -0.303,-0.33 -1.073,-0.468c-0,0 0.867,1.624 0.096,3.179c0,0 -0.055,-0.55 -0.302,-0.895c-0,0 -0.193,1.143 -1.569,1.542c-0,-0 1.114,-1.39 -0.207,-2.092c-1.321,-0.702 -2.435,0.853 -2.655,2.216c-0,-0 -1.528,0.11 -1.679,-0.51c-0.152,-0.619 0.289,-0.88 0.289,-0.88c-0,-0 0.234,0.151 0.77,-0.097c0.537,-0.247 1.666,-0.922 1.555,-1.775c-0.11,-0.853 -1.445,-1.692 -2.504,-1.348c-1.06,0.344 -1.665,1.28 -2.216,1.266c-0.55,-0.014 -1.224,-0.853 -1.128,-1.294c0.097,-0.44 0.454,-0.564 0.578,-1.307c0,0 -0.193,0.018 -0.321,-0.064c-0.128,-0.083 -0.468,-0.22 -0.651,-0.174c-0.184,0.045 -0.633,0.348 -0.652,0.293c-0.018,-0.055 0.046,-0.385 0.046,-0.385c0,-0 -0.495,0.523 -0.422,0.734c0.074,0.211 0.505,0.733 0.954,1.027c0,0 0.083,0.642 0.67,1.239c0.351,0.356 0.677,0.42 0.957,0.36c0.118,0.175 0.519,0.702 1.16,0.816c-0,-0 -0.111,-0.737 -0.031,-1.295c0.025,-0.012 0.05,-0.027 0.07,-0.046c0.101,-0.102 1.275,-1.184 2.147,-0.138c-0,-0 -0.395,0.147 -0.551,0.642c-0.156,0.495 -0.248,1.725 -1.541,0.936c-0,-0 -0.11,0.706 0.284,1.128c0,-0 -0.055,0.753 0.798,1.165c0.853,0.413 1.45,0.101 2,0.376c0,0 -0.055,-1.128 0.413,-1.816c0.468,-0.688 1.128,-0.917 1.449,-0.651c0.321,0.265 0.523,1.275 -0.715,2.321c-0,-0 1.422,0.183 2.394,-0.56c0,0 -0.12,1.311 -1.102,2.421c3.556,-0.763 6.212,-3.926 6.212,-7.71c-0,-1.411 -0.371,-2.735 -1.02,-3.88Zm-10.215,8.077c-0.124,-0.041 -0.235,-0.495 -0.235,-0.495c0.179,0.144 0.544,0.151 0.544,0.151c-0.172,0.165 -0.186,0.385 -0.309,0.344Zm1.373,-1.449c0,-0 0.431,0.018 0.45,-0.055c0.018,-0.074 -0.138,-0.578 -0.138,-0.578c0,-0 0.542,0.055 0.551,0.229c0.009,0.174 -0.303,0.615 -0.964,0.899c0,0 0.12,-0.348 0.101,-0.495Zm4.881,-2.789c-0,0 -0.496,-0.44 -0.441,-1.252c0.055,-0.812 0.207,-2.037 -1.169,-2.89c-0,0 0.564,0.867 0.357,1.72c-0.206,0.853 -0.895,2.31 -0.839,2.793c0.124,1.06 1.225,1.253 1.142,2.698c0,-0 0.647,-0.785 0.523,-1.707c-0.124,-0.922 -0.936,-1.321 -0.578,-2.05c0,0 0.413,0.605 1.005,0.688Zm-7.68,2.322c0.059,-0.035 0.115,-0.072 0.166,-0.111c0.134,-0.101 0.235,-0.15 0.303,-0.172c-0.014,0.193 -0.026,0.534 0.034,0.816c0,0 -0.355,-0.228 -0.503,-0.533Zm5.927,-5.854c0,0 -0.926,-0.523 -1.339,0.019c-0.388,0.508 -0.136,1.382 -0.363,1.927c-0.008,-0.006 -0.015,-0.013 -0.022,-0.019c-0.514,-0.459 -1.147,0.321 -1.266,0.55c-0.119,0.229 -0.275,0.257 -0.275,0.257c-1.129,0.229 -0.89,-0.679 -1.266,-0.954c-0.376,-0.275 -1.009,0.128 -1.009,0.128c0.633,-0.119 0.779,0.321 0.761,0.496c-0.018,0.174 0.11,0.688 0.284,0.972c0.175,0.285 0.881,0.083 1.459,0.129c0.578,0.045 0.908,0.752 0.908,0.752c0.349,-0.844 -0.587,-1.23 -0.587,-1.23c0,0 0.273,-0.518 0.596,-0.339c1.028,0.569 0.771,2.872 0.771,2.872c0.885,-1.666 0.495,-2.641 0.033,-3.213c0.059,-0.519 0.321,-2.154 1.315,-2.347Zm-4.742,4.454c0.44,-0.716 -0.097,-1.17 -0.785,-0.784c-0.688,0.385 -0.853,1.307 -0.853,1.307c1.362,-1.486 1.638,-0.523 1.638,-0.523Zm-0.303,-1.28c-0,0 -0.014,-0.523 -0.495,-0.413c-0.811,0.185 -1.087,1.624 -1.087,1.624c0.908,-1.679 1.582,-1.211 1.582,-1.211Zm-2.605,0.917c-0.211,0 -0.587,-0.559 -0.652,-0.669c-0.064,-0.11 0.358,-0.312 0.487,-0.349c0.128,-0.037 0.264,-0.006 0.284,0.055c0.018,0.055 -0.266,0.23 -0.303,0.294c-0.036,0.064 0.225,0.306 0.266,0.358c0.074,0.092 0.129,0.311 -0.082,0.311Zm1.146,-0.972c0.248,-0.399 0.513,-0.595 0.716,-0.691c0.203,-0.097 0.344,-0.093 0.344,-0.093c-0.674,-0.496 -1.06,0.784 -1.06,0.784Zm1.156,-2.958c0,-0 0.207,-0.812 0.537,-1.087c0.33,-0.276 1.518,-1.06 3.234,-1.61c0.203,-0.066 0.441,0.009 0.452,0.013c-0.011,0.067 -0.018,0.113 -0.021,0.129c-0.023,0.128 -0.119,0.211 -0.119,0.211c0.348,0.046 0.577,-0.202 0.642,-0.486c0.064,-0.285 0.284,-1.411 0.642,-1.395c1,0.046 1.715,3.275 1.642,3.422c-0.048,0.096 -0.44,0.018 -0.44,0.018c0.623,0.982 1.44,0.973 1.623,0.817c0.184,-0.156 0.083,-0.661 0.083,-0.661c1.963,1.165 1.853,2.551 1.853,2.551c0.587,-2.294 -0.771,-3.276 -0.771,-3.276c0.532,-0.018 1.11,0.322 1.11,0.322c-0.825,-1.11 -2.532,-1.725 -2.532,-1.725c0,0 -1.99,-2.211 -2.632,-2.128c-0.532,0.068 -0.836,1.044 -0.985,1.713c-0.074,-0.006 -0.213,-0.012 -0.395,0.01c-0.14,-0.175 -0.736,-0.883 -0.969,-0.65c-0.089,0.09 -0.118,0.726 -0.126,0.994c-0.964,0.384 -2.605,1.105 -2.938,1.634c-0.303,0.482 -0.371,0.84 -0.371,0.84c-0,-0 -1.968,1.266 -2.45,2.642c0,-0 1.321,-1.541 2.931,-2.298Zm1.211,1.123c0,0 0.248,-0.577 0.431,-0.651c0,0 0.321,0.083 0.496,0.018c0.174,-0.064 0.504,-0.504 0.633,-0.513c-0,-0 -0.34,1.477 -1.716,1.449c0,0 0.991,0.56 1.496,0.165c0.504,-0.394 0.119,-0.697 0.77,-1.33c0.651,-0.633 0.22,-0.661 0.193,-0.651c-0.028,0.009 -0.23,-0.055 -0.23,-0.055c0,-0 0.092,-0.119 0.276,-0.202c0.183,-0.083 1.238,-0.56 1.256,-0.844c0.019,-0.284 -0.761,-0.605 -1.156,-0.596c0,-0 0.358,0.146 0.34,0.348c-0.018,0.202 -1.046,0.652 -1.046,1.23c0,-0 -0.367,0.027 -0.633,-0.028c-0.266,-0.055 -0.55,-0.027 -0.844,0.165c-0.293,0.193 -0.312,-0.238 -0.284,-0.293c-0,-0 -0.569,0.357 0.147,0.816c-0,0 -0.294,0.303 -0.322,0.376c-0.027,0.073 -0.146,0.468 0.193,0.596Zm1.295,-1.349c-0.041,0.005 -0.124,0.099 -0.295,0.313c-0.183,0.229 -0.358,0.055 -0.358,0.055l-0.003,-0.011c0.018,0.004 0.035,0.011 0.054,0.011c0.119,-0 0.215,-0.097 0.215,-0.216c0,-0.065 -0.03,-0.121 -0.075,-0.16c0.129,-0.009 0.41,0.006 0.462,0.008Zm-0,0c0.003,0 0.005,0 0.008,0.001c-0,-0 -0.003,-0 -0.008,-0.001Zm-1.01,-0.981c-0.395,0.239 -0.221,0.441 -0.221,0.441c0,-0 -0.064,-0.202 0.422,-0.34c0.867,-0.245 1.652,-0.495 1.633,-0.706c-0.018,-0.211 -0.605,-0.294 -0.605,-0.294c0.165,0.221 -0.835,0.661 -1.229,0.899Zm4.834,0.184c-0.028,-1.019 -0.532,-1.835 -0.789,-1.881c-0.257,-0.046 -0.339,0.927 -0.339,0.927c0.679,0.449 1.128,0.954 1.128,0.954Z"/>
</svg>