<?xml version="1.0" encoding="utf-8"?>
<!-- Generator: Adobe Illustrator 26.5.0, SVG Export Plug-In . SVG Version: 6.00 Build 0)  -->
<svg version="1.0" id="katman_1" xmlns="http://www.w3.org/2000/svg" xmlns:xlink="http://www.w3.org/1999/xlink" x="0px" y="0px"
	 viewBox="0 0 1190.55 841.89" style="enable-background:new 0 0 1190.55 841.89;" xml:space="preserve">
<style type="text/css">
	.st0{fill:#E94E30;}
</style>
<g>
	<g>
		<path class="st0" d="M343.26,420.44c28.55,8.54,39.78,19.23,37.99,36.39c-1.11,10.57-7.43,19.16-17.34,23.56
			c-5.46,2.42-12.78,3.8-18.61,3.51c-8.98-0.19-17.48-2.21-25.34-6.03c-2.84-1.39-7.03-4.13-10.28-6.74l-0.01-0.01
			c-1.52-1.28-1.7-2.11-0.66-3.66c0.27-0.42,0.76-1.17,1.9-2.89c0.98-1.47,1.95-2.96,2-3.03c1.22-1.84,2.51-1.84,4.28-0.62
			c0.01,0.01,0.17,0.13,0.63,0.47c0.36,0.27,0.59,0.43,0.63,0.46c8.08,6.05,17.42,9.46,26.73,9.65
			c12.73-0.39,21.71-6.11,23.15-14.59c1.59-9.33-6.12-17.33-21.18-21.72c-5.27-1.53-16.78-5.85-20-7.54
			c-11.3-6.3-16.74-14.87-16.17-25.54c0.89-14.76,14.42-25.97,31.7-26.34c7.59-0.15,15.19,1.28,22.51,4.19
			c2.64,1.05,7.26,3.44,8.93,4.63c1.93,1.37,1.93,2.31,0.99,4.08c-0.13,0.23-0.64,0.96-1.94,2.82l0,0
			c-1.38,1.97-1.79,2.57-1.91,2.77c-1.13,1.47-2.08,1.92-4.02,0.75c-7.62-4.88-15.35-7.19-24.09-7.21
			c-10.77,0.4-18.68,6.78-19.06,15.25C324.08,410.68,330.13,416.22,343.26,420.44"/>
		<path class="st0" d="M422.54,416.16c17.42,0,31.8,14.06,31.87,31.29v33.66c0,1.94-0.5,2.4-2.41,2.4h-8c-1.93,0-2.41-0.46-2.41-2.4
			v-33.56c-0.04-10.39-8.56-18.8-19.05-18.8c-10.47,0-18.97,8.37-19.05,18.73v33.63c0,1.67-0.66,2.4-2.41,2.4h-8.02
			c-1.91,0-2.41-0.71-2.41-2.4V378.13c0-1.77,0.5-2.4,2.41-2.4h8.02c1.72,0,2.41,0.67,2.41,2.4v44.32
			C408.96,418.4,415.61,416.16,422.54,416.16"/>
		<path class="st0" d="M497.45,416.23c-19.04,0-34.48,15.13-34.48,33.79c0,18.67,15.44,33.79,34.48,33.79
			c19.04,0,34.47-15.13,34.47-33.79C531.92,431.36,516.49,416.23,497.45,416.23 M497.44,471.39c-12.06,0-21.83-9.57-21.83-21.38
			c0-11.81,9.77-21.38,21.83-21.38c12.06,0,21.83,9.57,21.83,21.38C519.27,461.81,509.5,471.39,497.44,471.39"/>
		<path class="st0" d="M754.86,454.57c0.06,0,0.12,0,0.18-0.01c2.1-0.1,3.77-1.88,3.77-4.06c0-0.1,0-0.19-0.01-0.29
			c0-0.04,0-0.1,0-0.25c0-18.66-14.63-33.79-32.69-33.79c-18.06,0-32.69,15.13-32.69,33.79c0,1.4,0.08,2.78,0.24,4.16l0.06,0.44
			h0.01c0.9,6.75,3.79,12.91,8.28,17.86c0.01,0.01,0.01,0.01,0.04,0.04c5,5.51,11.81,9.28,19.38,10.69l0.59,0.11v-0.02
			c0.26,0.04,0.54,0.09,0.89,0.14c10.36,1.25,19.07-0.43,26.14-3.99c1.92-0.97,3.56-2,4.93-3.03c0.48-0.36,0.9-0.7,1.24-1.01
			c0.21-0.18,0.35-0.32,0.43-0.4c1.83-1.88,1.91-2.7,0.82-4.4c-2.53-4.03-3.95-6-3.95-6c-0.99-1.24-1.88-1.52-3.15-0.41
			c-0.22,0.19-0.43,0.32-0.53,0.44c-7.55,6.71-17.45,8.02-26.08,6.21c-1.77-0.48-3.43-1.08-4.96-1.81
			c-5.89-2.96-10.15-8.24-11.38-14.44h48.3C754.74,454.57,754.8,454.57,754.86,454.57 M707.19,442.18
			c2.51-8.17,10.08-13.62,18.93-13.62c8.53,0,16.52,5.82,19.26,13.62H707.19z"/>
		<path class="st0" d="M575.6,416.06c-7.93,0-15.44,2.73-21.44,7.62v-5.22c0-1.82-0.5-2.4-2.4-2.4h-7.63c-1.91,0-2.41,0.53-2.41,2.4
			v97.23c0,1.76,0.5,2.4,2.41,2.4h7.63c1.91,0,2.4-0.62,2.4-2.4v-39.68c6,4.9,13.51,7.63,21.44,7.63
			c18.71,0,33.88-15.13,33.88-33.79S594.31,416.06,575.6,416.06 M575.59,471.21c-11.63,0-21.14-9.26-21.43-20.83v-1.1
			c0.29-11.56,9.8-20.83,21.43-20.83c11.84,0,21.44,9.57,21.44,21.38C597.03,461.64,587.43,471.21,575.59,471.21"/>
		<path class="st0" d="M680.8,454.57c0.06,0,0.12,0,0.18-0.01c2.1-0.1,3.77-1.88,3.77-4.06c0-0.1,0-0.19-0.01-0.29
			c0-0.04,0-0.1,0-0.25c0-18.66-14.63-33.79-32.69-33.79c-18.05,0-32.69,15.13-32.69,33.79c0,1.4,0.08,2.78,0.24,4.16l0.06,0.44
			h0.01c0.9,6.75,3.79,12.91,8.28,17.86c0.01,0.01,0.01,0.01,0.04,0.04c5,5.51,11.81,9.28,19.38,10.69l0.59,0.11v-0.02
			c0.26,0.04,0.54,0.09,0.88,0.14c10.36,1.25,19.08-0.43,26.14-3.99c1.92-0.97,3.56-2,4.93-3.03c0.48-0.36,0.9-0.7,1.24-1.01
			c0.21-0.18,0.35-0.32,0.43-0.4c1.83-1.88,1.91-2.7,0.82-4.4c-2.53-4.03-3.95-6-3.95-6c-0.99-1.24-1.88-1.52-3.15-0.41
			c-0.22,0.19-0.43,0.32-0.53,0.44c-7.55,6.71-17.45,8.02-26.08,6.21c-1.77-0.48-3.43-1.08-4.96-1.81
			c-5.89-2.96-10.15-8.24-11.38-14.44h48.3C680.69,454.57,680.75,454.57,680.8,454.57 M633.14,442.18
			c2.51-8.17,10.08-13.62,18.92-13.62c8.53,0,16.52,5.82,19.27,13.62H633.14z"/>
		<polygon class="st0" points="776.34,483.67 796.04,483.67 796.04,442.18 846.47,442.18 846.47,422.38 796.04,422.38 
			796.04,397.86 848.1,397.86 848.1,378.22 776.34,378.22 		"/>
		<path class="st0" d="M891.31,410.09c-9.84,0-19.24,3.87-26.51,10.9c-7.03,7.28-10.91,16.81-10.91,26.83
			c0,9.86,3.87,19.39,10.91,26.83l0.01,0.01c7.35,7.12,16.75,11.05,26.5,11.05c9.95,0,19.31-3.92,26.35-11.05
			c7.13-7.23,11.07-16.76,11.07-26.83c0-10.07-3.93-19.6-11.06-26.83C910.88,413.96,901.52,410.09,891.31,410.09 M891.31,466.94
			c-10.15,0-18.41-8.58-18.41-19.12c0-10.54,8.26-19.11,18.41-19.11c10.23,0,18.56,8.58,18.56,19.11
			C909.87,458.36,901.55,466.94,891.31,466.94"/>
		<path class="st0" d="M972.72,410.42c-9.84,0-19.24,3.87-26.51,10.9c-7.03,7.28-10.91,16.81-10.91,26.83
			c0,9.86,3.87,19.39,10.9,26.83l0.01,0.01c7.35,7.13,16.75,11.05,26.5,11.05c9.95,0,19.31-3.92,26.35-11.05
			c7.13-7.23,11.07-16.76,11.07-26.83c0-10.08-3.93-19.61-11.06-26.83C992.29,414.29,982.94,410.42,972.72,410.42 M972.72,467.26
			c-10.15,0-18.41-8.57-18.41-19.11c0-10.54,8.26-19.12,18.41-19.12c10.23,0,18.56,8.58,18.56,19.12
			C991.28,458.68,982.96,467.26,972.72,467.26"/>
		<path class="st0" d="M1071.16,378.61v38.22h-0.09c-5.14-4.74-12.05-6.26-18.66-6.26c-10.05,0-18.44,3.12-25.38,10.15
			c-7.03,7.28-10.11,16.69-10.11,26.61c0,9.92,3.06,20.2,10.1,27.48l0.01,0.01c7.09,7.03,16.44,10.08,26.34,10.08
			c5.56,0,12.01-0.76,17.71-6.37l0.08-0.08v5.04H1089V378.61H1071.16z M1053.36,466.63c-9.64,0-17.79-8.96-17.79-19.57
			s8.15-19.57,17.79-19.57c9.64,0,17.79,8.96,17.79,19.57S1063.01,466.63,1053.36,466.63"/>
		<path class="st0" d="M253.85,322.91h-64.78h-64.78L101,357.21l6.06,130.75c0.4,8.58,7.47,15.33,16.06,15.33h24.35v-48.58
			c0-2.05-0.75-4.03-2.11-5.56l-6.54-7.38c-1.58-1.79-2.46-4.91-2.46-7.3v-45.6c0-1.87,1.52-3.39,3.39-3.39h6.3v39.02
			c0,1.82,1.47,3.29,3.3,3.29h0.46c1.82,0,3.29-1.47,3.29-3.29v-39.02h4.54h4.54v39.02c0,1.82,1.47,3.29,3.3,3.29h0.46
			c1.82,0,3.3-1.47,3.3-3.29v-39.02h6.3c1.87,0,3.39,1.51,3.39,3.39v45.6c0,2.39-0.88,5.52-2.46,7.3l-6.54,7.38
			c-1.36,1.53-2.11,3.51-2.11,5.56v48.58h21.28h21.17v-52.61c0-2.93-1.43-5.27-3.41-7.3c-1.14-0.82-2.21-1.75-3.22-2.77
			c-0.01,0-0.01-0.01-0.02-0.01l0-0.01c-5.39-5.47-8.81-13.73-8.81-23.24c0-17.16,11.14-34.52,24.87-34.52
			c13.74,0,24.88,17.37,24.88,34.52c0,9.51-3.42,17.77-8.81,23.24v0.01c-0.01,0.01-0.01,0.01-0.02,0.01
			c-1.01,1.02-2.08,1.95-3.21,2.77c-1.99,2.03-3.41,4.37-3.41,7.3v52.61h25.94c8.59,0,15.66-6.75,16.06-15.33l6.07-130.75
			L253.85,322.91z M226.86,358.16h-37.79h-37.79v-16.75c0-1.97,1.62-3.57,3.61-3.57h34.18h34.18c1.99,0,3.61,1.6,3.61,3.57V358.16z"
			/>
	</g>
</g>
</svg>
